<svg width="18" height="24" viewBox="0 0 18 24" fill="none" xmlns="http://www.w3.org/2000/svg">
<g clip-path="url(#clip0_406_3371)">
<path d="M10.4861 0.0309372C10.4861 0.0309372 14.2003 3.23369 15.0615 10.9912C15.0615 10.9912 15.1952 11.4961 14.4982 11.6321C14.4982 11.6321 12.5408 11.9701 11.1487 11.8382C11.1487 11.8382 11.2156 13.9961 11.2156 14.9421V15.245C11.2156 15.245 11.2156 15.48 11.4182 15.48C11.6208 15.48 12.1152 15.414 12.1152 15.414L12.7778 15.346C12.8407 15.1855 12.9588 15.0536 13.1101 14.975C13.3411 14.874 13.7403 14.637 13.7403 14.637C13.7403 14.637 14.6015 14.2001 14.8994 15.0492C14.9417 15.1458 14.9611 15.2512 14.956 15.3569C14.9509 15.4625 14.9214 15.5655 14.8699 15.6574C14.8184 15.7493 14.7464 15.8276 14.6596 15.8859C14.5728 15.9442 14.4738 15.981 14.3705 15.9931L13.2094 16.0261C13.2094 16.0261 13.0068 16.0612 12.9764 15.8922C12.4249 16.0956 11.8367 16.1757 11.252 16.1271C11.252 16.1271 11.2196 18.9259 11.1203 19.2969H17.6531V0.0639135C17.6531 0.0639135 10.4861 -0.0535625 10.4861 0.0309372Z" fill="white"/>
<path d="M0.0405273 11.4301C0.0405273 11.4301 3.05769 15.552 10.6178 16.0838C10.6178 16.1168 10.4861 19.2536 10.4861 19.2536H0.0405273C0.0405273 19.2536 0.0628167 11.4074 0.0405273 11.4301Z" fill="white"/>
<path d="M13.868 8.02332C12.2774 2.15573 9.9228 0.502838 9.75664 0.366814C9.70984 0.333012 9.67276 0.287107 9.64925 0.233842C9.62573 0.180578 9.61664 0.121892 9.62291 0.0638538C9.67356 0.0143905 0.0405273 0.0638538 0.0405273 0.0638538V10.3172C3.09214 15.1048 10.6178 15.3748 10.6178 15.4098C10.7516 14.8699 10.4861 11.9701 10.4537 11.494C10.4213 11.0179 11.0494 11.0818 11.0494 11.123C13.2378 11.191 14.3989 10.9169 14.3989 10.9169C14.3989 10.2162 13.868 8.02332 13.868 8.02332ZM9.09404 5.94586C8.97381 5.94586 8.85628 5.9096 8.75632 5.84166C8.65635 5.77372 8.57843 5.67716 8.53242 5.56418C8.48641 5.4512 8.47438 5.32689 8.49783 5.20695C8.52129 5.08701 8.57918 4.97684 8.6642 4.89038C8.74921 4.80391 8.85753 4.74502 8.97545 4.72116C9.09337 4.6973 9.21559 4.70955 9.32667 4.75634C9.43775 4.80314 9.53269 4.88239 9.59948 4.98406C9.66628 5.08574 9.70193 5.20528 9.70193 5.32757C9.70193 5.49155 9.63789 5.64881 9.52388 5.76477C9.40988 5.88072 9.25526 5.94586 9.09404 5.94586Z" fill="white"/>
<path d="M2.46189 22.5408L3.17515 22.7757C3.0983 23.1361 2.90671 23.4606 2.63007 23.699C2.35024 23.9084 2.0086 24.0145 1.6615 23.9999C1.43779 24.0068 1.21527 23.9643 1.00925 23.8753C0.803223 23.7864 0.618579 23.6531 0.468008 23.4847C0.139151 23.0929 -0.0285046 22.5872 -6.74415e-05 22.0729C-6.74415e-05 21.4402 0.157982 20.9497 0.470033 20.6014C0.626166 20.4277 0.817624 20.2908 1.03108 20.2C1.24454 20.1092 1.47488 20.0669 1.70608 20.0758C2.04011 20.0508 2.37177 20.1495 2.6399 20.3536C2.90803 20.5578 3.09453 20.8537 3.16501 21.1867L2.43757 21.3681C2.40175 21.1864 2.30681 21.0223 2.16807 20.9023C2.0269 20.7874 1.85038 20.7268 1.6696 20.7312C1.54438 20.7272 1.41992 20.7525 1.30577 20.805C1.19162 20.8575 1.09081 20.9359 1.01105 21.0342C0.843547 21.2362 0.759796 21.5632 0.759796 22.0152C0.759796 22.4954 0.840845 22.8396 1.007 23.0457C1.08478 23.1433 1.18345 23.2215 1.29547 23.2743C1.4075 23.3272 1.52992 23.3533 1.65339 23.3507C1.83973 23.3541 2.02027 23.2848 2.15794 23.157C2.31982 22.9887 2.42606 22.7733 2.46189 22.5408Z" fill="white"/>
<path d="M3.80737 23.9361V20.1418H6.50843V20.7849H4.54292V21.6278H6.36659V22.2667H4.54292V23.2972H6.57935V23.9361H3.80737Z" fill="white"/>
<path d="M7.20142 20.1419H8.54688C8.78002 20.1342 9.01312 20.1584 9.23987 20.214C9.4511 20.2773 9.64111 20.3985 9.789 20.5644C9.94865 20.7418 10.0677 20.953 10.1375 21.1827C10.2235 21.4733 10.2638 21.7758 10.2571 22.0792C10.263 22.3529 10.2253 22.6257 10.1456 22.8871C10.0691 23.1387 9.93509 23.3682 9.75456 23.5569C9.60489 23.6979 9.42425 23.8003 9.22772 23.8558C9.01616 23.9159 8.79684 23.943 8.57727 23.9362H7.20142V20.1419ZM7.93696 20.7829V23.2973H8.48609C8.6356 23.3026 8.78521 23.2902 8.93188 23.2602C9.04254 23.2343 9.14499 23.1804 9.22974 23.1035C9.32367 23 9.38995 22.8737 9.42224 22.7367C9.4781 22.5097 9.50333 22.276 9.49722 22.0421C9.5046 21.8143 9.47934 21.5866 9.42224 21.3661C9.38501 21.2289 9.31546 21.103 9.21961 20.9993C9.12517 20.9079 9.0071 20.8457 8.87919 20.82C8.67819 20.7879 8.47463 20.7755 8.2713 20.7829H7.93696Z" fill="white"/>
<path d="M14.1659 23.9361H13.3554L13.0372 23.0746H11.5803L11.2784 23.9361H10.4983L11.9167 20.1418H12.6948L14.1659 23.9361ZM12.8103 22.4336L12.3078 21.0239L11.8154 22.4336H12.8103Z" fill="white"/>
<path d="M16.8873 22.5408L17.6005 22.7757C17.5237 23.1361 17.3321 23.4606 17.0555 23.699C16.7756 23.9084 16.434 24.0145 16.0869 23.9999C15.8632 24.0068 15.6407 23.9643 15.4346 23.8753C15.2286 23.7864 15.044 23.6531 14.8934 23.4847C14.5651 23.0927 14.3981 22.587 14.4273 22.0729C14.4273 21.4395 14.5834 20.949 14.8954 20.6014C15.0516 20.4277 15.243 20.2908 15.4565 20.2C15.6699 20.1092 15.9003 20.0669 16.1315 20.0758C16.4655 20.0508 16.7972 20.1495 17.0653 20.3536C17.3334 20.5578 17.5199 20.8537 17.5904 21.1867L16.863 21.3681C16.8282 21.186 16.7331 21.0216 16.5935 20.9023C16.4523 20.7874 16.2758 20.7268 16.095 20.7312C15.9698 20.7272 15.8453 20.7525 15.7312 20.805C15.617 20.8575 15.5162 20.9359 15.4364 21.0342C15.2689 21.2362 15.1852 21.5632 15.1852 22.0152C15.1852 22.4961 15.2676 22.8396 15.4324 23.0457C15.5102 23.1433 15.6088 23.2215 15.7209 23.2743C15.8329 23.3272 15.9553 23.3533 16.0788 23.3507C16.2651 23.3541 16.4457 23.2848 16.5833 23.157C16.7452 22.9887 16.8515 22.7733 16.8873 22.5408Z" fill="white"/>
</g>
<defs>
<clipPath id="clip0_406_3371">
<rect width="17.6471" height="24" fill="white"/>
</clipPath>
</defs>
</svg>
