<svg width="54" height="24" viewBox="0 0 54 24" fill="none" xmlns="http://www.w3.org/2000/svg">
<g clip-path="url(#clip0_406_3335)">
<path d="M0.251709 0.392944H8.32497V4.11768H5.01641V7.65396H7.96016V11.1966H5.01641V19.0167H0.251709V0.392944Z" fill="white"/>
<path d="M17.2535 0.392944L19.9771 19.0103H15.1086L14.8507 15.6625H13.1461L12.8599 19.0103H7.93164L10.3627 0.392944H17.2535ZM14.7375 12.3626C14.4943 10.2542 14.2521 7.64757 14.011 4.54255C13.5224 8.10758 13.2174 10.7143 13.0958 12.3626H14.7375Z" fill="white"/>
<path d="M29.1103 0.392944V4.11769H26.2798V19.0103H21.5119V4.11769H18.6814V0.392944H29.1103Z" fill="white"/>
<path d="M41.3256 8.50043H36.5577V5.26443C36.5577 4.32313 36.5074 3.73535 36.4067 3.50109C36.3429 3.37955 36.2437 3.28093 36.1227 3.21863C36.0018 3.15634 35.8648 3.13339 35.7306 3.1529C35.5776 3.13039 35.4216 3.15985 35.2868 3.23668C35.152 3.31351 35.046 3.43341 34.9852 3.57776C34.8445 4.18001 34.7905 4.79979 34.8248 5.41777V14.0652C34.7908 14.6599 34.8449 15.2565 34.9852 15.8349C35.0562 15.9611 35.1587 16.0659 35.2824 16.1388C35.4061 16.2117 35.5466 16.2501 35.6897 16.2501C35.8327 16.2501 35.9732 16.2117 36.0969 16.1388C36.2206 16.0659 36.3232 15.9611 36.3941 15.8349C36.5032 15.5559 36.5577 14.9064 36.5577 13.8863V11.5447H41.3256V12.2731C41.3256 14.1898 41.1914 15.5559 40.923 16.3716C40.585 17.2622 39.9582 18.0093 39.146 18.4895C38.1266 19.1255 36.9451 19.4422 35.7494 19.3999C34.5504 19.448 33.3593 19.1829 32.2899 18.6301C31.4403 18.182 30.7945 17.4172 30.4878 16.4962C30.1943 15.5889 30.0475 14.2228 30.0475 12.3977V6.96709C30.0303 5.95895 30.0755 4.95071 30.1827 3.94832C30.2881 3.2444 30.566 2.5787 30.991 2.01247C31.4738 1.36324 32.1188 0.856999 32.8591 0.546216C33.8584 0.147544 34.9292 -0.0326249 36.0017 0.0174648C37.0741 0.0675544 38.1241 0.346778 39.0831 0.836914C39.9062 1.28454 40.5443 2.01655 40.8821 2.90053C41.1672 3.72258 41.3109 5.00036 41.313 6.73389L41.3256 8.50043Z" fill="white"/>
<path d="M51.2732 0.392944L53.9906 19.0103H49.1284L48.8705 15.6625H47.1659L46.8797 19.0103H41.9514L44.3825 0.392944H51.2732ZM48.7572 12.3626C48.5161 10.2542 48.2739 7.64757 48.0307 4.54255C47.5443 8.10758 47.2392 10.7143 47.1155 12.3626H48.7572Z" fill="white"/>
<path d="M0 23.2845V20.8375H1.50018V21.2528H0.440311V21.831H1.35551V22.2431H0.440311V23.2845H0Z" fill="white"/>
<path d="M1.76427 22.374C1.7646 22.2168 1.80008 22.0617 1.86805 21.9204C1.93333 21.7876 2.03488 21.6767 2.16054 21.6009C2.28792 21.5239 2.43375 21.4841 2.58197 21.4859C2.69316 21.4826 2.80371 21.504 2.90586 21.5487C3.00802 21.5934 3.09929 21.6603 3.17324 21.7447C3.3226 21.9323 3.40408 22.1663 3.40408 22.4075C3.40408 22.6488 3.3226 22.8828 3.17324 23.0704C3.10141 23.1562 3.01158 23.2245 2.91036 23.2704C2.80913 23.3163 2.69907 23.3385 2.58826 23.3355C2.44301 23.336 2.30007 23.2986 2.17312 23.2269C2.03773 23.1568 1.92764 23.045 1.85861 22.9075C1.78646 22.7396 1.75414 22.5569 1.76427 22.374ZM2.19513 22.3964C2.18658 22.5407 2.2265 22.6838 2.30836 22.8021C2.34058 22.8457 2.38237 22.8811 2.43041 22.9055C2.47844 22.9299 2.53141 22.9426 2.58511 22.9426C2.63838 22.9426 2.6909 22.9299 2.73843 22.9055C2.78596 22.8811 2.82717 22.8456 2.85874 22.8021C2.94129 22.6829 2.98123 22.5386 2.97195 22.3932C2.98111 22.2507 2.94107 22.1095 2.85874 21.9939C2.82717 21.9503 2.78596 21.9149 2.73843 21.8904C2.6909 21.866 2.63838 21.8533 2.58511 21.8533C2.53141 21.8533 2.47844 21.866 2.43041 21.8904C2.38237 21.9148 2.34058 21.9502 2.30836 21.9939C2.22556 22.1105 2.1855 22.2529 2.19513 22.3964Z" fill="white"/>
<path d="M4.13264 23.2845H3.71436V21.5116H4.10433V21.7639C4.14792 21.6737 4.20888 21.5933 4.2836 21.5275C4.33744 21.4907 4.40115 21.4718 4.46601 21.4732C4.56448 21.4745 4.66052 21.5045 4.74277 21.5595L4.61068 21.9684C4.55524 21.9226 4.48701 21.8958 4.41569 21.8917C4.36054 21.8905 4.30686 21.9098 4.26473 21.946C4.21478 22.0016 4.18102 22.0701 4.16723 22.144C4.13746 22.3395 4.12588 22.5374 4.13264 22.735V23.2845Z" fill="white"/>
<path d="M5.84026 22.719L6.25856 22.7989C6.21569 22.9526 6.12663 23.0888 6.00381 23.1886C5.87788 23.2811 5.72514 23.3283 5.5698 23.3228C5.44812 23.3342 5.32564 23.3124 5.21505 23.2596C5.10446 23.2068 5.00978 23.1249 4.94079 23.0225C4.83063 22.8391 4.77595 22.627 4.78354 22.4123C4.76901 22.1645 4.84268 21.9196 4.99111 21.7223C5.0536 21.643 5.13315 21.5793 5.22365 21.5361C5.31415 21.4929 5.4132 21.4714 5.51318 21.4732C5.6195 21.4685 5.7254 21.4896 5.82216 21.5345C5.91893 21.5795 6.00381 21.6472 6.06985 21.7319C6.22359 21.9686 6.29346 22.2514 6.26799 22.5337H5.24271C5.23993 22.6487 5.27539 22.7612 5.34335 22.8532C5.37262 22.8898 5.40952 22.9194 5.45139 22.9399C5.49326 22.9603 5.53906 22.9711 5.58552 22.9714C5.64648 22.9723 5.70572 22.9508 5.7522 22.9107C5.79853 22.8563 5.82903 22.79 5.84026 22.719ZM5.86543 22.2462C5.87265 22.1317 5.83917 22.0183 5.77107 21.9268C5.74504 21.8937 5.71202 21.8671 5.67444 21.8489C5.63687 21.8306 5.59571 21.8212 5.55407 21.8214C5.50994 21.821 5.46631 21.8309 5.42652 21.8502C5.38673 21.8696 5.35182 21.898 5.32448 21.9332C5.26097 22.0207 5.2298 22.1281 5.23642 22.2366L5.86543 22.2462Z" fill="white"/>
<path d="M6.62354 21.272V20.8375H7.04497V21.272H6.62354ZM6.62354 23.2845V21.5116H7.04497V23.2845H6.62354Z" fill="white"/>
<path d="M7.44415 23.3994L7.92534 23.4665C7.92681 23.5144 7.94589 23.56 7.97881 23.5943C8.03514 23.6301 8.1012 23.6469 8.1675 23.6422C8.25374 23.6487 8.34001 23.6299 8.41596 23.5879C8.45517 23.5586 8.48389 23.5171 8.49774 23.4697C8.51368 23.3996 8.52003 23.3276 8.5166 23.2557V22.9873C8.46945 23.0736 8.40068 23.1456 8.31728 23.1961C8.23387 23.2466 8.13879 23.2737 8.0417 23.2748C7.93831 23.2748 7.83681 23.2467 7.74776 23.1933C7.65871 23.1399 7.58537 23.0633 7.53536 22.9714C7.43319 22.791 7.38305 22.5851 7.39068 22.3772C7.37392 22.1345 7.44185 21.8936 7.58253 21.6968C7.63884 21.6228 7.71137 21.5632 7.79437 21.5227C7.87736 21.4822 7.96852 21.462 8.06057 21.4636C8.15887 21.465 8.25516 21.4922 8.34003 21.5425C8.42491 21.5929 8.49549 21.6648 8.54491 21.7511V21.5019H8.93804V23.0992C8.94381 23.2561 8.92793 23.4131 8.89086 23.5655C8.86746 23.6567 8.82329 23.7409 8.76192 23.8115C8.69869 23.8739 8.62234 23.9209 8.53862 23.9489C8.42362 23.9852 8.30363 24.0024 8.18323 24C7.98099 24.0206 7.77836 23.9649 7.61399 23.8435C7.55924 23.7952 7.51564 23.7352 7.48629 23.6678C7.45693 23.6005 7.44255 23.5274 7.44415 23.4537V23.3994ZM7.82156 22.3612C7.80959 22.5057 7.84378 22.6502 7.91905 22.7733C7.94489 22.8137 7.98032 22.8469 8.02209 22.8698C8.06385 22.8927 8.11061 22.9046 8.15807 22.9043C8.20902 22.9051 8.25941 22.8933 8.30489 22.8699C8.35036 22.8465 8.38956 22.8123 8.41911 22.7701C8.49875 22.6546 8.53654 22.5146 8.52604 22.374C8.53807 22.2297 8.50147 22.0855 8.42225 21.9651C8.39331 21.9238 8.35512 21.8901 8.31083 21.8668C8.26653 21.8435 8.2174 21.8312 8.1675 21.831C8.11894 21.8318 8.07125 21.8441 8.02814 21.8668C7.98504 21.8895 7.9477 21.9221 7.91905 21.9619C7.84344 22.0758 7.80595 22.2113 7.81212 22.3485L7.82156 22.3612Z" fill="white"/>
<path d="M10.7874 23.2844H10.366V22.3804C10.3728 22.2563 10.3644 22.1318 10.3408 22.0098C10.3263 21.9576 10.2954 21.9116 10.2528 21.8789C10.2113 21.8467 10.1603 21.8298 10.1081 21.831C10.0376 21.8305 9.96888 21.8541 9.91313 21.898C9.85463 21.9409 9.81243 22.003 9.79362 22.0737C9.76664 22.2082 9.75608 22.3455 9.76217 22.4826V23.2844H9.3313V21.5115H9.72128V21.7735C9.77679 21.6832 9.85363 21.6085 9.9448 21.556C10.036 21.5036 10.1386 21.4751 10.2434 21.4732C10.3311 21.4723 10.4181 21.4908 10.4981 21.5275C10.567 21.5594 10.6267 21.6089 10.6711 21.6712C10.7125 21.7295 10.7414 21.7958 10.756 21.8661C10.7721 21.9718 10.7795 22.0786 10.778 22.1855L10.7874 23.2844Z" fill="white"/>
<path d="M13.9293 23.2845H13.4481L13.2563 22.7286H12.3788L12.1996 23.2845H11.731L12.5833 20.8375H13.0519L13.9293 23.2845ZM13.1148 22.3261L12.8003 21.4189L12.5046 22.3261H13.1148Z" fill="white"/>
<path d="M15.5427 22.029L15.1307 22.1121C15.1218 22.0338 15.0875 21.9607 15.0332 21.9044C15.0075 21.8802 14.9773 21.8616 14.9443 21.8495C14.9113 21.8374 14.8763 21.8322 14.8413 21.8342C14.7936 21.8339 14.7464 21.8447 14.7033 21.8657C14.6603 21.8868 14.6225 21.9175 14.5929 21.9556C14.519 22.0768 14.4859 22.2192 14.4985 22.3613C14.4857 22.5155 14.5186 22.6701 14.5929 22.8053C14.6222 22.846 14.6605 22.8791 14.7048 22.9018C14.7491 22.9246 14.798 22.9364 14.8476 22.9363C14.8836 22.9378 14.9195 22.9318 14.953 22.9186C14.9866 22.9054 15.0171 22.8853 15.0426 22.8596C15.1053 22.7861 15.1438 22.6945 15.1527 22.5976L15.5647 22.6775C15.536 22.8606 15.4487 23.029 15.3162 23.1567C15.1785 23.2688 15.005 23.3256 14.8288 23.3164C14.7241 23.3215 14.6196 23.302 14.5236 23.2594C14.4276 23.2167 14.3426 23.152 14.2752 23.0704C14.1402 22.87 14.0679 22.6329 14.0679 22.39C14.0679 22.1471 14.1402 21.91 14.2752 21.7096C14.3445 21.6288 14.4308 21.565 14.5277 21.523C14.6247 21.4809 14.7298 21.4617 14.8351 21.4668C15.0001 21.4571 15.1635 21.5056 15.2974 21.6042C15.4213 21.7159 15.5072 21.8646 15.5427 22.029Z" fill="white"/>
<path d="M17.2441 22.029L16.8321 22.1121C16.823 22.0345 16.79 21.9618 16.7377 21.9045C16.6845 21.8557 16.6144 21.8304 16.5428 21.8342C16.495 21.8339 16.4478 21.8447 16.4047 21.8657C16.3617 21.8868 16.3239 21.9175 16.2943 21.9556C16.2204 22.0768 16.1873 22.2192 16.2 22.3613C16.1871 22.5155 16.22 22.6701 16.2943 22.8053C16.3236 22.846 16.3619 22.8791 16.4062 22.9018C16.4505 22.9246 16.4994 22.9364 16.5491 22.9363C16.5854 22.9375 16.6217 22.9314 16.6557 22.9182C16.6897 22.9051 16.7208 22.8851 16.7472 22.8596C16.8075 22.7849 16.8447 22.6938 16.8541 22.5977L17.2661 22.6775C17.237 22.8598 17.151 23.0278 17.0208 23.1567C16.8816 23.2682 16.7073 23.325 16.5302 23.3164C16.4255 23.3213 16.3211 23.3017 16.2252 23.259C16.1292 23.2164 16.0441 23.1518 15.9767 23.0704C15.8416 22.8701 15.7693 22.6329 15.7693 22.39C15.7693 22.1472 15.8416 21.91 15.9767 21.7096C16.0465 21.6288 16.1334 21.5649 16.2308 21.5229C16.3283 21.4809 16.4339 21.4617 16.5396 21.4668C16.7037 21.4576 16.8659 21.5061 16.9988 21.6042C17.1228 21.7159 17.2086 21.8646 17.2441 22.029Z" fill="white"/>
<path d="M17.4674 22.3741C17.4681 22.2172 17.5024 22.0625 17.568 21.9205C17.6333 21.7877 17.7348 21.6768 17.8605 21.601C17.9889 21.5236 18.1358 21.4838 18.2851 21.486C18.3958 21.4829 18.5058 21.5044 18.6074 21.5491C18.709 21.5939 18.7997 21.6606 18.8732 21.7448C19.0292 21.9278 19.1113 22.1641 19.1028 22.406C19.1112 22.6495 19.028 22.8871 18.8701 23.0705C18.7982 23.1562 18.7084 23.2246 18.6072 23.2704C18.506 23.3163 18.3959 23.3386 18.2851 23.3356C18.1398 23.3361 17.9969 23.2987 17.8699 23.227C17.7346 23.1569 17.6245 23.0451 17.5554 22.9076C17.487 22.7387 17.4569 22.5564 17.4674 22.3741ZM17.8951 22.3964C17.8866 22.5408 17.9265 22.6838 18.0083 22.8021C18.0406 22.8458 18.0823 22.8812 18.1304 22.9056C18.1784 22.93 18.2314 22.9427 18.2851 22.9427C18.3388 22.9427 18.3918 22.93 18.4398 22.9056C18.4878 22.8812 18.5296 22.8458 18.5619 22.8021C18.6433 22.6825 18.6821 22.5383 18.6719 22.3933C18.68 22.2514 18.6412 22.1109 18.5619 21.9939C18.5296 21.9503 18.4878 21.9149 18.4398 21.8905C18.3918 21.8661 18.3388 21.8534 18.2851 21.8534C18.2314 21.8534 18.1784 21.8661 18.1304 21.8905C18.0823 21.9149 18.0406 21.9503 18.0083 21.9939C17.9255 22.1106 17.8855 22.253 17.8951 22.3964Z" fill="white"/>
<path d="M20.4772 23.2844V23.0193C20.4208 23.1125 20.3418 23.1895 20.2476 23.2429C20.1579 23.2959 20.0558 23.3235 19.952 23.3227C19.8514 23.3247 19.7523 23.2981 19.6658 23.2461C19.5826 23.1943 19.5177 23.1172 19.4803 23.0256C19.4378 22.8993 19.4186 22.7661 19.4236 22.6327V21.5115H19.8451V22.3261C19.8385 22.4787 19.8458 22.6316 19.8671 22.7829C19.8796 22.8369 19.9103 22.8847 19.954 22.918C19.9977 22.9513 20.0516 22.9679 20.1061 22.965C20.1752 22.9656 20.2427 22.9432 20.298 22.9011C20.353 22.8609 20.3938 22.8038 20.4143 22.7381C20.4433 22.5802 20.4539 22.4194 20.4458 22.259V21.5115H20.8672V23.2844H20.4772Z" fill="white"/>
<path d="M22.7448 23.2844H22.3265V22.3804C22.3329 22.2561 22.3234 22.1316 22.2982 22.0098C22.2837 21.9576 22.2528 21.9116 22.2102 21.8789C22.1687 21.8466 22.1177 21.8297 22.0655 21.8309C21.9949 21.8304 21.9262 21.8541 21.8705 21.898C21.812 21.9409 21.7698 22.003 21.751 22.0737C21.724 22.2082 21.7134 22.3455 21.7195 22.4826V23.2844H21.2981V21.5115H21.6881V21.7734C21.7439 21.6827 21.8212 21.6077 21.913 21.5552C22.0047 21.5028 22.108 21.4746 22.2133 21.4732C22.3 21.4726 22.3859 21.4911 22.4649 21.5275C22.5347 21.5594 22.5953 21.6089 22.641 21.6712C22.6802 21.7303 22.7079 21.7964 22.7228 21.8661C22.7406 21.9715 22.748 22.0786 22.7448 22.1855V23.2844Z" fill="white"/>
<path d="M23.899 21.5115V21.8853H23.6128V22.6009C23.6128 22.7446 23.6128 22.8277 23.6128 22.8532C23.6197 22.8774 23.6342 22.8986 23.6541 22.9136C23.674 22.9286 23.6981 22.9366 23.7229 22.9363C23.7809 22.931 23.8374 22.9147 23.8896 22.8884L23.9273 23.2525C23.823 23.3015 23.7089 23.3256 23.594 23.3228C23.5236 23.3242 23.4539 23.31 23.3895 23.2813C23.3354 23.2585 23.2893 23.2195 23.2574 23.1695C23.2244 23.1141 23.204 23.0519 23.1977 22.9874C23.1908 22.881 23.1908 22.7743 23.1977 22.6679V21.8949H23.0027V21.5211H23.1977V21.1697L23.6191 20.895V21.5339L23.899 21.5115Z" fill="white"/>
<path d="M25.5375 23.2845V21.2528H24.8865V20.8375H26.6288V21.2528H25.9809V23.2845H25.5375Z" fill="white"/>
<path d="M26.9969 22.0514L26.6163 21.9748C26.6455 21.8265 26.723 21.6925 26.8365 21.5946C26.9749 21.5048 27.138 21.4623 27.302 21.4732C27.4452 21.4635 27.5886 21.4887 27.7202 21.5467C27.8034 21.5868 27.8717 21.6528 27.9152 21.7352C27.9619 21.8693 27.9811 22.0117 27.9718 22.1537V22.6999C27.9684 22.8154 27.9757 22.9309 27.9939 23.0449C28.0093 23.1276 28.0347 23.2081 28.0693 23.2845H27.6511C27.6511 23.2526 27.629 23.2078 27.6133 23.1439C27.5976 23.08 27.6133 23.0992 27.5976 23.0896C27.5325 23.1623 27.4547 23.2218 27.368 23.2653C27.2861 23.3033 27.197 23.3229 27.107 23.3228C27.0373 23.3284 26.9672 23.3188 26.9015 23.2946C26.8357 23.2704 26.7758 23.2322 26.7258 23.1826C26.6758 23.133 26.6367 23.0731 26.6114 23.0069C26.586 22.9408 26.5748 22.8699 26.5786 22.7989C26.5778 22.7056 26.5994 22.6135 26.6415 22.5306C26.684 22.4543 26.7474 22.3922 26.8239 22.3517C26.9297 22.3004 27.0418 22.2638 27.1573 22.2431C27.2959 22.2182 27.4317 22.1797 27.563 22.1281V22.0802C27.5665 22.0458 27.563 22.011 27.5527 21.978C27.5424 21.9451 27.5256 21.9146 27.5032 21.8885C27.4386 21.8414 27.3589 21.8208 27.2799 21.831C27.2177 21.8271 27.1558 21.8439 27.1038 21.8789C27.053 21.9251 27.016 21.9849 26.9969 22.0514ZM27.5567 22.4316C27.4735 22.4617 27.3884 22.4862 27.302 22.505C27.2228 22.5194 27.1464 22.5463 27.0755 22.5849C27.0492 22.6035 27.0277 22.6284 27.0129 22.6573C26.9981 22.6863 26.9905 22.7184 26.9906 22.751C26.99 22.7823 26.9956 22.8133 27.0069 22.8424C27.0183 22.8715 27.0352 22.8979 27.0566 22.9203C27.0782 22.9442 27.1045 22.9631 27.1337 22.9757C27.163 22.9884 27.1947 22.9946 27.2265 22.9938C27.3051 22.9924 27.3808 22.963 27.4403 22.9107C27.4905 22.8718 27.526 22.8165 27.541 22.7542C27.5555 22.6796 27.5608 22.6034 27.5567 22.5274V22.4316Z" fill="white"/>
<path d="M28.1826 23.2844L28.755 22.3708L28.2015 21.5115H28.7141L28.994 22.0002L29.2897 21.5115H29.7834L29.2519 22.3484L29.8369 23.2812H29.3243L29.0098 22.7318L28.6953 23.2812L28.1826 23.2844Z" fill="white"/>
<path d="M32.3403 22.3836L32.7712 22.5369C32.7303 22.7636 32.6203 22.9715 32.4567 23.1311C32.292 23.2647 32.0855 23.3339 31.8749 23.326C31.7395 23.3304 31.6048 23.304 31.4807 23.2487C31.3567 23.1934 31.2463 23.1107 31.1578 23.0065C30.9599 22.747 30.8606 22.4239 30.8779 22.0961C30.8542 21.7523 30.9549 21.4116 31.161 21.1378C31.2509 21.0274 31.3646 20.9395 31.4933 20.8808C31.622 20.8221 31.7622 20.7941 31.9032 20.7992C32.0239 20.7947 32.1442 20.816 32.2563 20.8617C32.3685 20.9074 32.4699 20.9764 32.5542 21.0643C32.6664 21.1923 32.7444 21.3474 32.7806 21.5147L32.3403 21.6329C32.3214 21.5174 32.2649 21.4117 32.1799 21.3326C32.0938 21.2547 31.9807 21.2145 31.8654 21.2208C31.7889 21.2192 31.7131 21.236 31.6443 21.2699C31.5754 21.3038 31.5154 21.3537 31.4692 21.4157C31.3519 21.6063 31.2989 21.8306 31.3182 22.0546C31.2991 22.2852 31.3507 22.5162 31.466 22.7158C31.5106 22.7783 31.5692 22.8289 31.6371 22.8634C31.705 22.8979 31.7801 22.9152 31.856 22.9139C31.9144 22.9165 31.9726 22.9064 32.0268 22.8844C32.081 22.8623 32.13 22.8288 32.1705 22.7861C32.2664 22.6728 32.3257 22.5323 32.3403 22.3836Z" fill="white"/>
<path d="M33.0478 22.374C33.0482 22.2168 33.0837 22.0617 33.1516 21.9204C33.2169 21.7876 33.3185 21.6767 33.4441 21.6009C33.5715 21.5239 33.7173 21.4841 33.8656 21.4859C33.9767 21.4826 34.0873 21.504 34.1894 21.5487C34.2916 21.5934 34.3829 21.6603 34.4568 21.7447C34.6128 21.9277 34.6949 22.164 34.6864 22.4059C34.6948 22.6494 34.6116 22.887 34.4537 23.0704C34.3818 23.1562 34.292 23.2245 34.1908 23.2704C34.0896 23.3163 33.9795 23.3385 33.8687 23.3355C33.7234 23.336 33.5805 23.2986 33.4536 23.2269C33.3182 23.1568 33.2081 23.045 33.1391 22.9075C33.068 22.7394 33.0367 22.5566 33.0478 22.374ZM33.4787 22.3964C33.4702 22.5407 33.5101 22.6838 33.5919 22.8021C33.6242 22.8457 33.6659 22.8811 33.714 22.9055C33.762 22.9299 33.815 22.9426 33.8687 22.9426C33.922 22.9429 33.9746 22.9303 34.0222 22.9058C34.0698 22.8814 34.1109 22.8458 34.1423 22.8021C34.2249 22.6829 34.2648 22.5386 34.2555 22.3932C34.2647 22.2507 34.2247 22.1095 34.1423 21.9939C34.1109 21.9501 34.0698 21.9145 34.0222 21.8901C33.9746 21.8657 33.922 21.8531 33.8687 21.8533C33.815 21.8533 33.762 21.866 33.714 21.8904C33.6659 21.9148 33.6242 21.9502 33.5919 21.9939C33.5091 22.1105 33.4691 22.2529 33.4787 22.3964Z" fill="white"/>
<path d="M34.9851 21.5114H35.3719V21.7542C35.4252 21.6698 35.4981 21.5999 35.5842 21.5509C35.6703 21.5019 35.767 21.4751 35.8657 21.4731C35.9586 21.4705 36.0502 21.4949 36.1299 21.5434C36.21 21.5945 36.2744 21.6676 36.3155 21.7542C36.3742 21.6686 36.4504 21.5967 36.5388 21.5434C36.6169 21.4968 36.706 21.4725 36.7966 21.4731C36.9014 21.4694 37.005 21.496 37.0954 21.5498C37.177 21.6073 37.2396 21.6886 37.2747 21.783C37.3093 21.9021 37.3242 22.0263 37.3187 22.1503V23.2844H36.8973V22.2717C36.9067 22.1562 36.8928 22.0398 36.8564 21.9299C36.8379 21.898 36.8111 21.8718 36.7789 21.8543C36.7467 21.8368 36.7104 21.8287 36.674 21.8309C36.6142 21.8313 36.5564 21.8527 36.5105 21.8916C36.4543 21.9355 36.4144 21.9974 36.3972 22.0673C36.3701 22.1866 36.3585 22.3091 36.3626 22.4315V23.2844H35.9443V22.326C35.948 22.2138 35.9407 22.1014 35.9223 21.9906C35.9093 21.9471 35.8842 21.9082 35.85 21.8788C35.8127 21.8541 35.7687 21.8418 35.7242 21.8437C35.6609 21.8432 35.5992 21.8634 35.5481 21.9012C35.4942 21.944 35.4556 22.0034 35.438 22.0705C35.4105 22.1898 35.3989 22.3122 35.4034 22.4346V23.2971H34.9851V21.5114Z" fill="white"/>
<path d="M37.7246 21.5115H38.1146V21.7734C38.1656 21.6852 38.2368 21.6107 38.3222 21.5562C38.4083 21.4999 38.5091 21.471 38.6115 21.4731C38.7025 21.4735 38.7923 21.4953 38.8736 21.5369C38.9549 21.5785 39.0256 21.6387 39.0801 21.7127C39.2187 21.9082 39.2864 22.1463 39.272 22.3867C39.2882 22.6328 39.2192 22.8769 39.077 23.0767C39.0236 23.1525 38.9533 23.2144 38.8719 23.2571C38.7904 23.2999 38.7001 23.3224 38.6084 23.3227C38.5252 23.3238 38.4432 23.304 38.3693 23.2652C38.2828 23.2134 38.207 23.1451 38.146 23.064V23.9456H37.7246V21.5115ZM38.1398 22.3676C38.1278 22.5224 38.1653 22.677 38.2467 22.8084C38.2749 22.8519 38.3131 22.8877 38.3581 22.9128C38.403 22.9379 38.4533 22.9514 38.5046 22.9522C38.5524 22.9521 38.5995 22.9401 38.6417 22.9173C38.6839 22.8945 38.72 22.8615 38.7467 22.8212C38.8229 22.6914 38.857 22.5405 38.8442 22.3899C38.8553 22.2456 38.8212 22.1013 38.7467 21.9779C38.7184 21.9374 38.6812 21.9043 38.6381 21.881C38.595 21.8577 38.5471 21.8449 38.4983 21.8437C38.4481 21.8431 38.3986 21.8546 38.3537 21.8774C38.3088 21.9002 38.27 21.9335 38.2404 21.9747C38.1657 22.091 38.1303 22.229 38.1398 22.3676Z" fill="white"/>
<path d="M39.6052 23.2845V20.8375H40.0267V23.2845H39.6052Z" fill="white"/>
<path d="M40.467 21.272V20.8375H40.8885V21.272H40.467ZM40.467 23.2845V21.5116H40.8885V23.2845H40.467Z" fill="white"/>
<path d="M41.6211 22.0514L41.2374 21.9748C41.2689 21.8267 41.3474 21.6932 41.4607 21.5946C41.5989 21.5042 41.7622 21.4616 41.9262 21.4732C42.0694 21.4635 42.2128 21.4887 42.3445 21.5467C42.4276 21.5868 42.4959 21.6528 42.5394 21.7352C42.5831 21.87 42.6013 22.012 42.5929 22.1537V22.6999C42.5904 22.8152 42.5967 22.9306 42.6118 23.0449C42.6301 23.1268 42.6554 23.207 42.6873 23.2845H42.2721C42.2721 23.2526 42.247 23.2078 42.2312 23.1439C42.2155 23.08 42.2312 23.0992 42.2312 23.0896C42.1655 23.1615 42.0878 23.221 42.0016 23.2653C41.9187 23.3037 41.8286 23.3233 41.7375 23.3228C41.6669 23.3273 41.5962 23.3165 41.5301 23.2911C41.464 23.2658 41.4039 23.2265 41.3538 23.1759C41.3065 23.1259 41.2697 23.0667 41.2454 23.002C41.221 22.9372 41.2098 22.8682 41.2122 22.7989C41.2098 22.7055 41.2315 22.613 41.2751 22.5306C41.3174 22.4552 41.3794 22.3933 41.4544 22.3517C41.5615 22.3009 41.6746 22.2644 41.7909 22.2431C41.9295 22.2182 42.0654 22.1797 42.1966 22.1281V22.0802C42.2001 22.0458 42.1966 22.011 42.1864 21.978C42.1761 21.9451 42.1592 21.9146 42.1369 21.8885C42.0715 21.8406 41.9904 21.82 41.9104 21.831C41.8492 21.8275 41.7885 21.8443 41.7375 21.8789C41.6832 21.9239 41.6428 21.9838 41.6211 22.0514ZM42.1809 22.4316C42.0977 22.4617 42.0126 22.4862 41.9262 22.505C41.8462 22.5201 41.7688 22.547 41.6966 22.5849C41.6712 22.6042 41.6506 22.6293 41.6364 22.6582C41.6222 22.687 41.6148 22.7188 41.6148 22.751C41.6142 22.7823 41.6198 22.8133 41.6311 22.8424C41.6425 22.8715 41.6594 22.8979 41.6809 22.9203C41.7019 22.9439 41.7276 22.9627 41.7564 22.9753C41.7851 22.988 41.8162 22.9943 41.8475 22.9938C41.927 22.9918 42.0035 22.9625 42.0645 22.9107C42.1136 22.8708 42.1489 22.8159 42.1652 22.7542C42.1781 22.6794 42.1834 22.6034 42.1809 22.5274V22.4316Z" fill="white"/>
<path d="M44.4518 23.2844H44.0304V22.3804C44.0372 22.2563 44.0288 22.1318 44.0052 22.0098C43.9907 21.9576 43.9598 21.9116 43.9172 21.8789C43.8757 21.8467 43.8247 21.8298 43.7725 21.831C43.7009 21.8297 43.631 21.8534 43.5744 21.898C43.5181 21.9425 43.4773 22.004 43.458 22.0737C43.431 22.2082 43.4205 22.3455 43.4266 22.4826V23.2844H43.0051V21.5115H43.3951V21.7735C43.4506 21.6832 43.5274 21.6085 43.6186 21.556C43.7098 21.5036 43.8124 21.4751 43.9172 21.4732C44.005 21.4723 44.0919 21.4908 44.1719 21.5275C44.2409 21.5594 44.3005 21.6089 44.3449 21.6712C44.3863 21.7295 44.4152 21.7958 44.4298 21.8661C44.4459 21.9718 44.4533 22.0786 44.4518 22.1855V23.2844Z" fill="white"/>
<path d="M46.26 22.029L45.848 22.1121C45.8391 22.0338 45.8048 21.9607 45.7505 21.9045C45.7248 21.8803 45.6946 21.8616 45.6616 21.8495C45.6286 21.8374 45.5936 21.8322 45.5586 21.8342C45.5109 21.8339 45.4637 21.8447 45.4206 21.8657C45.3776 21.8868 45.3398 21.9175 45.3102 21.9556C45.2363 22.0768 45.2032 22.2192 45.2158 22.3613C45.203 22.5155 45.2358 22.6701 45.3102 22.8053C45.3395 22.846 45.3778 22.8791 45.4221 22.9018C45.4664 22.9246 45.5153 22.9364 45.5649 22.9363C45.6013 22.9375 45.6376 22.9314 45.6716 22.9182C45.7056 22.9051 45.7367 22.8851 45.7631 22.8596C45.8234 22.7849 45.8606 22.6938 45.87 22.5977L46.282 22.6775C46.2528 22.8598 46.1668 23.0278 46.0367 23.1567C45.8974 23.2682 45.7232 23.325 45.5461 23.3164C45.4414 23.3213 45.337 23.3017 45.241 23.259C45.145 23.2164 45.06 23.1518 44.9925 23.0704C44.8574 22.8701 44.7852 22.6329 44.7852 22.39C44.7852 22.1472 44.8574 21.91 44.9925 21.7096C45.0622 21.6286 45.1491 21.5646 45.2466 21.5226C45.3441 21.4805 45.4497 21.4615 45.5555 21.4668C45.7196 21.4576 45.8817 21.5061 46.0147 21.6042C46.1386 21.7159 46.2245 21.8646 46.26 22.029Z" fill="white"/>
<path d="M47.4993 22.7191L47.9176 22.7989C47.8747 22.9526 47.7857 23.0889 47.6629 23.1886C47.536 23.2817 47.3821 23.3289 47.2257 23.3228C47.1066 23.3313 46.9873 23.3081 46.8798 23.2555C46.7722 23.2028 46.6801 23.1225 46.6124 23.0225C46.5023 22.8392 46.4476 22.627 46.4552 22.4124C46.4406 22.1645 46.5143 21.9197 46.6627 21.7224C46.7252 21.6431 46.8048 21.5794 46.8953 21.5362C46.9858 21.493 47.0848 21.4715 47.1848 21.4732C47.2915 21.4688 47.3978 21.49 47.495 21.5349C47.5923 21.5799 47.6778 21.6473 47.7446 21.732C47.8973 21.9691 47.966 22.2518 47.9396 22.5338H46.886C46.8829 22.6493 46.9196 22.7623 46.9898 22.8532C47.0191 22.8899 47.056 22.9195 47.0979 22.9399C47.1397 22.9603 47.1855 22.9711 47.232 22.9714C47.2919 22.9719 47.35 22.9503 47.3955 22.9107C47.4474 22.8582 47.4834 22.7917 47.4993 22.7191ZM47.5213 22.2463C47.5286 22.1318 47.4951 22.0184 47.427 21.9268C47.401 21.8938 47.3679 21.8672 47.3303 21.8489C47.2928 21.8307 47.2516 21.8213 47.21 21.8214C47.1663 21.821 47.1231 21.8309 47.0838 21.8503C47.0446 21.8697 47.0102 21.8981 46.9835 21.9332C46.9188 22.0201 46.8874 22.128 46.8955 22.2367L47.5213 22.2463Z" fill="white"/>
<path d="M50.9966 23.2845H50.5311L50.3393 22.7286H49.465L49.2826 23.2845H48.814L49.6663 20.8375H50.1349L50.9966 23.2845ZM50.182 22.3261L49.8675 21.4189L49.5876 22.3166L50.182 22.3261Z" fill="white"/>
<path d="M52.6098 22.029L52.1978 22.1121C52.1887 22.0345 52.1557 21.9618 52.1035 21.9045C52.0512 21.8562 51.9822 21.8309 51.9116 21.8342C51.8633 21.8334 51.8155 21.844 51.7719 21.865C51.7283 21.8861 51.69 21.9171 51.66 21.9556C51.5861 22.0768 51.553 22.2192 51.5657 22.3613C51.5528 22.5155 51.5857 22.6701 51.66 22.8053C51.6893 22.846 51.7277 22.8791 51.7719 22.9018C51.8162 22.9246 51.8652 22.9364 51.9148 22.9363C51.9512 22.9379 51.9876 22.9319 52.0216 22.9187C52.0557 22.9056 52.0868 22.8854 52.1129 22.8596C52.1733 22.7849 52.2105 22.6938 52.2198 22.5977L52.6318 22.6775C52.6027 22.8598 52.5167 23.0278 52.3865 23.1567C52.2473 23.2682 52.0731 23.325 51.8959 23.3164C51.7913 23.3208 51.6871 23.301 51.5912 23.2584C51.4953 23.2157 51.4102 23.1515 51.3424 23.0704C51.2073 22.8701 51.135 22.6329 51.135 22.39C51.135 22.1472 51.2073 21.91 51.3424 21.7096C51.4122 21.6288 51.4991 21.5649 51.5966 21.5229C51.694 21.4809 51.7996 21.4617 51.9053 21.4668C52.0694 21.4576 52.2316 21.5061 52.3645 21.6042C52.4906 21.7141 52.577 21.8636 52.6098 22.029Z" fill="white"/>
<path d="M53.6572 21.5115V21.8853H53.3616V22.6009C53.3616 22.7446 53.3616 22.8277 53.3616 22.8532C53.3685 22.8774 53.383 22.8986 53.4028 22.9136C53.4227 22.9286 53.4469 22.9366 53.4717 22.9363C53.5306 22.9307 53.5882 22.9145 53.6415 22.8884L53.6761 23.2525C53.5717 23.3015 53.4577 23.3256 53.3427 23.3228C53.2724 23.3242 53.2027 23.31 53.1383 23.2813C53.0841 23.2585 53.0381 23.2195 53.0062 23.1695C52.9746 23.1134 52.9542 23.0515 52.9465 22.9874C52.9396 22.881 52.9396 22.7743 52.9465 22.6679V21.8949H52.7515V21.5211H52.9465V21.1697L53.3679 20.895V21.5339L53.6572 21.5115Z" fill="white"/>
</g>
<defs>
<clipPath id="clip0_406_3335">
<rect width="54" height="24" fill="white"/>
</clipPath>
</defs>
</svg>
