<svg width="46" height="24" viewBox="0 0 46 24" fill="none" xmlns="http://www.w3.org/2000/svg">
<g clip-path="url(#clip0_406_3380)">
<path d="M38.3096 9.56609V8.91589H35.824V8.13413H37.5902V7.48203H35.824V7.02632H38.3096V6.27698H34.3201V9.56609H38.3096Z" fill="white"/>
<path d="M40.3973 9.56609V8.13413H42.1634V7.48203H40.3973V7.02632H42.881V6.27698H38.8933V9.56609H40.3973Z" fill="white"/>
<path d="M29.4521 8.46021H30.8413C30.8521 8.51857 30.8746 8.57416 30.9075 8.62363C30.9404 8.67311 30.983 8.71546 31.0327 8.74813C31.2192 8.8867 31.4492 8.95432 31.6813 8.9388C31.8485 8.94718 32.0151 8.91307 32.1654 8.83965C32.212 8.82051 32.2524 8.78909 32.2824 8.74879C32.3124 8.70848 32.3309 8.66079 32.3357 8.61084C32.3308 8.56289 32.3132 8.5171 32.2846 8.47822C32.256 8.43934 32.2175 8.40877 32.1731 8.38966C31.9346 8.28749 31.6815 8.22315 31.423 8.19899C30.9463 8.15239 30.4814 8.02335 30.0491 7.81764C29.9296 7.76369 29.8275 7.67771 29.7542 7.5693C29.6809 7.46089 29.6393 7.3343 29.6339 7.20368C29.6366 7.11625 29.6568 7.03025 29.6933 6.95069C29.7298 6.87113 29.7818 6.79962 29.8463 6.74034C30.0262 6.57415 30.2454 6.45607 30.4835 6.39713C30.865 6.30262 31.2578 6.26092 31.6507 6.27319C32.1241 6.2488 32.5972 6.32619 33.038 6.50009C33.1869 6.5622 33.3177 6.66087 33.418 6.78689C33.5184 6.91291 33.5851 7.06219 33.612 7.22084H32.2324C32.2169 7.16279 32.1878 7.10922 32.1476 7.06449C32.1074 7.01976 32.0571 6.98513 32.0009 6.96343C31.8493 6.88978 31.6814 6.85567 31.5129 6.86428C31.3814 6.85726 31.2501 6.88212 31.1302 6.93674C31.0942 6.95142 31.063 6.97577 31.04 7.00707C31.0171 7.03837 31.0032 7.07541 31.0001 7.11406C31.0001 7.16364 31.0346 7.2094 31.1073 7.25135C31.2639 7.31596 31.43 7.35523 31.599 7.36766C32.0647 7.4235 32.5249 7.51789 32.9748 7.64985C33.2037 7.71435 33.4124 7.83573 33.5814 8.0026C33.7033 8.12942 33.7718 8.29796 33.7727 8.47356C33.7715 8.58094 33.7485 8.68697 33.7051 8.78527C33.6617 8.88356 33.5988 8.97211 33.5202 9.04558C33.3215 9.23094 33.0784 9.36227 32.8141 9.42692C32.4397 9.52546 32.0531 9.5704 31.666 9.5604C30.8585 9.5604 30.2998 9.45743 29.9898 9.24769C29.8467 9.16496 29.7241 9.05124 29.631 8.91494C29.538 8.77863 29.4768 8.62323 29.4521 8.46021Z" fill="white"/>
<path d="M7.39177 8.36486H8.8728C8.78799 8.62029 8.64298 8.85175 8.44992 9.03984C8.23858 9.20894 7.99421 9.33232 7.73237 9.40212C7.37658 9.49121 7.01038 9.53226 6.64362 9.52415C6.20127 9.53531 5.75952 9.48526 5.33099 9.37543C4.9977 9.27915 4.69511 9.09851 4.4527 8.85107C4.33018 8.72493 4.23434 8.57553 4.1709 8.41176C4.10746 8.24798 4.07771 8.07317 4.08341 7.89771C4.07468 7.65816 4.13041 7.42063 4.2448 7.20976C4.35919 6.99888 4.52808 6.82232 4.73399 6.69838C5.16643 6.41999 5.77873 6.2808 6.5709 6.2808C7.07024 6.25939 7.56863 6.34119 8.0347 6.52105C8.38869 6.68122 8.67953 7.09307 8.85174 7.42484L7.4798 7.44963C7.44544 7.3705 7.39531 7.29914 7.33246 7.23989C7.24135 7.16205 7.1352 7.10365 7.02056 7.06828C6.88674 7.02717 6.74728 7.00723 6.60726 7.00917C6.31839 6.98943 6.03347 7.08475 5.81508 7.27421C5.73949 7.35731 5.68195 7.45508 5.64606 7.56139C5.61017 7.6677 5.59671 7.78025 5.60652 7.89199C5.60652 8.23902 5.6888 8.47926 5.85527 8.60701C6.06079 8.74674 6.30733 8.81387 6.55559 8.79769C6.84644 8.79769 7.08562 8.76908 7.21574 8.63943C7.3803 8.47354 7.3248 8.56888 7.39177 8.36486Z" fill="white"/>
<path d="M9.24988 7.91482C9.24148 7.67536 9.29518 7.43778 9.40579 7.22503C9.51639 7.01228 9.68017 6.83153 9.88132 6.70024C10.3023 6.41041 10.8891 6.2655 11.6417 6.2655C12.3943 6.2655 12.9881 6.40787 13.4231 6.69261C13.622 6.82171 13.784 6.99975 13.8936 7.20952C14.0033 7.41928 14.0567 7.65367 14.0488 7.89003C14.0624 8.21695 13.9661 8.53903 13.7752 8.80526C13.569 9.06063 13.2953 9.25348 12.985 9.36203C12.5708 9.50261 12.1345 9.56721 11.6972 9.5527C11.259 9.56438 10.8217 9.50646 10.4018 9.3811C10.0794 9.2799 9.79128 9.09183 9.56942 8.83768C9.35366 8.57911 9.24004 8.25096 9.24988 7.91482ZM10.6811 7.91482C10.6689 8.04231 10.686 8.17091 10.7311 8.29084C10.7761 8.41077 10.8481 8.51888 10.9414 8.60697C11.153 8.74393 11.3999 8.81682 11.6522 8.81682C11.9046 8.81682 12.1515 8.74393 12.3631 8.60697C12.5315 8.46968 12.6157 8.22371 12.6157 7.86906C12.6266 7.74645 12.6084 7.623 12.5625 7.50872C12.5166 7.39443 12.4444 7.29252 12.3516 7.21124C12.144 7.0639 11.8923 6.99128 11.6379 7.00531C11.389 6.99306 11.1435 7.06718 10.9433 7.21505C10.8489 7.30471 10.7766 7.41481 10.7318 7.53682C10.687 7.65882 10.671 7.78947 10.685 7.91863L10.6811 7.91482Z" fill="white"/>
<path d="M14.7644 6.31702H16.0254L17.671 8.11506V6.31702H18.9415V9.55846H17.671L16.0426 7.77376V9.56037H14.774L14.7644 6.31702Z" fill="white"/>
<path d="M19.7107 6.30169H21.8863C22.2366 6.29204 22.5865 6.33249 22.9253 6.42181C23.1657 6.48894 23.3888 6.60662 23.5797 6.76693C23.7486 6.90771 23.88 7.08781 23.9624 7.29128C24.0408 7.49247 24.0804 7.70659 24.0791 7.92241C24.0945 8.20355 24.0351 8.48377 23.9069 8.73468C23.7866 8.93095 23.6222 9.09673 23.4266 9.21899C23.2252 9.34663 23.0011 9.43465 22.7665 9.4783C22.4789 9.53377 22.1869 9.56313 21.894 9.56601H19.7107V6.30169ZM21.1745 7.04341V8.82429H21.5342C21.754 8.83456 21.974 8.81142 22.1867 8.75565C22.3131 8.71023 22.4203 8.62354 22.491 8.50968C22.5776 8.33202 22.6152 8.1346 22.6 7.93766C22.6 7.59255 22.5177 7.35611 22.3551 7.22836C22.1108 7.07964 21.8251 7.01281 21.54 7.03769L21.1745 7.04341Z" fill="white"/>
<path d="M27.4852 6.30176H28.838V8.20849C28.8391 8.3941 28.7972 8.57747 28.7155 8.74428C28.6272 8.92136 28.4956 9.07346 28.3328 9.18664C28.1688 9.30731 27.984 9.39713 27.7875 9.45168C27.4746 9.5287 27.153 9.56459 26.8308 9.55845C26.6165 9.55845 26.383 9.54701 26.1304 9.52604C25.9138 9.5112 25.7002 9.4676 25.4952 9.39638C25.326 9.33041 25.1688 9.23699 25.0302 9.11991C24.9057 9.02134 24.8066 8.89451 24.7413 8.75C24.6646 8.57927 24.6218 8.3954 24.615 8.20849V6.30176H25.9678V8.25806C25.964 8.33673 25.9794 8.41514 26.0128 8.48655C26.0461 8.55796 26.0963 8.62023 26.1592 8.66801C26.328 8.76362 26.5189 8.81388 26.7131 8.81388C26.9073 8.81388 27.0982 8.76362 27.267 8.66801C27.3304 8.62027 27.381 8.55773 27.4144 8.48591C27.4477 8.41408 27.4628 8.33518 27.4584 8.25616L27.4852 6.30176Z" fill="white"/>
<path d="M1.87166 17.233L2.22947 17.3455C2.19044 17.5188 2.09407 17.6739 1.95585 17.786C1.81613 17.8871 1.64619 17.9382 1.47365 17.9309C1.36243 17.9344 1.25174 17.9141 1.14908 17.8714C1.04641 17.8286 0.95416 17.7644 0.878571 17.683C0.716054 17.4974 0.632937 17.2558 0.647038 17.0099C0.63067 16.7541 0.714339 16.502 0.880486 16.3063C0.959341 16.2233 1.05512 16.158 1.1614 16.1149C1.26767 16.0719 1.38197 16.052 1.49661 16.0566C1.69511 16.0477 1.8893 16.116 2.03813 16.2472C2.13143 16.3389 2.19763 16.4543 2.22947 16.5809L1.86591 16.6667C1.84845 16.5797 1.80109 16.5015 1.73198 16.4455C1.66132 16.3899 1.57323 16.3609 1.48322 16.3635C1.42125 16.3616 1.35963 16.3736 1.30297 16.3987C1.24631 16.4238 1.19608 16.4613 1.15602 16.5085C1.05955 16.645 1.01479 16.8112 1.02973 16.9775C1.01328 17.1497 1.05723 17.3222 1.15411 17.4656C1.19291 17.5129 1.24204 17.5507 1.29776 17.5762C1.35348 17.6016 1.4143 17.614 1.47557 17.6124C1.56811 17.6148 1.65795 17.5813 1.72623 17.519C1.80317 17.4409 1.85397 17.341 1.87166 17.233Z" fill="white"/>
<path d="M2.45714 17.2254C2.45757 17.1081 2.48716 16.9928 2.54325 16.8898C2.59719 16.7845 2.68193 16.6981 2.78625 16.6419C2.89427 16.5857 3.01455 16.5568 3.13642 16.558C3.22685 16.5544 3.31704 16.5695 3.40134 16.6023C3.48564 16.6351 3.56222 16.685 3.62626 16.7487C3.68965 16.8129 3.7393 16.8893 3.77219 16.9732C3.80508 17.0571 3.82053 17.1468 3.81761 17.2368C3.82065 17.3277 3.80528 17.4183 3.7724 17.5031C3.73953 17.588 3.68982 17.6654 3.62626 17.7307C3.56294 17.7943 3.48704 17.8441 3.40337 17.8769C3.31971 17.9097 3.2301 17.9248 3.14025 17.9213C3.02051 17.9219 2.9024 17.8937 2.79583 17.8393C2.68912 17.7883 2.60137 17.7048 2.54517 17.601C2.48518 17.4849 2.45494 17.3559 2.45714 17.2254ZM2.81496 17.2425C2.80739 17.3502 2.84011 17.4568 2.9068 17.5419C2.93517 17.5754 2.97068 17.6022 3.01072 17.6203C3.05076 17.6384 3.09435 17.6475 3.13833 17.6468C3.18176 17.6475 3.22478 17.6384 3.2642 17.6202C3.30362 17.6021 3.33843 17.5753 3.36604 17.5419C3.4271 17.4539 3.45981 17.3495 3.45981 17.2425C3.45981 17.1356 3.4271 17.0311 3.36604 16.9432C3.33807 16.9103 3.30315 16.8841 3.26378 16.8663C3.22441 16.8484 3.18156 16.8396 3.13833 16.8402C3.09454 16.8395 3.05114 16.8484 3.01114 16.8662C2.97115 16.8839 2.93553 16.9102 2.9068 16.9432C2.84096 17.0286 2.80895 17.1351 2.81688 17.2425H2.81496Z" fill="white"/>
<path d="M4.06445 16.5866H4.38591V16.7678C4.43314 16.7036 4.49476 16.6515 4.56587 16.6154C4.63698 16.5793 4.71558 16.5603 4.79538 16.5599C4.87194 16.5581 4.94768 16.5758 5.01544 16.6114C5.07944 16.6485 5.13178 16.7026 5.1666 16.7678C5.2186 16.7028 5.28381 16.6495 5.35794 16.6114C5.42412 16.5772 5.49769 16.5595 5.57226 16.5599C5.65751 16.5573 5.74196 16.577 5.81718 16.6171C5.8845 16.6573 5.93689 16.7182 5.96643 16.7906C5.99571 16.8778 6.00805 16.9697 6.00279 17.0614V17.9003H5.65454V17.1491C5.66279 17.0635 5.65032 16.9772 5.61818 16.8974C5.60267 16.8729 5.58077 16.853 5.55482 16.8399C5.52888 16.8268 5.49985 16.821 5.47084 16.823C5.42136 16.8224 5.373 16.8378 5.33308 16.8669C5.28811 16.8984 5.25507 16.9441 5.23931 16.9966C5.21725 17.0857 5.20824 17.1775 5.21253 17.2692V17.8984H4.86428V17.1796C4.86777 17.0965 4.86134 17.0133 4.84514 16.9317C4.83579 16.8987 4.81557 16.8699 4.78773 16.8497C4.75598 16.8309 4.71943 16.8216 4.6825 16.823C4.63084 16.8218 4.58005 16.8364 4.53707 16.865C4.49226 16.895 4.45916 16.9394 4.44331 16.9908C4.42187 17.0794 4.41285 17.1705 4.41652 17.2616V17.8984H4.06445V16.5866Z" fill="white"/>
<path d="M6.34717 16.4093V16.089H6.6935V16.4093H6.34717ZM6.34717 17.8985V16.5866H6.6935V17.8985H6.34717Z" fill="white"/>
<path d="M6.92896 17.5305L7.27912 17.4771C7.29012 17.5375 7.32192 17.5921 7.36905 17.6316C7.42552 17.669 7.49269 17.6871 7.56039 17.6831C7.6316 17.6888 7.70275 17.6714 7.76322 17.6335C7.78064 17.6229 7.79473 17.6076 7.80386 17.5894C7.813 17.5712 7.81681 17.5508 7.81489 17.5305C7.81576 17.5059 7.80682 17.4819 7.79001 17.4638C7.7554 17.441 7.71622 17.4261 7.67521 17.4199C7.48999 17.3893 7.31018 17.3321 7.14135 17.2502C7.09168 17.2188 7.0511 17.175 7.02359 17.1232C6.99608 17.0714 6.98258 17.0133 6.98444 16.9547C6.98332 16.8998 6.99501 16.8454 7.01859 16.7957C7.04217 16.7461 7.07698 16.7026 7.1203 16.6687C7.24094 16.5815 7.38891 16.5402 7.53743 16.5524C7.67705 16.5425 7.81659 16.5729 7.93927 16.6401C8.03295 16.7001 8.1011 16.7924 8.13061 16.8994L7.80149 16.9585C7.7893 16.9115 7.76084 16.8703 7.72113 16.8422C7.67041 16.8119 7.6118 16.7973 7.55274 16.8002C7.48647 16.7956 7.42021 16.8095 7.3614 16.8403C7.349 16.8474 7.33874 16.8577 7.33168 16.8701C7.32461 16.8825 7.321 16.8966 7.32121 16.9108C7.32134 16.9233 7.32455 16.9356 7.33055 16.9466C7.33656 16.9576 7.34518 16.9669 7.35565 16.9738C7.45936 17.0202 7.56872 17.0529 7.68094 17.071C7.81813 17.0946 7.94864 17.1472 8.06363 17.2254C8.10026 17.2573 8.12911 17.297 8.14801 17.3416C8.16691 17.3862 8.17536 17.4345 8.1727 17.4829C8.17279 17.5427 8.15924 17.6018 8.13305 17.6556C8.10686 17.7094 8.06873 17.7567 8.02154 17.7937C7.89247 17.8885 7.73375 17.9344 7.57379 17.9233C7.42434 17.9315 7.276 17.8936 7.14901 17.8146C7.04312 17.7501 6.96479 17.6489 6.92896 17.5305Z" fill="white"/>
<path d="M8.46338 16.4093V16.089H8.80971V16.4093H8.46338ZM8.46338 17.8985V16.5866H8.80971V17.8985H8.46338Z" fill="white"/>
<path d="M9.08727 17.2254C9.0877 17.1082 9.11728 16.9929 9.17337 16.8898C9.22731 16.7846 9.31206 16.6981 9.41638 16.6419C9.52422 16.5852 9.64462 16.5564 9.76655 16.558C9.85698 16.5545 9.94717 16.5695 10.0315 16.6024C10.1158 16.6352 10.1923 16.685 10.2564 16.7487C10.3801 16.8825 10.4488 17.0578 10.4488 17.2397C10.4488 17.4216 10.3801 17.5969 10.2564 17.7307C10.1931 17.7943 10.1172 17.8441 10.0335 17.8769C9.94982 17.9097 9.86021 17.9249 9.77037 17.9214C9.65063 17.9219 9.53251 17.8938 9.42594 17.8394C9.31885 17.7888 9.23095 17.7053 9.17528 17.601C9.1153 17.485 9.08507 17.3559 9.08727 17.2254ZM9.44317 17.2426C9.43615 17.3505 9.46955 17.4571 9.53693 17.5419C9.5651 17.5752 9.60028 17.6018 9.63997 17.6199C9.67966 17.6381 9.72289 17.6472 9.76655 17.6468C9.81027 17.6476 9.85361 17.6386 9.89337 17.6205C9.93312 17.6023 9.96826 17.5755 9.99616 17.5419C10.0572 17.4539 10.0899 17.3495 10.0899 17.2426C10.0899 17.1356 10.0572 17.0312 9.99616 16.9432C9.9679 16.9102 9.93265 16.8839 9.89295 16.8661C9.85324 16.8483 9.81008 16.8394 9.76655 16.8402C9.72308 16.8398 9.68003 16.8488 9.64039 16.8666C9.60075 16.8844 9.56545 16.9105 9.53693 16.9432C9.46988 17.0282 9.43651 17.1347 9.44317 17.2426ZM9.60773 16.4169L9.77803 16.049H10.1607L9.82012 16.4169H9.60773Z" fill="white"/>
<path d="M11.9153 17.8985H11.5671V17.2293C11.5723 17.1372 11.5653 17.0449 11.546 16.9547C11.5331 16.9153 11.5075 16.8811 11.4733 16.8575C11.4369 16.8339 11.3942 16.822 11.3508 16.8231C11.2927 16.8219 11.2357 16.8393 11.1882 16.8727C11.1418 16.904 11.1069 16.9495 11.0887 17.0024C11.0666 17.1018 11.0576 17.2038 11.0619 17.3055V17.8985H10.7156V16.5867H11.039V16.7774C11.0882 16.7084 11.1534 16.6523 11.229 16.6138C11.3046 16.5753 11.3884 16.5556 11.4733 16.5562C11.5455 16.5553 11.617 16.5689 11.6838 16.5962C11.74 16.619 11.7894 16.6557 11.8273 16.703C11.8608 16.7456 11.8843 16.7951 11.8962 16.8479C11.9112 16.9252 11.9176 17.0038 11.9153 17.0824V17.8985Z" fill="white"/>
<path d="M12.9812 17.8985V16.089H13.3352L14.0814 17.3017V16.089H14.422V17.8985H14.0546L13.3199 16.7106V17.8985H12.9812Z" fill="white"/>
<path d="M15.0668 16.9871L14.7491 16.9299C14.7776 16.8163 14.8454 16.7164 14.9405 16.6477C15.0567 16.5816 15.1896 16.5505 15.3232 16.5581C15.4417 16.5515 15.5603 16.5697 15.6714 16.6115C15.7378 16.6416 15.7937 16.6907 15.8321 16.7526C15.8702 16.8515 15.8859 16.9576 15.8781 17.0633V17.4676C15.8764 17.553 15.8815 17.6384 15.8934 17.7231C15.9071 17.7839 15.9283 17.8428 15.9565 17.8985H15.6121C15.5988 17.8648 15.5874 17.8304 15.5776 17.7955L15.5662 17.7555C15.5108 17.8099 15.446 17.8539 15.3748 17.8851C15.3058 17.9143 15.2316 17.9292 15.1567 17.929C15.0397 17.9354 14.9249 17.8957 14.8371 17.8184C14.7988 17.7831 14.7685 17.7399 14.7483 17.6919C14.7282 17.6439 14.7187 17.5921 14.7204 17.54C14.7205 17.4728 14.739 17.4068 14.774 17.3494C14.8091 17.2909 14.8611 17.2443 14.9232 17.2159C15.0121 17.1779 15.1053 17.151 15.2007 17.1358C15.316 17.1178 15.4294 17.089 15.5394 17.05V17.0157C15.5413 16.9897 15.5379 16.9636 15.5294 16.939C15.5208 16.9145 15.5073 16.8919 15.4896 16.8727C15.4325 16.8375 15.365 16.8227 15.2983 16.8307C15.2472 16.8274 15.1963 16.84 15.1529 16.867C15.1128 16.8976 15.0829 16.9394 15.0668 16.9871ZM15.5336 17.2693C15.4896 17.2826 15.4188 17.3017 15.3212 17.3227C15.2547 17.3323 15.1902 17.3522 15.1299 17.3818C15.1091 17.3948 15.0919 17.4128 15.0799 17.4341C15.0679 17.4554 15.0614 17.4794 15.061 17.5038C15.0608 17.5275 15.0657 17.551 15.0752 17.5726C15.0848 17.5943 15.0989 17.6138 15.1165 17.6296C15.135 17.6474 15.1569 17.6613 15.1809 17.6705C15.2049 17.6797 15.2305 17.6839 15.2562 17.683C15.3212 17.6829 15.3844 17.6615 15.4361 17.622C15.4765 17.5947 15.5062 17.5543 15.5202 17.5076C15.5319 17.4518 15.5364 17.3948 15.5336 17.3379V17.2693Z" fill="white"/>
<path d="M17.3669 16.9757L17.0225 17.0367C17.0156 16.9775 16.9878 16.9228 16.944 16.8822C16.8986 16.8458 16.8415 16.8269 16.7833 16.8289C16.7438 16.8273 16.7045 16.8348 16.6684 16.8507C16.6323 16.8665 16.6002 16.8904 16.5747 16.9204C16.515 17.0082 16.4879 17.1141 16.4982 17.2197C16.4878 17.3353 16.5153 17.451 16.5766 17.5496C16.6018 17.5814 16.6341 17.6068 16.6711 17.6237C16.708 17.6406 16.7484 17.6486 16.789 17.6468C16.8486 17.6494 16.9069 17.6289 16.9517 17.5896C17.0016 17.5375 17.0332 17.4706 17.0416 17.399L17.3841 17.4581C17.3583 17.5955 17.286 17.72 17.1794 17.8108C17.0619 17.8959 16.9187 17.9383 16.7737 17.9309C16.6884 17.9348 16.6032 17.9207 16.5237 17.8895C16.4443 17.8582 16.3723 17.8107 16.3126 17.7498C16.1916 17.6107 16.1299 17.4302 16.1404 17.2464C16.1344 17.1549 16.1468 17.0632 16.1767 16.9764C16.2066 16.8897 16.2534 16.8097 16.3145 16.7411C16.3737 16.678 16.4459 16.6283 16.5261 16.5954C16.6064 16.5625 16.6928 16.5472 16.7794 16.5505C16.9148 16.5432 17.0489 16.5793 17.1621 16.6534C17.2654 16.7343 17.3376 16.8481 17.3669 16.9757Z" fill="white"/>
<path d="M17.6289 16.4093V16.089H17.9752V16.4093H17.6289ZM17.6289 17.8985V16.5866H17.9752V17.8985H17.6289Z" fill="white"/>
<path d="M18.2528 17.2254C18.2532 17.1081 18.2828 16.9928 18.3389 16.8898C18.3928 16.7845 18.4776 16.6981 18.5819 16.6419C18.6898 16.5852 18.8101 16.5564 18.9321 16.558C19.0225 16.5544 19.1127 16.5695 19.197 16.6023C19.2813 16.6351 19.3579 16.685 19.4219 16.7487C19.5456 16.8825 19.6143 17.0577 19.6143 17.2397C19.6143 17.4216 19.5456 17.5969 19.4219 17.7307C19.3586 17.7943 19.2827 17.8441 19.199 17.8769C19.1154 17.9097 19.0258 17.9248 18.9359 17.9213C18.8162 17.9219 18.6981 17.8937 18.5915 17.8393C18.4844 17.7888 18.3965 17.7052 18.3408 17.601C18.2808 17.4849 18.2506 17.3559 18.2528 17.2254ZM18.6087 17.2425C18.6017 17.3504 18.6351 17.4571 18.7025 17.5419C18.7306 17.5751 18.7658 17.6018 18.8055 17.6199C18.8452 17.638 18.8884 17.6472 18.9321 17.6468C18.9758 17.6476 19.0192 17.6386 19.0589 17.6205C19.0987 17.6023 19.1338 17.5754 19.1617 17.5419C19.2227 17.4539 19.2555 17.3495 19.2555 17.2425C19.2555 17.1356 19.2227 17.0311 19.1617 16.9432C19.1334 16.9102 19.0982 16.8838 19.0585 16.866C19.0188 16.8482 18.9756 16.8394 18.9321 16.8402C18.8886 16.8398 18.8456 16.8488 18.8059 16.8666C18.7663 16.8843 18.731 16.9105 18.7025 16.9432C18.6354 17.0281 18.602 17.1347 18.6087 17.2425Z" fill="white"/>
<path d="M21.0808 17.8985H20.7326V17.2292C20.7368 17.1372 20.7298 17.045 20.7116 16.9546C20.6986 16.9152 20.673 16.881 20.6388 16.8574C20.6024 16.8339 20.5597 16.8219 20.5164 16.8231C20.4582 16.8218 20.4012 16.8392 20.3537 16.8726C20.3073 16.904 20.2724 16.9495 20.2542 17.0023C20.2321 17.1018 20.2231 17.2037 20.2274 17.3055V17.8985H19.8811V16.5866H20.2045V16.7773C20.2535 16.7092 20.3182 16.6538 20.3931 16.6157C20.468 16.5775 20.5509 16.5578 20.635 16.558C20.7072 16.5571 20.7787 16.5707 20.8455 16.5981C20.9017 16.6208 20.9511 16.6576 20.989 16.7048C21.0218 16.7479 21.0452 16.7972 21.0579 16.8498C21.0729 16.927 21.0793 17.0056 21.077 17.0843L21.0808 17.8985Z" fill="white"/>
<path d="M21.6932 16.9871L21.3774 16.9299C21.4059 16.8163 21.4737 16.7164 21.5688 16.6477C21.685 16.5816 21.8179 16.5505 21.9515 16.5581C22.0694 16.5515 22.1874 16.5697 22.2978 16.6115C22.3649 16.6405 22.4212 16.6899 22.4586 16.7526C22.4984 16.8511 22.5148 16.9575 22.5064 17.0633V17.4676C22.5041 17.5531 22.5099 17.6386 22.5236 17.7231C22.5374 17.7836 22.558 17.8425 22.5848 17.8985H22.2404C22.2404 17.8756 22.2213 17.8413 22.2079 17.7955C22.2043 17.7819 22.1999 17.7685 22.1945 17.7555C22.1395 17.8103 22.0746 17.8543 22.0032 17.8851C21.9348 17.9143 21.8613 17.9292 21.7869 17.929C21.6694 17.9355 21.554 17.8958 21.4655 17.8184C21.4275 17.7828 21.3974 17.7396 21.3773 17.6916C21.3572 17.6437 21.3475 17.592 21.3487 17.54C21.3494 17.4729 21.3679 17.4071 21.4023 17.3494C21.4387 17.2913 21.4912 17.2449 21.5535 17.2159C21.6422 17.1777 21.7354 17.1508 21.8309 17.1358C21.9463 17.1178 22.0597 17.089 22.1696 17.05V17.0157C22.1716 16.9897 22.1681 16.9636 22.1596 16.9391C22.151 16.9145 22.1375 16.8919 22.1199 16.8727C22.0626 16.8378 21.9952 16.823 21.9285 16.8307C21.8774 16.8274 21.8266 16.84 21.7831 16.867C21.7417 16.8971 21.7104 16.939 21.6932 16.9871ZM22.162 17.2693C22.118 17.2826 22.0452 17.3017 21.9496 17.3227C21.883 17.3319 21.8184 17.3519 21.7582 17.3818C21.7375 17.3948 21.7203 17.4128 21.7083 17.4341C21.6962 17.4554 21.6897 17.4794 21.6893 17.5038C21.6892 17.5275 21.694 17.551 21.7036 17.5727C21.7131 17.5943 21.7272 17.6138 21.7448 17.6296C21.7633 17.6474 21.7852 17.6613 21.8092 17.6705C21.8332 17.6797 21.8588 17.6839 21.8845 17.683C21.9496 17.6829 22.0128 17.6615 22.0644 17.622C22.1042 17.594 22.1337 17.5539 22.1486 17.5076C22.1604 17.4525 22.1662 17.3962 22.1658 17.3398L22.162 17.2693Z" fill="white"/>
<path d="M22.845 17.8985V16.089H23.1913V17.8985H22.845Z" fill="white"/>
<path d="M24.2439 16.5866H24.5692V16.7773C24.6129 16.7109 24.672 16.656 24.7414 16.6171C24.8142 16.5757 24.8968 16.5546 24.9806 16.5561C25.0536 16.5565 25.1257 16.5728 25.1917 16.6037C25.2578 16.6347 25.3164 16.6796 25.3633 16.7353C25.4778 16.8751 25.5352 17.0529 25.524 17.233C25.536 17.4176 25.478 17.6 25.3614 17.744C25.3157 17.802 25.2577 17.8493 25.1915 17.8822C25.1254 17.9152 25.0527 17.9331 24.9787 17.9347C24.9124 17.9343 24.8471 17.9194 24.7873 17.8908C24.7152 17.8537 24.6504 17.804 24.596 17.744V18.4037H24.2477L24.2439 16.5866ZM24.5883 17.2216C24.579 17.3371 24.6101 17.4523 24.6763 17.5476C24.7018 17.5807 24.7345 17.6075 24.772 17.626C24.8095 17.6445 24.8507 17.6542 24.8926 17.6544C24.9316 17.6548 24.9702 17.6462 25.0054 17.6293C25.0405 17.6125 25.0713 17.5878 25.0954 17.5571C25.1571 17.4629 25.1854 17.3508 25.1758 17.2387C25.1847 17.13 25.1556 17.0215 25.0935 16.9317C25.0692 16.9001 25.0379 16.8745 25.0021 16.857C24.9662 16.8395 24.9268 16.8304 24.8868 16.8307C24.8459 16.8299 24.8053 16.8384 24.7682 16.8556C24.7311 16.8728 24.6983 16.8982 24.6725 16.9298C24.6106 17.0141 24.5808 17.1174 24.5883 17.2216Z" fill="white"/>
<path d="M26.0653 16.9871L25.7496 16.9299C25.7765 16.8156 25.8446 16.7152 25.941 16.6477C26.057 16.5813 26.19 16.5501 26.3236 16.5581C26.4422 16.5515 26.5608 16.5697 26.6719 16.6115C26.7387 16.641 26.7948 16.6903 26.8326 16.7526C26.8707 16.8515 26.8864 16.9576 26.8785 17.0633V17.4676C26.8768 17.553 26.882 17.6385 26.8939 17.7231C26.9076 17.7839 26.9288 17.8428 26.957 17.8985H26.6126C26.5993 17.8648 26.5878 17.8304 26.5781 17.7955L26.5667 17.7555C26.5116 17.8103 26.4467 17.8543 26.3753 17.8851C26.307 17.9143 26.2334 17.9292 26.1591 17.929C26.0415 17.9357 25.926 17.896 25.8376 17.8184C25.7992 17.7831 25.7689 17.7399 25.7488 17.6919C25.7287 17.6439 25.7191 17.5921 25.7209 17.54C25.721 17.4728 25.7395 17.4068 25.7745 17.3494C25.8106 17.2917 25.8624 17.2455 25.9237 17.2159C26.0127 17.1782 26.1058 17.1513 26.2012 17.1358C26.3166 17.118 26.43 17.0893 26.5399 17.05V17.0157C26.5421 16.9899 26.539 16.9639 26.5307 16.9393C26.5225 16.9147 26.5093 16.892 26.492 16.8727C26.4346 16.8382 26.3674 16.8234 26.3007 16.8307C26.2496 16.8276 26.1988 16.8403 26.1553 16.867C26.1138 16.8971 26.0825 16.9389 26.0653 16.9871ZM26.5322 17.2693C26.4882 17.2826 26.4174 17.3017 26.3198 17.3227C26.2532 17.3316 26.1885 17.3516 26.1285 17.3818C26.1077 17.3948 26.0905 17.4128 26.0785 17.4341C26.0665 17.4554 26.06 17.4794 26.0596 17.5038C26.059 17.5274 26.0635 17.5508 26.0728 17.5725C26.082 17.5942 26.0958 17.6137 26.1132 17.6296C26.1317 17.6474 26.1536 17.6613 26.1776 17.6705C26.2016 17.6797 26.2272 17.6839 26.2528 17.683C26.3217 17.685 26.3893 17.6635 26.4442 17.622C26.4835 17.5939 26.5124 17.5537 26.5265 17.5076C26.5381 17.4518 26.5426 17.3948 26.5399 17.3379L26.5322 17.2693Z" fill="white"/>
<path d="M27.5502 17.8985H27.2019V16.5866H27.5234V16.7773C27.5604 16.7097 27.6112 16.6506 27.6726 16.6038C27.7177 16.5751 27.7703 16.5605 27.8238 16.5619C27.9048 16.5623 27.9842 16.5847 28.0534 16.6267L27.9443 16.9279C27.8962 16.895 27.84 16.8758 27.7817 16.8726C27.7368 16.871 27.6928 16.8852 27.6573 16.9127C27.6157 16.9512 27.5875 17.002 27.5769 17.0576C27.5519 17.203 27.5422 17.3506 27.5482 17.4981L27.5502 17.8985Z" fill="white"/>
<path d="M28.465 16.9871L28.1473 16.9299C28.1758 16.8163 28.2436 16.7164 28.3387 16.6477C28.4549 16.5816 28.5878 16.5505 28.7214 16.5581C28.8399 16.5515 28.9585 16.5697 29.0696 16.6115C29.1359 16.641 29.1913 16.6903 29.2284 16.7526C29.2683 16.8511 29.2847 16.9575 29.2763 17.0633V17.4676C29.274 17.5531 29.2797 17.6386 29.2935 17.7231C29.3073 17.7839 29.3285 17.8428 29.3566 17.8985H29.0122C28.999 17.8648 28.9875 17.8304 28.9778 17.7955C28.9742 17.7819 28.9697 17.7685 28.9644 17.7555C28.9091 17.81 28.8443 17.854 28.773 17.8851C28.704 17.9143 28.6298 17.9292 28.5549 17.929C28.4379 17.9358 28.3229 17.896 28.2353 17.8184C28.1969 17.7831 28.1667 17.7399 28.1465 17.6919C28.1264 17.6439 28.1169 17.5921 28.1186 17.54C28.1187 17.4728 28.1372 17.4068 28.1722 17.3494C28.2073 17.2909 28.2593 17.2443 28.3214 17.2159C28.4103 17.1779 28.5035 17.151 28.5989 17.1358C28.7142 17.1178 28.8276 17.089 28.9376 17.05V17.0157C28.9395 16.9897 28.9361 16.9636 28.9275 16.939C28.919 16.9145 28.9055 16.8919 28.8878 16.8727C28.8307 16.8375 28.7632 16.8227 28.6965 16.8307C28.6454 16.8274 28.5945 16.84 28.5511 16.867C28.511 16.8976 28.4811 16.9394 28.465 16.9871ZM28.9318 17.2693C28.8878 17.2826 28.8151 17.3017 28.7194 17.3227C28.6529 17.3322 28.5884 17.3522 28.5281 17.3818C28.5073 17.3948 28.4901 17.4128 28.4781 17.4341C28.4661 17.4554 28.4596 17.4793 28.4592 17.5038C28.459 17.5275 28.4639 17.551 28.4734 17.5726C28.483 17.5943 28.4971 17.6138 28.5147 17.6296C28.5332 17.6474 28.5551 17.6613 28.5791 17.6705C28.6031 17.6797 28.6287 17.6839 28.6544 17.683C28.7194 17.6829 28.7826 17.6615 28.8342 17.622C28.8741 17.594 28.9036 17.5539 28.9184 17.5076C28.9301 17.4518 28.9346 17.3948 28.9318 17.3379V17.2693Z" fill="white"/>
<path d="M30.3208 17.8985V16.089H30.6671V17.8985H30.3208Z" fill="white"/>
<path d="M31.2852 16.987L30.9695 16.9298C30.9972 16.8159 31.0651 16.7157 31.1608 16.6476C31.2769 16.5812 31.4099 16.5501 31.5435 16.558C31.6621 16.5513 31.7807 16.5695 31.8918 16.6114C31.9589 16.6404 32.0151 16.6898 32.0525 16.7525C32.0906 16.8515 32.1062 16.9576 32.0984 17.0633V17.4675C32.0963 17.5524 32.102 17.6373 32.1156 17.7211C32.1286 17.7819 32.1492 17.8408 32.1769 17.8965H31.8325C31.8229 17.8736 31.8133 17.8393 31.798 17.7936C31.7827 17.7478 31.798 17.7612 31.7865 17.7535C31.7315 17.8084 31.6666 17.8523 31.5952 17.8832C31.5269 17.9123 31.4533 17.9272 31.379 17.927C31.2614 17.9337 31.1459 17.894 31.0575 17.8164C31.0195 17.7808 30.9895 17.7376 30.9694 17.6896C30.9493 17.6417 30.9395 17.59 30.9408 17.5381C30.9415 17.4709 30.96 17.4051 30.9944 17.3474C31.0305 17.2898 31.0822 17.2435 31.1436 17.2139C31.2325 17.1762 31.3257 17.1493 31.4211 17.1338C31.5371 17.116 31.6511 17.0873 31.7617 17.048V17.0137C31.7636 16.9878 31.7602 16.9617 31.7516 16.9371C31.7431 16.9125 31.7296 16.8899 31.7119 16.8707C31.6545 16.8361 31.5872 16.8213 31.5206 16.8288C31.4683 16.8219 31.4154 16.835 31.3725 16.8654C31.3295 16.8958 31.2997 16.9413 31.289 16.9927L31.2852 16.987ZM31.754 17.2692C31.7081 17.2826 31.6373 17.3016 31.5397 17.3226C31.4731 17.3319 31.4085 17.3518 31.3483 17.3817C31.3276 17.3947 31.3104 17.4127 31.2984 17.434C31.2863 17.4553 31.2798 17.4793 31.2795 17.5037C31.2789 17.5273 31.2834 17.5507 31.2926 17.5724C31.3019 17.5941 31.3156 17.6136 31.333 17.6296C31.3515 17.6474 31.3734 17.6613 31.3974 17.6704C31.4214 17.6796 31.447 17.6839 31.4727 17.683C31.5416 17.685 31.6091 17.6634 31.6641 17.622C31.7034 17.5939 31.7323 17.5537 31.7463 17.5076C31.759 17.4519 31.7641 17.3948 31.7617 17.3379L31.754 17.2692Z" fill="white"/>
<path d="M33.145 17.8985V16.089H33.7344C33.8803 16.0827 34.0265 16.0916 34.1706 16.1157C34.2752 16.1434 34.367 16.206 34.4309 16.293C34.5049 16.3954 34.542 16.5197 34.5361 16.6458C34.5389 16.7428 34.5178 16.839 34.4749 16.926C34.4387 16.997 34.3863 17.0584 34.3218 17.1053C34.2641 17.1453 34.1991 17.1738 34.1305 17.1892C34.0041 17.2108 33.8759 17.2198 33.7478 17.2159H33.5124V17.8985H33.145ZM33.5124 16.3864V16.9013H33.7133C33.8105 16.9068 33.908 16.8971 34.0022 16.8727C34.0489 16.8563 34.0891 16.8256 34.1171 16.785C34.1443 16.743 34.1583 16.6938 34.1572 16.6439C34.1595 16.5839 34.139 16.5254 34.0998 16.4799C34.0614 16.4371 34.0094 16.4088 33.9525 16.3998C33.8649 16.3889 33.7767 16.3845 33.6884 16.3864H33.5124Z" fill="white"/>
<path d="M35.1774 17.8985H34.8291V16.5866H35.1525V16.7773C35.1895 16.7097 35.2403 16.6506 35.3017 16.6038C35.3468 16.5751 35.3994 16.5605 35.4529 16.5619C35.5339 16.5623 35.6133 16.5847 35.6825 16.6267L35.5734 16.9279C35.5255 16.8947 35.4691 16.8755 35.4108 16.8726C35.3659 16.871 35.3219 16.8852 35.2864 16.9127C35.2448 16.9512 35.2166 17.002 35.2061 17.0576C35.181 17.203 35.1713 17.3506 35.1774 17.4981V17.8985Z" fill="white"/>
<path d="M35.7513 17.2254C35.7519 17.1085 35.7808 16.9934 35.8355 16.8899C35.89 16.785 35.9746 16.6987 36.0785 16.642C36.1865 16.5857 36.3068 16.5569 36.4287 16.5581C36.5191 16.5543 36.6094 16.5692 36.6937 16.6021C36.7781 16.6349 36.8546 16.6848 36.9185 16.7488C36.9819 16.813 37.0316 16.8894 37.0644 16.9733C37.0973 17.0572 37.1128 17.1468 37.1099 17.2369C37.1129 17.3278 37.0975 17.4184 37.0647 17.5032C37.0318 17.5881 36.9821 17.6654 36.9185 17.7307C36.8556 17.7943 36.78 17.8441 36.6966 17.8769C36.6133 17.9097 36.524 17.9249 36.4344 17.9214C36.3141 17.9216 36.1955 17.8935 36.0881 17.8394C35.9814 17.7883 35.8936 17.7049 35.8374 17.6011C35.7789 17.4845 35.7494 17.3557 35.7513 17.2254ZM36.1072 17.2426C36.0992 17.3506 36.1328 17.4576 36.201 17.542C36.2294 17.575 36.2646 17.6015 36.3042 17.6197C36.3438 17.6378 36.387 17.6472 36.4306 17.6472C36.4742 17.6472 36.5173 17.6378 36.557 17.6197C36.5966 17.6015 36.6318 17.575 36.6602 17.542C36.72 17.4535 36.752 17.3493 36.752 17.2426C36.752 17.1359 36.72 17.0317 36.6602 16.9432C36.6315 16.9108 36.5961 16.8848 36.5566 16.867C36.517 16.8492 36.474 16.84 36.4306 16.84C36.3872 16.84 36.3442 16.8492 36.3046 16.867C36.265 16.8848 36.2297 16.9108 36.201 16.9432C36.1297 17.0264 36.0927 17.1334 36.0976 17.2426H36.1072Z" fill="white"/>
<path d="M37.9727 16.5866V16.8631H37.7354V17.3932C37.731 17.4567 37.731 17.5204 37.7354 17.5839C37.7401 17.6016 37.751 17.6171 37.766 17.6277C37.7835 17.6396 37.8043 17.6456 37.8254 17.6449C37.8735 17.6412 37.9207 17.6296 37.965 17.6106L37.9937 17.8813C37.907 17.917 37.8139 17.9345 37.7201 17.9328C37.6623 17.9342 37.6048 17.9232 37.5517 17.9004C37.508 17.8844 37.4696 17.8567 37.4408 17.8203C37.4146 17.7794 37.3982 17.7331 37.3929 17.6849C37.383 17.604 37.3791 17.5224 37.3814 17.4409V16.8688H37.2207V16.5924H37.3814V16.333L37.7278 16.129V16.5924L37.9727 16.5866Z" fill="white"/>
<path d="M38.9793 17.4809L39.3275 17.54C39.2888 17.6563 39.2146 17.7576 39.1151 17.8298C39.0079 17.8995 38.8815 17.9342 38.7535 17.9289C38.6568 17.9362 38.5598 17.9196 38.471 17.8807C38.3823 17.8418 38.3045 17.7818 38.2445 17.7059C38.1545 17.5726 38.1089 17.4145 38.1144 17.254C38.1029 17.0678 38.1647 16.8845 38.2866 16.743C38.3403 16.6816 38.4069 16.6327 38.4816 16.5998C38.5563 16.5668 38.6374 16.5506 38.7191 16.5523C38.8057 16.5471 38.8924 16.5616 38.9726 16.5946C39.0528 16.6277 39.1244 16.6784 39.1821 16.743C39.3092 16.9133 39.3672 17.125 39.3448 17.336H38.4703C38.4676 17.424 38.4983 17.5098 38.5564 17.5762C38.5818 17.604 38.6129 17.626 38.6475 17.6408C38.6822 17.6556 38.7196 17.6628 38.7573 17.662C38.8069 17.663 38.8553 17.6476 38.8951 17.6181C38.9358 17.5814 38.965 17.5337 38.9793 17.4809ZM38.9984 17.13C39.0019 17.047 38.9747 16.9656 38.9219 16.9012C38.8981 16.8759 38.8693 16.8558 38.8374 16.842C38.8055 16.8282 38.7711 16.8211 38.7363 16.8211C38.7015 16.8211 38.6671 16.8282 38.6351 16.842C38.6032 16.8558 38.5745 16.8759 38.5507 16.9012C38.4982 16.9641 38.4721 17.0447 38.478 17.1262L38.9984 17.13Z" fill="white"/>
<path d="M40.776 16.9756L40.4335 17.0366C40.4266 16.9775 40.3988 16.9227 40.355 16.8822C40.3094 16.846 40.2525 16.8271 40.1943 16.8288C40.1548 16.8273 40.1155 16.8347 40.0794 16.8506C40.0433 16.8665 40.0112 16.8903 39.9857 16.9203C39.9252 17.0079 39.8974 17.1138 39.9073 17.2197C39.8964 17.3355 39.9247 17.4516 39.9876 17.5495C40.0128 17.5814 40.0451 17.6068 40.082 17.6237C40.119 17.6406 40.1594 17.6485 40.2 17.6468C40.2595 17.6489 40.3177 17.6285 40.3627 17.5896C40.4126 17.5374 40.4442 17.4705 40.4526 17.3989L40.7932 17.458C40.7688 17.5955 40.6971 17.7202 40.5904 17.8108C40.4729 17.8958 40.3297 17.9382 40.1847 17.9309C40.0994 17.9348 40.0142 17.9206 39.9347 17.8894C39.8553 17.8582 39.7833 17.8106 39.7236 17.7497C39.612 17.6051 39.5515 17.4278 39.5515 17.2454C39.5515 17.063 39.612 16.8857 39.7236 16.7411C39.7833 16.678 39.8558 16.6283 39.9363 16.5954C40.0168 16.5625 40.1035 16.5472 40.1905 16.5504C40.3257 16.5434 40.4598 16.5795 40.5731 16.6534C40.6757 16.7346 40.7472 16.8483 40.776 16.9756Z" fill="white"/>
<path d="M42.1883 16.9756L41.8458 17.0366C41.8383 16.9772 41.8098 16.9225 41.7654 16.8822C41.7208 16.8457 41.6643 16.8267 41.6066 16.8288C41.5672 16.8271 41.5278 16.8345 41.4917 16.8504C41.4555 16.8662 41.4235 16.8901 41.3981 16.9203C41.3375 17.0078 41.3098 17.1138 41.3196 17.2196C41.3088 17.3354 41.3371 17.4515 41.4 17.5495C41.4248 17.5812 41.4568 17.6065 41.4934 17.6234C41.53 17.6403 41.5701 17.6483 41.6105 17.6467C41.67 17.6493 41.7283 17.6288 41.7731 17.5895C41.8231 17.5374 41.8546 17.4705 41.863 17.3989L42.2055 17.458C42.1805 17.5957 42.1081 17.7204 42.0008 17.8107C41.8835 17.8961 41.7402 17.9385 41.5951 17.9308C41.5101 17.9347 41.4252 17.9205 41.3461 17.8893C41.2669 17.8581 41.1953 17.8105 41.1359 17.7497C41.0244 17.6051 40.9639 17.4278 40.9639 17.2454C40.9639 17.063 41.0244 16.8857 41.1359 16.741C41.1955 16.6777 41.268 16.6279 41.3485 16.595C41.4291 16.5621 41.5158 16.5469 41.6028 16.5504C41.7381 16.543 41.8723 16.5791 41.9855 16.6533C42.088 16.7346 42.1596 16.8483 42.1883 16.9756Z" fill="white"/>
<path d="M42.4485 16.4093V16.089H42.7967V16.4093H42.4485ZM42.4485 17.8985V16.5866H42.7967V17.8985H42.4485Z" fill="white"/>
<path d="M43.074 17.2254C43.0754 17.1083 43.1049 16.9932 43.1601 16.8898C43.2141 16.7846 43.2988 16.6981 43.4031 16.6419C43.5111 16.5857 43.6314 16.5569 43.7533 16.558C43.8438 16.5542 43.934 16.5692 44.0183 16.602C44.1027 16.6349 44.1792 16.6848 44.2431 16.7487C44.3669 16.8825 44.4355 17.0578 44.4355 17.2397C44.4355 17.4216 44.3669 17.5969 44.2431 17.7307C44.1799 17.7944 44.104 17.8443 44.0203 17.8771C43.9366 17.9099 43.847 17.925 43.7571 17.9214C43.6374 17.9219 43.5193 17.8938 43.4127 17.8394C43.306 17.7883 43.2182 17.7049 43.162 17.601C43.1028 17.4847 43.0727 17.3558 43.074 17.2254ZM43.4318 17.2426C43.4239 17.3506 43.4574 17.4576 43.5256 17.5419C43.554 17.5749 43.5892 17.6014 43.6288 17.6196C43.6685 17.6378 43.7116 17.6472 43.7552 17.6472C43.7988 17.6472 43.842 17.6378 43.8816 17.6196C43.9212 17.6014 43.9564 17.5749 43.9848 17.5419C44.0446 17.4535 44.0766 17.3492 44.0766 17.2426C44.0766 17.1359 44.0446 17.0317 43.9848 16.9432C43.9561 16.9107 43.9208 16.8847 43.8812 16.8669C43.8416 16.8491 43.7986 16.8399 43.7552 16.8399C43.7118 16.8399 43.6688 16.8491 43.6292 16.8669C43.5897 16.8847 43.5543 16.9107 43.5256 16.9432C43.4577 17.0277 43.4242 17.1346 43.4318 17.2426ZM43.5945 16.4169L43.7667 16.049H44.1494L43.8088 16.4169H43.5945Z" fill="white"/>
<path d="M45.904 17.8984H45.5558V17.2292C45.5608 17.1371 45.553 17.0447 45.5328 16.9546C45.5199 16.9152 45.4943 16.881 45.4601 16.8574C45.4243 16.8341 45.3823 16.8222 45.3396 16.8231C45.2814 16.8215 45.2243 16.8389 45.1769 16.8726C45.1295 16.9028 45.0942 16.9487 45.0774 17.0023C45.0553 17.1018 45.0463 17.2037 45.0506 17.3055V17.8984H44.7024V16.5866H45.0258V16.7773C45.0977 16.6799 45.2002 16.6092 45.317 16.5764C45.4338 16.5436 45.5582 16.5506 45.6706 16.5962C45.7277 16.6184 45.7778 16.6552 45.816 16.7029C45.8489 16.7456 45.8718 16.7952 45.883 16.8478C45.8988 16.925 45.9059 17.0037 45.904 17.0824V17.8984Z" fill="white"/>
<path d="M5.68896 19.6279H6.05826L6.37398 20.5584L6.68014 19.6279H7.04943L6.58638 20.8902L6.50219 21.1171C6.47996 21.1788 6.45041 21.2377 6.41416 21.2925C6.38888 21.3313 6.35641 21.365 6.31849 21.3917C6.27822 21.4188 6.23355 21.4388 6.18646 21.4508C6.12827 21.4652 6.06848 21.4723 6.00851 21.4717C5.94419 21.4711 5.88009 21.4641 5.81716 21.4508L5.78655 21.1781C5.83493 21.1889 5.8843 21.1947 5.93388 21.1953C5.96744 21.1978 6.00114 21.1926 6.03235 21.1801C6.06355 21.1675 6.09141 21.1479 6.11375 21.1228C6.1557 21.0698 6.18632 21.0088 6.20369 20.9436L5.68896 19.6279Z" fill="white"/>
<path d="M7.96973 19.1226H8.64135C8.7578 19.119 8.87423 19.1305 8.98769 19.1569C9.09196 19.1882 9.18626 19.2461 9.26131 19.3247C9.33946 19.4093 9.39879 19.5093 9.43543 19.6183C9.47778 19.7567 9.49782 19.9009 9.49476 20.0455C9.49671 20.1747 9.47797 20.3034 9.43926 20.4268C9.40126 20.5469 9.33576 20.6566 9.24792 20.7471C9.17379 20.8141 9.08552 20.8636 8.9896 20.892C8.88359 20.9203 8.77402 20.9332 8.66431 20.9302H7.97356L7.96973 19.1226ZM8.33711 19.4296V20.627H8.61073C8.68576 20.6295 8.76084 20.6237 8.83461 20.6098C8.88988 20.597 8.94113 20.5708 8.98386 20.5336C9.03052 20.4851 9.06352 20.4253 9.07953 20.3601C9.10733 20.2517 9.11957 20.14 9.11589 20.0283C9.11992 19.9197 9.10767 19.8111 9.07953 19.7061C9.06003 19.6396 9.0238 19.5792 8.97429 19.5306C8.92637 19.4876 8.86743 19.4585 8.80399 19.4467C8.70394 19.432 8.60276 19.4262 8.50167 19.4296H8.33711Z" fill="white"/>
<path d="M10.5644 20.5164L10.9107 20.5736C10.8734 20.6901 10.7997 20.7917 10.7002 20.8634C10.5929 20.9331 10.4665 20.9678 10.3386 20.9626C10.2419 20.9698 10.1449 20.9533 10.0561 20.9144C9.96736 20.8755 9.88957 20.8154 9.8296 20.7395C9.73956 20.6062 9.69401 20.4481 9.69947 20.2876C9.68859 20.1015 9.75029 19.9184 9.87169 19.7766C9.92539 19.7152 9.99195 19.6663 10.0667 19.6334C10.1414 19.6005 10.2224 19.5842 10.3041 19.5859C10.3907 19.5817 10.477 19.5966 10.5571 19.6296C10.6371 19.6625 10.7089 19.7127 10.7672 19.7766C10.8939 19.947 10.9519 20.1586 10.9298 20.3696H10.0554C10.053 20.4572 10.083 20.5427 10.1396 20.6098C10.1654 20.6375 10.1968 20.6595 10.2318 20.6743C10.2667 20.6891 10.3044 20.6963 10.3424 20.6956C10.3921 20.6975 10.4408 20.682 10.4802 20.6518C10.5204 20.6154 10.5496 20.5685 10.5644 20.5164ZM10.5835 20.1655C10.5873 20.0816 10.5593 19.9992 10.505 19.9348C10.4824 19.9098 10.4546 19.8898 10.4236 19.8763C10.3926 19.8629 10.359 19.8562 10.3252 19.8567C10.289 19.8557 10.2532 19.8627 10.2201 19.8772C10.187 19.8917 10.1575 19.9134 10.1338 19.9406C10.0812 20.0033 10.0551 20.084 10.0611 20.1655H10.5835Z" fill="white"/>
<path d="M11.0676 19.6278H11.259V19.5287C11.2549 19.4447 11.2666 19.3606 11.2934 19.2808C11.32 19.2231 11.366 19.1766 11.4235 19.1493C11.4983 19.1123 11.5812 19.0946 11.6646 19.0978C11.7633 19.0974 11.8614 19.1122 11.9555 19.1416L11.9076 19.3819C11.855 19.3692 11.8011 19.3628 11.7469 19.3628C11.7274 19.3611 11.7077 19.3633 11.6889 19.3691C11.6702 19.375 11.6529 19.3846 11.6378 19.3971C11.6121 19.4381 11.6007 19.4863 11.6053 19.5344V19.6278H11.8655V19.8986H11.6053V20.9397H11.259V19.8986H11.0676V19.6278Z" fill="white"/>
<path d="M12.8203 20.5164L13.1685 20.5736C13.1308 20.6904 13.0563 20.792 12.9562 20.8634C12.85 20.9324 12.725 20.967 12.5983 20.9626C12.5017 20.9697 12.4047 20.953 12.316 20.9141C12.2273 20.8752 12.1495 20.8153 12.0894 20.7395C11.9993 20.6063 11.9538 20.4481 11.9592 20.2876C11.9484 20.1015 12.0101 19.9184 12.1315 19.7766C12.1852 19.7152 12.2517 19.6663 12.3264 19.6334C12.4011 19.6005 12.4822 19.5842 12.5639 19.5859C12.6507 19.5817 12.7374 19.5966 12.8177 19.6295C12.8981 19.6625 12.9702 19.7127 13.0289 19.7766C13.154 19.9477 13.2113 20.1589 13.1896 20.3696H12.3113C12.3095 20.4575 12.3401 20.543 12.3974 20.6098C12.4217 20.6364 12.4513 20.6577 12.4842 20.6725C12.5171 20.6872 12.5527 20.6951 12.5888 20.6956C12.6384 20.6975 12.6872 20.682 12.7265 20.6518C12.7703 20.6167 12.8029 20.5696 12.8203 20.5164ZM12.8394 20.1656C12.8428 20.0819 12.8156 20 12.7629 19.9348C12.7392 19.9093 12.7105 19.8889 12.6786 19.875C12.6467 19.861 12.6122 19.8539 12.5773 19.8539C12.5424 19.8539 12.5079 19.861 12.476 19.875C12.444 19.8889 12.4153 19.9093 12.3917 19.9348C12.339 19.9976 12.3129 20.0783 12.319 20.1598L12.8394 20.1656Z" fill="white"/>
<path d="M14.6668 20.9339H14.3205V20.2628C14.3247 20.1707 14.3177 20.0785 14.2994 19.9882C14.2865 19.9488 14.2609 19.9146 14.2267 19.891C14.1903 19.8674 14.1476 19.8555 14.1043 19.8566C14.0463 19.8564 13.9896 19.8737 13.9416 19.9062C13.8942 19.9372 13.859 19.9837 13.8421 20.0378C13.8199 20.1366 13.8108 20.2379 13.8153 20.339V20.9339H13.469V19.6278H13.7924V19.8185C13.8412 19.749 13.9062 19.6923 13.9819 19.6534C14.0575 19.6146 14.1416 19.5947 14.2267 19.5954C14.2991 19.5942 14.3709 19.6085 14.4372 19.6374C14.4933 19.6594 14.5427 19.6955 14.5807 19.7422C14.6135 19.786 14.6369 19.8359 14.6496 19.889C14.6648 19.9656 14.6712 20.0437 14.6687 20.1217L14.6668 20.9339Z" fill="white"/>
<path d="M14.8945 20.5584L15.2428 20.505C15.2535 20.5655 15.2853 20.6202 15.3327 20.6595C15.3886 20.6984 15.456 20.7172 15.5241 20.7129C15.5952 20.7176 15.6661 20.7003 15.7269 20.6633C15.742 20.6529 15.7543 20.6389 15.7626 20.6226C15.771 20.6063 15.7751 20.5882 15.7747 20.5699C15.7751 20.5459 15.7662 20.5226 15.7498 20.505C15.715 20.4811 15.675 20.4654 15.6331 20.4593C15.4475 20.4305 15.2674 20.3732 15.0993 20.2896C15.0496 20.2581 15.009 20.2143 14.9815 20.1625C14.954 20.1107 14.9405 20.0526 14.9424 19.994C14.9421 19.9393 14.9542 19.8851 14.9777 19.8356C15.0012 19.7861 15.0356 19.7425 15.0782 19.708C15.1994 19.6204 15.3481 19.5791 15.4973 19.5917C15.6363 19.5818 15.7752 19.6123 15.8972 19.6794C15.991 19.7401 16.0591 19.8331 16.0885 19.9406L15.7594 19.9997C15.7473 19.9522 15.7189 19.9103 15.679 19.8815C15.6282 19.8518 15.5695 19.8378 15.5107 19.8415C15.4446 19.8375 15.3787 19.8506 15.3193 19.8796C15.3072 19.887 15.2971 19.8974 15.2901 19.9097C15.2831 19.9221 15.2793 19.936 15.2791 19.9502C15.2793 19.9627 15.2825 19.9749 15.2885 19.9859C15.2945 19.9969 15.3031 20.0062 15.3136 20.0131C15.4174 20.0591 15.5267 20.0918 15.6389 20.1103C15.7762 20.1334 15.9068 20.1861 16.0216 20.2648C16.0581 20.2971 16.0869 20.3371 16.1058 20.382C16.1247 20.4269 16.1332 20.4755 16.1306 20.5241C16.1303 20.5836 16.1165 20.6422 16.0904 20.6957C16.0642 20.7492 16.0263 20.7961 15.9795 20.833C15.8508 20.9286 15.6918 20.9746 15.5317 20.9626C15.3823 20.9706 15.234 20.9327 15.1069 20.854C15.0014 20.7855 14.9256 20.68 14.8945 20.5584Z" fill="white"/>
<path d="M16.6915 20.0207L16.3757 19.9635C16.4037 19.8502 16.4716 19.7507 16.5671 19.6832C16.6828 19.6156 16.8159 19.5837 16.9498 19.5916C17.0685 19.5856 17.1871 19.6044 17.298 19.6469C17.3646 19.6759 17.4207 19.7245 17.4588 19.7861C17.4966 19.8851 17.5123 19.9912 17.5047 20.0969V20.5031C17.5024 20.5879 17.5082 20.6729 17.5219 20.7567C17.534 20.8183 17.5546 20.878 17.5831 20.934H17.2387C17.2255 20.9003 17.214 20.8659 17.2043 20.831L17.1928 20.7891C17.138 20.8447 17.0731 20.8893 17.0015 20.9206C16.9324 20.9493 16.8581 20.9636 16.7833 20.9626C16.6667 20.9687 16.5523 20.9298 16.4638 20.8539C16.4257 20.8183 16.3956 20.7752 16.3755 20.7272C16.3554 20.6792 16.3457 20.6275 16.3471 20.5755C16.346 20.5051 16.3646 20.4358 16.4006 20.3753C16.4368 20.3178 16.4886 20.2715 16.5499 20.2418C16.6388 20.2041 16.7319 20.1772 16.8273 20.1617C16.9427 20.1437 17.056 20.115 17.166 20.0759V20.0416C17.168 20.0157 17.1645 19.9896 17.156 19.965C17.1474 19.9404 17.1339 19.9178 17.1163 19.8986C17.0587 19.8644 16.9916 19.8497 16.9249 19.8567C16.8738 19.8533 16.823 19.866 16.7795 19.8929C16.7375 19.9253 16.7067 19.97 16.6915 20.0207ZM17.1584 20.3029C17.0886 20.3244 17.0177 20.3422 16.946 20.3562C16.8793 20.3662 16.8147 20.3868 16.7546 20.4173C16.7342 20.4305 16.7174 20.4486 16.7057 20.4699C16.694 20.4912 16.6878 20.515 16.6876 20.5393C16.6874 20.5628 16.6921 20.5861 16.7013 20.6078C16.7105 20.6294 16.7241 20.6489 16.7412 20.6651C16.7597 20.6829 16.7816 20.6968 16.8056 20.706C16.8296 20.7152 16.8552 20.7194 16.8809 20.7185C16.95 20.7198 17.0175 20.6976 17.0723 20.6556C17.112 20.6279 17.141 20.5876 17.1545 20.5412C17.1663 20.4854 17.1708 20.4284 17.1679 20.3715L17.1584 20.3029Z" fill="white"/>
<path d="M19.7549 20.9339H19.4315V20.7433C19.3824 20.8134 19.3167 20.8704 19.2401 20.9092C19.1717 20.9453 19.0956 20.9643 19.0182 20.9645C18.945 20.9638 18.8728 20.9473 18.8068 20.916C18.7407 20.8847 18.6822 20.8394 18.6355 20.7833C18.5309 20.6343 18.4749 20.4569 18.4749 20.2752C18.4749 20.0934 18.5309 19.916 18.6355 19.767C18.6849 19.7106 18.7462 19.6658 18.815 19.6358C18.8838 19.6058 18.9584 19.5914 19.0335 19.5935C19.1076 19.5944 19.1805 19.612 19.2468 19.645C19.3131 19.678 19.371 19.7256 19.4162 19.7842V19.1321H19.7644L19.7549 20.9339ZM18.8268 20.2494C18.8192 20.3537 18.839 20.4582 18.8842 20.5526C18.9069 20.5949 18.9409 20.6302 18.9824 20.6544C19.024 20.6787 19.0714 20.6909 19.1196 20.6899C19.1594 20.6899 19.1987 20.6806 19.2342 20.6627C19.2698 20.6448 19.3007 20.6188 19.3243 20.5869C19.3867 20.4979 19.4164 20.3901 19.4085 20.2818C19.4188 20.167 19.3898 20.0521 19.3262 19.9558C19.3015 19.9244 19.2698 19.8991 19.2336 19.8819C19.1974 19.8647 19.1577 19.856 19.1177 19.8566C19.0776 19.8559 19.0378 19.8645 19.0016 19.8817C18.9654 19.8989 18.9337 19.9243 18.9091 19.9558C18.8476 20.0409 18.8185 20.1449 18.8268 20.2494Z" fill="white"/>
<path d="M20.859 20.5165L21.2072 20.5737C21.1699 20.6902 21.0962 20.7918 20.9967 20.8635C20.8892 20.9327 20.763 20.9674 20.6351 20.9627C20.5384 20.9701 20.4413 20.9536 20.3525 20.9147C20.2637 20.8758 20.186 20.8156 20.1261 20.7396C20.035 20.6069 19.9893 20.4483 19.996 20.2877C19.9846 20.1018 20.0456 19.9188 20.1663 19.7767C20.2202 19.7155 20.2867 19.6668 20.3614 19.6339C20.4361 19.6009 20.5171 19.5846 20.5987 19.586C20.6856 19.5815 20.7723 19.5963 20.8527 19.6292C20.9331 19.6622 21.0052 19.7126 21.0637 19.7767C21.1887 19.9479 21.2466 20.1588 21.2263 20.3697H20.3519C20.3486 20.4575 20.3787 20.5432 20.4361 20.6099C20.4604 20.6365 20.4899 20.6578 20.5228 20.6726C20.5558 20.6873 20.5913 20.6952 20.6274 20.6957C20.6772 20.6983 20.7262 20.6827 20.7652 20.6519C20.8102 20.6179 20.843 20.5704 20.859 20.5165ZM20.88 20.1656C20.8838 20.0817 20.8558 19.9993 20.8016 19.9349C20.7779 19.9094 20.7492 19.889 20.7173 19.8751C20.6853 19.8611 20.6508 19.8539 20.616 19.8539C20.5811 19.8539 20.5466 19.8611 20.5146 19.8751C20.4827 19.889 20.454 19.9094 20.4303 19.9349C20.3784 19.998 20.3524 20.0785 20.3576 20.1599L20.88 20.1656Z" fill="white"/>
<path d="M22.2136 20.934V19.1226H22.5619V20.934H22.2136Z" fill="white"/>
<path d="M22.8373 20.2589C22.838 20.1417 22.8675 20.0265 22.9234 19.9234C22.9781 19.8191 23.0627 19.7335 23.1664 19.6774C23.2738 19.6194 23.3944 19.5898 23.5166 19.5916C23.607 19.5885 23.697 19.6037 23.7813 19.6365C23.8655 19.6693 23.9421 19.7189 24.0064 19.7823C24.0699 19.8468 24.1195 19.9235 24.1524 20.0078C24.1853 20.092 24.2007 20.182 24.1978 20.2723C24.2006 20.3632 24.1851 20.4537 24.1522 20.5385C24.1194 20.6233 24.0698 20.7007 24.0064 20.7661C23.9429 20.8295 23.8669 20.8791 23.7833 20.9119C23.6997 20.9447 23.6102 20.96 23.5204 20.9568C23.4009 20.9573 23.2829 20.9298 23.176 20.8767C23.0695 20.8244 22.9819 20.7405 22.9253 20.6365C22.865 20.5198 22.8348 20.3901 22.8373 20.2589ZM23.1951 20.278C23.1881 20.3856 23.2208 20.4921 23.287 20.5774C23.3159 20.6099 23.3514 20.6359 23.3911 20.6537C23.4309 20.6715 23.4739 20.6808 23.5175 20.6808C23.5611 20.6808 23.6042 20.6715 23.644 20.6537C23.6837 20.6359 23.7192 20.6099 23.7481 20.5774C23.8149 20.4909 23.8476 20.383 23.84 20.2742C23.8469 20.1678 23.8142 20.0625 23.7481 19.9787C23.7194 19.9459 23.6839 19.9196 23.6442 19.9016C23.6044 19.8836 23.5612 19.8743 23.5175 19.8743C23.4739 19.8743 23.4307 19.8836 23.3909 19.9016C23.3511 19.9196 23.3157 19.9459 23.287 19.9787C23.2203 20.0637 23.1876 20.1703 23.1951 20.278Z" fill="white"/>
<path d="M24.3472 20.5584L24.6954 20.505C24.7061 20.5659 24.7388 20.6208 24.7873 20.6594C24.843 20.6986 24.9106 20.7175 24.9786 20.7128C25.0497 20.7171 25.1204 20.6998 25.1814 20.6632C25.1962 20.6526 25.2081 20.6385 25.2161 20.6222C25.2241 20.6059 25.228 20.5879 25.2274 20.5698C25.2277 20.5458 25.2188 20.5226 25.2025 20.505C25.168 20.4803 25.1279 20.4646 25.0858 20.4592C24.9001 20.4304 24.72 20.3732 24.5519 20.2895C24.5025 20.2578 24.4621 20.2139 24.4346 20.1622C24.4072 20.1104 24.3935 20.0525 24.395 19.994C24.3947 19.9392 24.4068 19.8851 24.4303 19.8356C24.4538 19.7861 24.4882 19.7425 24.5309 19.708C24.6521 19.6205 24.8008 19.5792 24.9499 19.5916C25.0889 19.5814 25.2279 19.6119 25.3498 19.6794C25.4441 19.7395 25.5124 19.8327 25.5412 19.9406L25.212 19.9997C25.2007 19.9518 25.1721 19.9097 25.1317 19.8815C25.0815 19.8517 25.0235 19.8377 24.9652 19.8414C24.8992 19.8374 24.8333 19.8506 24.7739 19.8796C24.7617 19.887 24.7517 19.8973 24.7446 19.9097C24.7376 19.922 24.7338 19.9359 24.7337 19.9501C24.7338 19.9626 24.737 19.9749 24.743 19.9859C24.749 19.9968 24.7576 20.0062 24.7681 20.013C24.872 20.0591 24.9813 20.0917 25.0934 20.1103C25.2307 20.1334 25.3613 20.1861 25.4761 20.2647C25.5127 20.297 25.5414 20.3371 25.5603 20.382C25.5792 20.4269 25.5877 20.4754 25.5852 20.524C25.5853 20.5836 25.5717 20.6424 25.5455 20.6959C25.5193 20.7495 25.4812 20.7963 25.434 20.8329C25.3062 20.9288 25.1477 20.975 24.9882 20.9626C24.8382 20.9704 24.6893 20.9325 24.5615 20.8539C24.4552 20.7858 24.3787 20.6803 24.3472 20.5584Z" fill="white"/>
<path d="M26.5838 19.1226H26.9493V20.1026C26.946 20.2039 26.9505 20.3052 26.9627 20.4058C26.9768 20.4774 27.017 20.5412 27.0756 20.585C27.1467 20.634 27.2324 20.6575 27.3186 20.6518C27.4018 20.6569 27.4845 20.6348 27.554 20.5888C27.6043 20.5504 27.6384 20.4947 27.6496 20.4325C27.6628 20.3307 27.6679 20.2281 27.6649 20.1255V19.1226H28.0323V20.0759C28.0374 20.2304 28.0271 20.3849 28.0017 20.5373C27.9856 20.6211 27.948 20.6993 27.8926 20.7643C27.8339 20.8294 27.7604 20.8797 27.6783 20.9111C27.5674 20.9507 27.4497 20.9682 27.332 20.9626C27.1973 20.9693 27.0627 20.9492 26.9359 20.9034C26.8534 20.8693 26.7806 20.8156 26.7235 20.7471C26.6747 20.6888 26.6394 20.6204 26.6202 20.5469C26.5925 20.3953 26.5803 20.2414 26.5838 20.0874V19.1226Z" fill="white"/>
<path d="M28.2888 20.5583L28.6371 20.5049C28.6478 20.5654 28.6796 20.6201 28.727 20.6594C28.7829 20.6983 28.8503 20.7171 28.9183 20.7127C28.99 20.7172 29.0614 20.6999 29.1231 20.6632C29.1376 20.6523 29.1493 20.6382 29.1573 20.622C29.1653 20.6057 29.1693 20.5878 29.169 20.5697C29.1694 20.5458 29.1605 20.5225 29.1441 20.5049C29.1092 20.481 29.0693 20.4653 29.0274 20.4591C28.8417 20.4304 28.6617 20.3731 28.4936 20.2895C28.4439 20.258 28.4033 20.2142 28.3758 20.1624C28.3483 20.1106 28.3348 20.0525 28.3367 19.9939C28.3364 19.9391 28.3485 19.885 28.372 19.8355C28.3955 19.786 28.4298 19.7424 28.4725 19.7079C28.5929 19.6203 28.7411 19.5789 28.8896 19.5916C29.0293 19.5817 29.1688 19.6121 29.2915 19.6793C29.3853 19.74 29.4534 19.833 29.4828 19.9405L29.1537 19.9996C29.1409 19.9524 29.1126 19.9108 29.0733 19.8814C29.0224 19.8517 28.9638 19.8377 28.9049 19.8414C28.8389 19.8374 28.773 19.8505 28.7136 19.8795C28.7015 19.8869 28.6914 19.8973 28.6844 19.9096C28.6774 19.922 28.6736 19.9359 28.6734 19.9501C28.6736 19.9626 28.6768 19.9748 28.6828 19.9858C28.6888 19.9968 28.6974 20.0061 28.7079 20.013C28.8117 20.059 28.921 20.0917 29.0332 20.1102C29.1705 20.1333 29.3011 20.186 29.4158 20.2647C29.4524 20.297 29.4812 20.337 29.5001 20.3819C29.5189 20.4268 29.5274 20.4754 29.5249 20.524C29.5246 20.5835 29.5108 20.6421 29.4846 20.6956C29.4585 20.7491 29.4206 20.796 29.3737 20.8329C29.2451 20.9285 29.0861 20.9745 28.926 20.9625C28.7766 20.9705 28.6283 20.9325 28.5012 20.8538C28.3957 20.7854 28.3199 20.6799 28.2888 20.5583Z" fill="white"/>
<path d="M30.696 20.934V20.7434C30.6465 20.8123 30.5809 20.8683 30.5049 20.9065C30.4289 20.9447 30.3448 20.964 30.2597 20.9626C30.1764 20.9638 30.0942 20.9442 30.0205 20.9054C29.9525 20.8694 29.8986 20.8116 29.8674 20.7415C29.8328 20.6489 29.8171 20.5503 29.8215 20.4516V19.6279H30.1698V20.2305C30.1641 20.3433 30.1705 20.4564 30.1889 20.5679C30.1995 20.608 30.2239 20.6431 30.2578 20.6671C30.2962 20.6926 30.3418 20.7053 30.3879 20.7033C30.4451 20.7042 30.5012 20.6876 30.5486 20.6557C30.5929 20.6263 30.6264 20.5835 30.6443 20.5336C30.6683 20.4177 30.6773 20.2991 30.6711 20.1809V19.6279H31.0193V20.9398L30.696 20.934Z" fill="white"/>
<path d="M31.6392 20.0207L31.3235 19.9635C31.351 19.85 31.419 19.7503 31.5149 19.6832C31.6303 19.6152 31.7637 19.5833 31.8975 19.5916C32.0162 19.5856 32.1349 19.6044 32.2458 19.6469C32.3127 19.6754 32.369 19.7241 32.4065 19.7861C32.4444 19.8851 32.4601 19.9912 32.4525 20.0969V20.5031C32.4507 20.5879 32.4559 20.6727 32.4678 20.7567C32.4814 20.8181 32.5026 20.8777 32.5309 20.934H32.1865C32.1732 20.9003 32.1617 20.8659 32.152 20.831L32.1406 20.7891C32.0858 20.8447 32.0208 20.8893 31.9492 20.9206C31.8808 20.9491 31.8072 20.9634 31.733 20.9626C31.6158 20.9692 31.5005 20.9302 31.4115 20.8539C31.3734 20.8183 31.3433 20.7752 31.3232 20.7272C31.3031 20.6792 31.2934 20.6275 31.2948 20.5755C31.2938 20.5051 31.3123 20.4358 31.3484 20.3753C31.3846 20.3178 31.4363 20.2715 31.4976 20.2418C31.5866 20.2041 31.6797 20.1773 31.7751 20.1618C31.8904 20.1437 32.0038 20.115 32.1138 20.076V20.0416C32.1167 20.0156 32.1138 19.9892 32.1052 19.9645C32.0966 19.9398 32.0825 19.9173 32.064 19.8986C32.0065 19.8644 31.9393 19.8497 31.8727 19.8567C31.8216 19.8536 31.7708 19.8662 31.7272 19.8929C31.6852 19.9253 31.6545 19.97 31.6392 20.0207ZM32.1061 20.3029C32.0363 20.3244 31.9654 20.3422 31.8937 20.3562C31.8271 20.3662 31.7624 20.3868 31.7024 20.4173C31.6817 20.4304 31.6646 20.4484 31.6526 20.4697C31.6406 20.491 31.634 20.5149 31.6335 20.5393C31.6336 20.5629 31.6387 20.5863 31.6482 20.6079C31.6577 20.6296 31.6716 20.649 31.689 20.6651C31.7075 20.6829 31.7294 20.6968 31.7534 20.706C31.7774 20.7152 31.803 20.7194 31.8287 20.7185C31.8978 20.7198 31.9653 20.6976 32.02 20.6556C32.0597 20.6279 32.0888 20.5876 32.1023 20.5412C32.1141 20.4854 32.1186 20.4284 32.1157 20.3715L32.1061 20.3029Z" fill="white"/>
<path d="M33.1241 20.934H32.7759V19.6279H33.0993V19.8185C33.1366 19.7506 33.1873 19.6909 33.2485 19.6431C33.2936 19.6144 33.3462 19.5998 33.3997 19.6012C33.4807 19.6016 33.5601 19.624 33.6293 19.666L33.5202 19.9692C33.4722 19.9343 33.415 19.9144 33.3556 19.912C33.3114 19.9108 33.2681 19.9249 33.2332 19.952C33.192 19.9908 33.1639 20.0415 33.1528 20.0969C33.1277 20.2423 33.1181 20.39 33.1241 20.5374V20.934Z" fill="white"/>
<path d="M33.7786 19.4372V19.1168H34.1249V19.4372H33.7786ZM33.7786 20.9282V19.6278H34.1249V20.9397L33.7786 20.9282Z" fill="white"/>
<path d="M34.412 20.259C34.4127 20.1418 34.4422 20.0266 34.4981 19.9234C34.5518 19.8185 34.6366 19.7326 34.7411 19.6775C34.8479 19.6195 34.9678 19.5899 35.0894 19.5917C35.1801 19.5883 35.2705 19.6034 35.3551 19.6362C35.4397 19.669 35.5166 19.7187 35.5811 19.7823C35.7038 19.917 35.7717 20.0924 35.7717 20.2743C35.7717 20.4561 35.7038 20.6315 35.5811 20.7662C35.5176 20.8295 35.4417 20.8791 35.358 20.9119C35.2744 20.9448 35.1849 20.96 35.0951 20.9569C34.975 20.9569 34.8566 20.9295 34.7488 20.8768C34.6425 20.8249 34.5554 20.7408 34.5 20.6365C34.4397 20.5199 34.4095 20.3902 34.412 20.259ZM34.7679 20.2781C34.7614 20.3859 34.7948 20.4924 34.8617 20.5774C34.8904 20.6099 34.9257 20.6359 34.9653 20.6537C35.0049 20.6715 35.0479 20.6807 35.0913 20.6807C35.1347 20.6807 35.1777 20.6715 35.2173 20.6537C35.2568 20.6359 35.2922 20.6099 35.3209 20.5774C35.3877 20.491 35.4204 20.3831 35.4127 20.2743C35.4197 20.1678 35.387 20.0626 35.3209 19.9787C35.2925 19.9457 35.2573 19.9192 35.2177 19.901C35.178 19.8828 35.1349 19.8734 35.0913 19.8734C35.0477 19.8734 35.0045 19.8828 34.9649 19.901C34.9253 19.9192 34.8901 19.9457 34.8617 19.9787C34.7909 20.0621 34.754 20.1689 34.7583 20.2781H34.7679Z" fill="white"/>
<path d="M35.9121 20.5584L36.2603 20.505C36.271 20.5654 36.3029 20.6202 36.3503 20.6594C36.4061 20.6983 36.4736 20.7171 36.5416 20.7128C36.6128 20.7176 36.6836 20.7003 36.7445 20.6632C36.7592 20.6526 36.7711 20.6385 36.7791 20.6222C36.7871 20.6059 36.791 20.5879 36.7904 20.5698C36.791 20.5579 36.7891 20.5459 36.7848 20.5348C36.7805 20.5236 36.774 20.5135 36.7655 20.505C36.731 20.4803 36.6909 20.4646 36.6488 20.4592C36.4638 20.4302 36.2844 20.373 36.1168 20.2895C36.0672 20.2581 36.0266 20.2143 35.9991 20.1625C35.9716 20.1106 35.9581 20.0526 35.9599 19.994C35.9597 19.9394 35.9716 19.8855 35.9948 19.836C36.0179 19.7866 36.0518 19.7428 36.0939 19.708C36.2151 19.6205 36.3638 19.5792 36.5129 19.5916C36.6525 19.5817 36.7921 19.6122 36.9148 19.6794C37.005 19.7417 37.0695 19.8345 37.0965 19.9406L36.7674 19.9997C36.7546 19.9524 36.7263 19.9108 36.6871 19.8815C36.6361 19.8519 36.5775 19.838 36.5187 19.8414C36.4527 19.8374 36.3867 19.8506 36.3273 19.8796C36.3152 19.887 36.3051 19.8973 36.2981 19.9097C36.2911 19.922 36.2873 19.9359 36.2871 19.9501C36.2873 19.9626 36.2905 19.9749 36.2965 19.9859C36.3025 19.9968 36.3111 20.0062 36.3216 20.013C36.4253 20.0594 36.5346 20.0921 36.6469 20.1103C36.7842 20.1334 36.9148 20.1861 37.0296 20.2647C37.0661 20.297 37.0949 20.3371 37.1138 20.382C37.1327 20.4269 37.1412 20.4754 37.1386 20.524C37.1383 20.5835 37.1245 20.6422 37.0984 20.6956C37.0722 20.7491 37.0343 20.796 36.9875 20.8329C36.8588 20.9285 36.6998 20.9745 36.5397 20.9626C36.3903 20.9708 36.2419 20.9328 36.1149 20.8539C36.0125 20.7843 35.9401 20.6788 35.9121 20.5584Z" fill="white"/>
<path d="M39.3563 20.934H39.0329V20.7433C38.9839 20.8135 38.9181 20.8705 38.8416 20.9092C38.7736 20.9444 38.6981 20.9627 38.6215 20.9626C38.5484 20.9617 38.4764 20.945 38.4103 20.9138C38.3443 20.8825 38.2858 20.8374 38.2389 20.7815C38.1242 20.6373 38.067 20.456 38.0781 20.2724C38.0647 20.0897 38.1207 19.9087 38.235 19.7652C38.2845 19.7089 38.3458 19.6642 38.4146 19.6342C38.4834 19.6042 38.558 19.5897 38.633 19.5917C38.7071 19.5925 38.7801 19.6101 38.8464 19.6432C38.9127 19.6762 38.9706 19.7238 39.0157 19.7823V19.1302H39.364L39.3563 20.934ZM38.4302 20.2495C38.4226 20.3538 38.4424 20.4583 38.4876 20.5527C38.5107 20.5946 38.5448 20.6295 38.5863 20.6537C38.6277 20.6778 38.675 20.6904 38.723 20.69C38.7628 20.69 38.8021 20.6806 38.8376 20.6628C38.8732 20.6449 38.904 20.6189 38.9277 20.587C38.9908 20.4983 39.0206 20.3903 39.0119 20.2819C39.0217 20.1674 38.9935 20.0528 38.9315 19.9559C38.9064 19.9244 38.8743 19.8991 38.8378 19.8819C38.8014 19.8647 38.7614 19.8561 38.721 19.8567C38.6812 19.8561 38.6418 19.8648 38.606 19.882C38.5701 19.8992 38.5387 19.9245 38.5144 19.9559C38.4515 20.0403 38.4215 20.1447 38.4302 20.2495Z" fill="white"/>
<path d="M40.4623 20.5164L40.8086 20.5736C40.7714 20.6901 40.6976 20.7917 40.5982 20.8634C40.4909 20.9331 40.3645 20.9678 40.2365 20.9626C40.1398 20.9698 40.0428 20.9533 39.9541 20.9144C39.8653 20.8755 39.7875 20.8154 39.7275 20.7395C39.6375 20.6062 39.592 20.4481 39.5974 20.2876C39.5865 20.1015 39.6482 19.9184 39.7696 19.7766C39.8233 19.7152 39.8899 19.6663 39.9646 19.6334C40.0393 19.6005 40.1204 19.5842 40.2021 19.5859C40.2886 19.5817 40.375 19.5966 40.455 19.6296C40.5351 19.6625 40.6068 19.7127 40.6651 19.7766C40.791 19.9474 40.8489 20.1587 40.8278 20.3696H39.961C39.9574 20.4577 39.9883 20.5438 40.0471 20.6098C40.0725 20.6376 40.1036 20.6596 40.1382 20.6744C40.1729 20.6892 40.2103 20.6964 40.248 20.6956C40.2977 20.6975 40.3464 20.682 40.3858 20.6518C40.4232 20.6145 40.4497 20.5676 40.4623 20.5164ZM40.4814 20.1655C40.4852 20.0816 40.4572 19.9992 40.403 19.9348C40.3795 19.9093 40.351 19.889 40.3192 19.8751C40.2874 19.8612 40.2531 19.854 40.2183 19.854C40.1836 19.854 40.1493 19.8612 40.1175 19.8751C40.0857 19.889 40.0572 19.9093 40.0337 19.9348C39.981 19.9976 39.955 20.0783 39.961 20.1598L40.4814 20.1655Z" fill="white"/>
<path d="M10.2756 23.3784L10.6315 23.3441C10.6427 23.4442 10.6887 23.5373 10.7617 23.6072C10.8373 23.6661 10.9317 23.6958 11.0276 23.6911C11.1229 23.6979 11.2175 23.6716 11.2955 23.6167C11.3229 23.5962 11.3452 23.5697 11.3608 23.5393C11.3763 23.5089 11.3848 23.4754 11.3854 23.4413C11.386 23.4017 11.3724 23.3632 11.3472 23.3326C11.3107 23.2956 11.2652 23.2687 11.2152 23.2544C11.1731 23.2392 11.0735 23.2125 10.9224 23.1744C10.7718 23.1479 10.6295 23.0865 10.5072 22.9951C10.4189 22.9196 10.3613 22.8147 10.3451 22.6999C10.3289 22.5852 10.3553 22.4685 10.4191 22.3716C10.4738 22.2864 10.5532 22.2199 10.6468 22.181C10.76 22.1361 10.8811 22.1147 11.0027 22.118C11.1873 22.1037 11.3709 22.1565 11.5194 22.2668C11.5761 22.317 11.6215 22.3787 11.6525 22.4477C11.6835 22.5167 11.6994 22.5915 11.6993 22.6672L11.3338 22.6824C11.3267 22.6053 11.2905 22.5337 11.2324 22.4822C11.164 22.4354 11.0817 22.4133 10.9989 22.4193C10.911 22.4146 10.8238 22.4379 10.7502 22.486C10.7314 22.4981 10.7161 22.5148 10.7057 22.5345C10.6954 22.5542 10.6902 22.5763 10.6909 22.5985C10.6912 22.6199 10.6964 22.641 10.706 22.6601C10.7156 22.6792 10.7294 22.696 10.7464 22.7091C10.85 22.7699 10.9643 22.8107 11.0831 22.8292C11.22 22.8571 11.3529 22.9013 11.4792 22.9608C11.5594 23.0056 11.6256 23.0716 11.6706 23.1515C11.7221 23.2392 11.7473 23.3398 11.7433 23.4413C11.7431 23.5447 11.7132 23.646 11.6572 23.733C11.5985 23.824 11.5129 23.8947 11.4122 23.9351C11.2857 23.9823 11.1512 24.0044 11.0161 24C10.8266 24.0133 10.6387 23.957 10.488 23.8417C10.3605 23.7199 10.2846 23.5542 10.2756 23.3784Z" fill="white"/>
<path d="M12.8205 23.55L13.1687 23.6091C13.13 23.7255 13.0557 23.8268 12.9563 23.899C12.8486 23.9676 12.7225 24.0022 12.5947 23.9981C12.498 24.0054 12.401 23.9888 12.3122 23.9499C12.2235 23.911 12.1457 23.8509 12.0857 23.775C11.9953 23.6413 11.9497 23.4824 11.9556 23.3212C11.9447 23.1351 12.0064 22.952 12.1278 22.8102C12.1821 22.7497 12.2488 22.7013 12.3234 22.6685C12.398 22.6356 12.4787 22.6189 12.5602 22.6196C12.6469 22.6144 12.7335 22.6289 12.8137 22.6619C12.8939 22.6949 12.9656 22.7456 13.0233 22.8102C13.1504 22.9798 13.2085 23.1909 13.1859 23.4013H12.3115C12.3088 23.4896 12.3388 23.5757 12.3957 23.6435C12.4215 23.6712 12.4529 23.6931 12.4879 23.7079C12.5228 23.7227 12.5605 23.73 12.5985 23.7293C12.6484 23.7305 12.6971 23.7143 12.7363 23.6835C12.7769 23.6482 12.8062 23.6018 12.8205 23.55ZM12.8396 23.1992C12.8436 23.1158 12.8156 23.0339 12.7611 22.9704C12.7386 22.9451 12.7109 22.9251 12.6798 22.9116C12.6488 22.8981 12.6151 22.8915 12.5813 22.8922C12.5453 22.8909 12.5094 22.8976 12.4763 22.9117C12.4432 22.9259 12.4137 22.9473 12.3899 22.9742C12.3374 23.0371 12.3108 23.1175 12.3153 23.1992H12.8396Z" fill="white"/>
<path d="M13.8021 23.9676H13.4539V22.6557H13.7772V22.8464C13.8142 22.7788 13.8651 22.7197 13.9265 22.6729C13.9716 22.6441 14.0241 22.6289 14.0776 22.629C14.1589 22.6296 14.2384 22.6527 14.3073 22.6958L14.1982 22.997C14.1508 22.9625 14.0942 22.9426 14.0356 22.9398C13.9908 22.9394 13.9472 22.9535 13.9112 22.9799C13.87 23.0195 13.842 23.0707 13.8308 23.1267C13.8056 23.2714 13.796 23.4184 13.8021 23.5652V23.9676Z" fill="white"/>
<path d="M14.8201 23.9676L14.29 22.6558H14.6555L14.9023 23.325L14.9751 23.5481C14.9942 23.4928 15.0057 23.4547 15.0114 23.4375C15.0171 23.4204 15.0344 23.3632 15.0478 23.325L15.2984 22.6558H15.6601L15.1377 23.9676H14.8201Z" fill="white"/>
<path d="M15.8667 22.4879V22.1676H16.2149V22.4879H15.8667ZM15.8667 23.9771V22.6653H16.2149V23.9771H15.8667Z" fill="white"/>
<path d="M17.7208 23.0447L17.3782 23.1057C17.3716 23.0461 17.3429 22.9911 17.2979 22.9513C17.2537 22.914 17.1969 22.8949 17.1391 22.8979C17.0998 22.8963 17.0606 22.9035 17.0245 22.919C16.9884 22.9345 16.9563 22.9579 16.9305 22.9875C16.8703 23.0759 16.8426 23.1823 16.852 23.2888C16.8412 23.4046 16.8695 23.5206 16.9324 23.6186C16.9576 23.6504 16.9899 23.6759 17.0268 23.6928C17.0638 23.7097 17.1042 23.7176 17.1448 23.7159C17.2043 23.718 17.2625 23.6976 17.3074 23.6587C17.3567 23.6061 17.3882 23.5394 17.3974 23.468L17.738 23.5271C17.7132 23.6649 17.6408 23.7897 17.5332 23.8798C17.416 23.9653 17.2727 24.0078 17.1276 24C17.0418 24.0028 16.9564 23.9873 16.8772 23.9544C16.7979 23.9215 16.7267 23.872 16.6684 23.8093C16.547 23.6712 16.4851 23.491 16.4961 23.3078C16.4851 23.1229 16.5468 22.9409 16.6684 22.8006C16.729 22.7394 16.802 22.6917 16.8824 22.6605C16.9629 22.6293 17.049 22.6153 17.1352 22.6195C17.2705 22.6125 17.4045 22.6486 17.5179 22.7225C17.6205 22.8037 17.692 22.9174 17.7208 23.0447Z" fill="white"/>
<path d="M17.9829 22.4879V22.1676H18.3388V22.4879H17.9829ZM17.9829 23.9771V22.6653H18.3388V23.9771H17.9829Z" fill="white"/>
<path d="M18.6087 23.2926C18.6092 23.1759 18.6387 23.0612 18.6948 22.9589C18.7477 22.8535 18.8319 22.7669 18.9359 22.711C19.0435 22.6532 19.164 22.6237 19.2861 22.6252C19.3768 22.6215 19.4674 22.6365 19.552 22.6693C19.6366 22.7021 19.7135 22.752 19.7779 22.8159C19.8411 22.8802 19.8906 22.9566 19.9235 23.0405C19.9563 23.1244 19.9719 23.214 19.9692 23.304C19.9724 23.3949 19.957 23.4855 19.9241 23.5704C19.8913 23.6552 19.8415 23.7326 19.7779 23.7978C19.7144 23.8613 19.6385 23.9109 19.5548 23.9437C19.4712 23.9766 19.3817 23.9918 19.2918 23.9885C19.1716 23.9878 19.0532 23.9598 18.9455 23.9065C18.8393 23.8553 18.7522 23.7719 18.6967 23.6682C18.6371 23.552 18.6068 23.423 18.6087 23.2926ZM18.9646 23.3116C18.9567 23.4196 18.9902 23.5266 19.0584 23.611C19.0868 23.644 19.122 23.6705 19.1616 23.6887C19.2013 23.7069 19.2444 23.7163 19.288 23.7163C19.3316 23.7163 19.3748 23.7069 19.4144 23.6887C19.454 23.6705 19.4892 23.644 19.5176 23.611C19.5844 23.5253 19.6172 23.418 19.6095 23.3097C19.6167 23.2027 19.584 23.0967 19.5176 23.0123C19.4889 22.9798 19.4536 22.9538 19.414 22.936C19.3744 22.9182 19.3314 22.909 19.288 22.909C19.2446 22.909 19.2016 22.9182 19.162 22.936C19.1225 22.9538 19.0871 22.9798 19.0584 23.0123C18.9905 23.0968 18.9571 23.2036 18.9646 23.3116Z" fill="white"/>
<path d="M20.1165 23.592L20.4666 23.5405C20.4784 23.6006 20.51 23.655 20.5566 23.695C20.613 23.7324 20.6802 23.7505 20.7479 23.7464C20.8191 23.7519 20.8902 23.7345 20.9507 23.6969C20.9653 23.6865 20.9772 23.6728 20.9852 23.6568C20.9932 23.6409 20.9971 23.6232 20.9967 23.6053C20.9972 23.5931 20.9953 23.5809 20.991 23.5695C20.9867 23.558 20.9802 23.5475 20.9718 23.5386C20.9364 23.5156 20.8967 23.5 20.8551 23.4928C20.6699 23.4628 20.4901 23.4063 20.3212 23.3251C20.2722 23.2931 20.2322 23.2492 20.205 23.1974C20.1779 23.1457 20.1645 23.0879 20.1662 23.0295C20.1665 22.9747 20.1786 22.9207 20.2017 22.871C20.2248 22.8213 20.2584 22.7772 20.3002 22.7416C20.4218 22.655 20.5701 22.6139 20.7192 22.6253C20.8588 22.6163 20.998 22.6467 21.121 22.713C21.2145 22.7741 21.2825 22.8669 21.3124 22.9742L20.9833 23.0333C20.9709 22.9864 20.9425 22.9452 20.9029 22.917C20.8525 22.8859 20.7936 22.8713 20.7345 22.8751C20.6685 22.8711 20.6026 22.8842 20.5432 22.9132C20.5315 22.921 20.5219 22.9314 20.5152 22.9437C20.5086 22.956 20.505 22.9698 20.5049 22.9837C20.505 22.9962 20.5082 23.0085 20.5142 23.0195C20.5202 23.0305 20.5289 23.0398 20.5393 23.0467C20.6424 23.0951 20.752 23.1285 20.8646 23.1458C21.0018 23.1694 21.1323 23.2221 21.2473 23.3003C21.2839 23.3321 21.3128 23.3718 21.3317 23.4164C21.3506 23.461 21.359 23.5093 21.3564 23.5577C21.3558 23.6174 21.3419 23.6762 21.3158 23.73C21.2897 23.7837 21.2519 23.831 21.2052 23.8685C21.0761 23.9633 20.9174 24.0092 20.7575 23.9981C20.6075 24.006 20.4586 23.9681 20.3308 23.8894C20.225 23.8199 20.1487 23.714 20.1165 23.592Z" fill="white"/>
<path d="M22.3572 23.9676V22.1581H23.6048V22.4632H22.7246V22.8922H23.4899V23.1973H22.7246V23.9599L22.3572 23.9676Z" fill="white"/>
<path d="M23.905 22.4879V22.1676H24.2533V22.4879H23.905ZM23.905 23.9771V22.6653H24.2533V23.9771H23.905Z" fill="white"/>
<path d="M25.8013 23.9675H25.455V23.2983C25.46 23.2055 25.4523 23.1125 25.432 23.0218C25.4187 22.9831 25.3932 22.9496 25.3593 22.9265C25.3235 22.9032 25.2815 22.8912 25.2387 22.8921C25.1803 22.8912 25.123 22.9078 25.0742 22.9398C25.0281 22.9718 24.9938 23.0181 24.9766 23.0714C24.9545 23.1702 24.9455 23.2715 24.9498 23.3726V23.9675H24.6016V22.6557H24.9249V22.8464C24.974 22.7771 25.039 22.7206 25.1147 22.6818C25.1903 22.6429 25.2742 22.6229 25.3593 22.6233C25.4316 22.623 25.5032 22.6373 25.5698 22.6652C25.6237 22.6858 25.6715 22.7197 25.7086 22.7637C25.7458 22.8078 25.7711 22.8605 25.7822 22.9169C25.7973 22.9942 25.8037 23.0728 25.8013 23.1515V23.9675Z" fill="white"/>
<path d="M26.4213 23.06L26.1056 23.0028C26.1325 22.8886 26.2006 22.7881 26.2969 22.7206C26.4124 22.6526 26.5457 22.6207 26.6796 22.6291C26.7977 22.6228 26.9158 22.6417 27.0259 22.6844C27.0924 22.7144 27.1488 22.7627 27.1886 22.8236C27.2263 22.9227 27.2419 23.0287 27.2345 23.1344V23.5405C27.2329 23.626 27.238 23.7114 27.2498 23.796C27.2636 23.8569 27.2848 23.9158 27.313 23.9715H26.9685C26.9553 23.9377 26.9438 23.9034 26.9341 23.8685L26.9226 23.8285C26.8673 23.8829 26.8024 23.9268 26.7313 23.9581C26.6629 23.9871 26.5893 24.002 26.515 24.002C26.3975 24.0087 26.282 23.9689 26.1936 23.8914C26.1552 23.8561 26.1249 23.8129 26.1048 23.7649C26.0846 23.7168 26.0751 23.665 26.0769 23.613C26.0769 23.5457 26.0954 23.4798 26.1304 23.4223C26.1655 23.3638 26.2176 23.3173 26.2797 23.2889C26.3682 23.25 26.4615 23.2231 26.5571 23.2088C26.6725 23.1907 26.7859 23.162 26.8958 23.123V23.0867C26.8986 23.061 26.8956 23.035 26.887 23.0106C26.8784 22.9862 26.8644 22.964 26.8461 22.9456C26.7889 22.9105 26.7214 22.8957 26.6547 22.9037C26.6028 22.8973 26.5504 22.9107 26.5078 22.941C26.4653 22.9714 26.4358 23.0166 26.4251 23.0677L26.4213 23.06ZM26.8882 23.3422C26.8183 23.3629 26.7474 23.3801 26.6758 23.3937C26.6093 23.4046 26.5449 23.4251 26.4844 23.4547C26.4635 23.4676 26.4463 23.4856 26.4342 23.5069C26.4222 23.5282 26.4158 23.5523 26.4156 23.5768C26.4154 23.6005 26.4202 23.6239 26.4298 23.6456C26.4393 23.6673 26.4534 23.6867 26.471 23.7026C26.4895 23.7204 26.5114 23.7343 26.5354 23.7435C26.5594 23.7526 26.585 23.7569 26.6107 23.756C26.6756 23.755 26.7386 23.7337 26.7906 23.695C26.8305 23.6663 26.8601 23.6255 26.8748 23.5787C26.8865 23.5236 26.891 23.4672 26.8882 23.4109V23.3422Z" fill="white"/>
<path d="M28.7691 23.9676H28.4208V23.2983C28.4251 23.2056 28.418 23.1128 28.3998 23.0218C28.3857 22.9835 28.3603 22.9503 28.3271 22.9265C28.2907 22.903 28.248 22.891 28.2046 22.8922C28.1468 22.8912 28.0901 22.9079 28.042 22.9398C27.9959 22.9723 27.9611 23.0183 27.9425 23.0714C27.9213 23.1703 27.9129 23.2716 27.9176 23.3727V23.9676H27.5693V22.6557H27.8927V22.8464C27.9415 22.7769 28.0065 22.7202 28.0822 22.6813C28.1579 22.6425 28.2419 22.6226 28.3271 22.6233C28.3994 22.623 28.4709 22.6373 28.5375 22.6653C28.5938 22.688 28.6432 22.7248 28.6811 22.772C28.7138 22.8151 28.7373 22.8644 28.7499 22.9169C28.7651 22.9942 28.7715 23.0728 28.7691 23.1515V23.9676Z" fill="white"/>
<path d="M30.271 23.0448L29.9266 23.1058C29.9198 23.0466 29.8919 22.9918 29.8482 22.9513C29.804 22.9141 29.7472 22.895 29.6893 22.8979C29.6498 22.8966 29.6105 22.9039 29.5741 22.9194C29.5377 22.9349 29.5052 22.9582 29.4788 22.9876C29.4203 23.0766 29.3933 23.1827 29.4023 23.2888C29.3919 23.4043 29.4195 23.5201 29.4808 23.6187C29.5062 23.6502 29.5386 23.6753 29.5755 23.6922C29.6123 23.7091 29.6526 23.7172 29.6932 23.7159C29.7527 23.7184 29.811 23.698 29.8558 23.6587C29.9058 23.6066 29.9373 23.5397 29.9457 23.4681L30.2882 23.5272C30.2627 23.6647 30.1904 23.7893 30.0835 23.8799C29.966 23.965 29.8229 24.0074 29.6779 24C29.5918 24.0031 29.506 23.9876 29.4265 23.9547C29.3469 23.9218 29.2754 23.8722 29.2167 23.8094C29.1058 23.6645 29.0457 23.4873 29.0457 23.305C29.0457 23.1228 29.1058 22.9456 29.2167 22.8007C29.2771 22.7397 29.3497 22.692 29.4298 22.6608C29.5099 22.6296 29.5958 22.6155 29.6817 22.6196C29.817 22.6123 29.9511 22.6484 30.0644 22.7225C30.1677 22.8037 30.2406 22.9172 30.271 23.0448Z" fill="white"/>
<path d="M30.5332 22.4879V22.1676H30.8795V22.4879H30.5332ZM30.5332 23.9771V22.6653H30.8795V23.9771H30.5332Z" fill="white"/>
<path d="M32.0009 23.55L32.3491 23.6091C32.3114 23.726 32.2369 23.8276 32.1367 23.899C32.0291 23.9679 31.9029 24.0025 31.7751 23.9981C31.6784 24.0054 31.5814 23.9888 31.4926 23.9499C31.4039 23.911 31.3261 23.8509 31.2661 23.775C31.1757 23.6413 31.1301 23.4824 31.136 23.3212C31.1251 23.1351 31.1868 22.952 31.3082 22.8102C31.3626 22.7497 31.4292 22.7013 31.5038 22.6685C31.5784 22.6356 31.6591 22.6189 31.7406 22.6196C31.8273 22.6144 31.914 22.6289 31.9942 22.6619C32.0744 22.6949 32.146 22.7456 32.2037 22.8102C32.3308 22.9798 32.3889 23.1909 32.3663 23.4013H31.4919C31.4888 23.49 31.5196 23.5765 31.578 23.6435C31.6023 23.67 31.6318 23.6914 31.6648 23.7061C31.6977 23.7209 31.7333 23.7288 31.7693 23.7293C31.8192 23.7305 31.8679 23.7143 31.9071 23.6835C31.9513 23.6496 31.984 23.603 32.0009 23.55ZM32.02 23.1992C32.0241 23.1158 31.996 23.0339 31.9416 22.9704C31.9191 22.9451 31.8913 22.9251 31.8603 22.9116C31.8292 22.8981 31.7956 22.8915 31.7617 22.8922C31.7257 22.8909 31.6899 22.8976 31.6568 22.9117C31.6237 22.9259 31.5942 22.9473 31.5704 22.9742C31.5177 23.0369 31.4916 23.1176 31.4976 23.1992H32.02Z" fill="white"/>
<path d="M32.9825 23.9676H32.6343V22.6557H32.9577V22.8464C32.9946 22.7788 33.0455 22.7197 33.1069 22.6729C33.1519 22.6438 33.2044 22.6286 33.2581 22.629C33.3393 22.6296 33.4188 22.6527 33.4877 22.6958L33.3805 22.997C33.3323 22.9627 33.2752 22.9428 33.216 22.9398C33.1713 22.9394 33.1276 22.9535 33.0916 22.9799C33.0511 23.02 33.0232 23.071 33.0112 23.1267C32.9861 23.2715 32.9764 23.4185 32.9825 23.5652V23.9676Z" fill="white"/>
<path d="M33.5564 23.2926C33.5569 23.176 33.5864 23.0613 33.6425 22.9589C33.6964 22.8542 33.7803 22.7679 33.8836 22.711C33.9917 22.6531 34.1129 22.6235 34.2357 22.6252C34.3261 22.6218 34.4163 22.6369 34.5006 22.6697C34.5849 22.7025 34.6614 22.7523 34.7256 22.8159C34.8497 22.9495 34.9186 23.1248 34.9186 23.3069C34.9186 23.489 34.8497 23.6643 34.7256 23.7979C34.6627 23.8616 34.5872 23.9115 34.5038 23.9444C34.4204 23.9772 34.331 23.9923 34.2414 23.9886C34.1218 23.9884 34.0038 23.9603 33.897 23.9066C33.7904 23.8554 33.7027 23.772 33.6464 23.6682C33.586 23.5522 33.5551 23.4233 33.5564 23.2926ZM33.9123 23.3117C33.9044 23.4197 33.9379 23.5267 34.0061 23.611C34.0345 23.644 34.0697 23.6706 34.1093 23.6887C34.149 23.7069 34.1921 23.7163 34.2357 23.7163C34.2793 23.7163 34.3225 23.7069 34.3621 23.6887C34.4017 23.6706 34.4369 23.644 34.4653 23.611C34.5321 23.5253 34.5649 23.418 34.5572 23.3098C34.5644 23.2027 34.5317 23.0968 34.4653 23.0123C34.4366 22.9798 34.4013 22.9538 34.3617 22.936C34.3221 22.9182 34.2791 22.909 34.2357 22.909C34.1923 22.909 34.1493 22.9182 34.1097 22.936C34.0702 22.9538 34.0348 22.9798 34.0061 23.0123C33.9382 23.0968 33.9048 23.2037 33.9123 23.3117Z" fill="white"/>
<path d="M35.0642 23.592L35.4144 23.5405C35.4261 23.6006 35.4578 23.655 35.5043 23.695C35.5608 23.7324 35.628 23.7505 35.6957 23.7464C35.7669 23.7522 35.838 23.7348 35.8985 23.6969C35.9131 23.6865 35.9249 23.6728 35.9329 23.6568C35.9409 23.6409 35.9449 23.6232 35.9444 23.6053C35.9449 23.5931 35.943 23.5809 35.9387 23.5695C35.9345 23.558 35.9279 23.5475 35.9195 23.5386C35.8842 23.5156 35.8444 23.5 35.8028 23.4928C35.6182 23.4631 35.439 23.4066 35.2709 23.3251C35.2213 23.2935 35.1809 23.2497 35.1534 23.1979C35.1259 23.1461 35.1123 23.0881 35.114 23.0295C35.1132 22.9746 35.1248 22.9202 35.148 22.8703C35.1712 22.8205 35.2053 22.7765 35.2479 22.7416C35.3696 22.655 35.5179 22.6139 35.667 22.6253C35.8065 22.6163 35.9458 22.6467 36.0688 22.713C36.1622 22.7741 36.2302 22.8669 36.2601 22.9742L35.931 23.0333C35.9202 22.9857 35.8914 22.9441 35.8507 22.917C35.8003 22.8859 35.7414 22.8713 35.6823 22.8751C35.6162 22.8711 35.5503 22.8842 35.4909 22.9132C35.4788 22.9206 35.4687 22.931 35.4617 22.9433C35.4547 22.9556 35.4509 22.9696 35.4507 22.9837C35.4509 22.9962 35.4541 23.0085 35.4601 23.0195C35.4661 23.0305 35.4747 23.0398 35.4852 23.0467C35.5883 23.0951 35.6978 23.1285 35.8105 23.1458C35.9478 23.1689 36.0784 23.2216 36.1932 23.3003C36.2298 23.3321 36.2586 23.3718 36.2775 23.4164C36.2964 23.461 36.3049 23.5093 36.3022 23.5577C36.302 23.6175 36.2884 23.6764 36.2622 23.7302C36.236 23.784 36.198 23.8313 36.1511 23.8685C36.022 23.9633 35.8633 24.0092 35.7033 23.9981C35.5539 24.0063 35.4055 23.9684 35.2785 23.8894C35.1724 23.8203 35.096 23.7143 35.0642 23.592Z" fill="white"/>
<path d="M30.1754 5.48569e-06C28.2343 -0.00236151 26.3713 0.76135 24.9937 2.1241H24.8789C23.8486 1.11335 22.5425 0.427142 21.1234 0.151046C19.7044 -0.125049 18.2352 0.0211766 16.899 0.571489C15.5628 1.1218 14.4186 2.05185 13.6093 3.24571C12.7999 4.43957 12.3611 5.84441 12.3475 7.2851C12.3339 8.72579 12.7462 10.1386 13.5329 11.3474C14.3196 12.5562 15.446 13.5075 16.7716 14.0827C18.0972 14.658 19.5634 14.8317 20.9874 14.5822C22.4114 14.3327 23.7302 13.671 24.7794 12.6798H24.9267C24.9918 12.6798 25.0588 12.6798 25.1181 12.6798C25.9926 13.5006 27.0554 14.0958 28.2138 14.4133C29.3722 14.7309 30.591 14.7611 31.7638 14.5014C32.9367 14.2417 34.0279 13.7 34.9423 12.9235C35.8568 12.147 36.5666 11.1593 37.01 10.0466C37.4533 8.9339 37.6167 7.72999 37.4859 6.53992C37.355 5.34984 36.9339 4.20975 36.2593 3.21911C35.5847 2.22847 34.6771 1.41737 33.6156 0.856596C32.5541 0.295818 31.3711 0.00239143 30.1696 0.00191408L30.1754 5.48569e-06ZM19.7145 14.3767C18.5703 14.3774 17.4431 14.1004 16.4304 13.5697C15.4177 13.039 14.5499 12.2705 13.902 11.3307C13.254 10.391 12.8455 9.30811 12.7117 8.17574C12.5778 7.04338 12.7227 5.89557 13.1337 4.83149C13.5448 3.76741 14.2097 2.81907 15.0709 2.06841C15.9322 1.31776 16.9639 0.787363 18.0769 0.523058C19.19 0.258754 20.3509 0.268489 21.4593 0.551425C22.5677 0.834361 23.5904 1.38199 24.4388 2.14698C23.1326 2.26774 21.9177 2.8671 21.0294 3.82905C20.1411 4.79099 19.6425 6.04712 19.6301 7.35431C19.6177 8.66149 20.0925 9.92678 20.9624 10.9053C21.8323 11.8837 23.0356 12.5058 24.3393 12.6512C23.0582 13.7653 21.4149 14.3785 19.7145 14.3767ZM19.8561 7.40384C19.8561 6.40448 20.1535 5.42757 20.7106 4.59663C21.2678 3.7657 22.0597 3.11806 22.9863 2.73563C23.9128 2.35319 24.9324 2.25313 25.916 2.44809C26.8996 2.64306 27.8031 3.12429 28.5123 3.83094C29.2214 4.53759 29.7043 5.43792 29.9 6.41807C30.0956 7.39823 29.9952 8.41418 29.6114 9.33747C29.2276 10.2608 28.5777 11.0499 27.7439 11.6051C26.91 12.1603 25.9296 12.4567 24.9267 12.4567C24.2608 12.4569 23.6013 12.3264 22.986 12.0726C22.3707 11.8187 21.8116 11.4465 21.3407 10.9773C20.8698 10.508 20.4963 9.95092 20.2416 9.33776C19.9868 8.72461 19.8558 8.06746 19.8561 7.40384ZM30.1754 14.3615C28.4799 14.3643 26.8409 13.7546 25.562 12.6454C26.8583 12.4883 28.0508 11.8597 28.9105 10.8802C29.7702 9.90069 30.2366 8.63933 30.2202 7.33816C30.2039 6.03698 29.7059 4.78766 28.8218 3.82994C27.9377 2.87223 26.7298 2.27358 25.43 2.14889C26.2765 1.38064 27.2982 0.8295 28.4065 0.543163C29.5149 0.256826 30.6766 0.243913 31.7911 0.505544C32.9056 0.767174 33.9393 1.29547 34.8029 2.04471C35.6664 2.79396 36.3337 3.74159 36.7471 4.80561C37.1605 5.86963 37.3074 7.018 37.1753 8.15135C37.0432 9.2847 36.6359 10.3689 35.9887 11.3101C35.3415 12.2514 34.474 13.0213 33.461 13.5533C32.4481 14.0853 31.3204 14.3634 30.1754 14.3634V14.3615Z" fill="white"/>
</g>
<defs>
<clipPath id="clip0_406_3380">
<rect width="45.2571" height="24" fill="white" transform="translate(0.646973)"/>
</clipPath>
</defs>
</svg>
