<svg width="65" height="24" viewBox="0 0 65 24" fill="none" xmlns="http://www.w3.org/2000/svg">
<g clip-path="url(#clip0_406_3465)">
<path d="M51.9716 18.1276V16.5678C51.9716 12.8374 51.9716 9.1141 51.9716 5.38365C51.954 5.05367 51.9183 4.72493 51.8647 4.39892C51.8219 4.03235 51.8647 3.98922 52.2212 3.98922L56.9835 4.03954C57.9032 4.03954 58.8229 4.03954 59.7426 4.03954C60.6543 4.05779 61.543 4.33155 62.3092 4.83018C62.8297 5.17442 63.2499 5.65211 63.5268 6.21422C63.8037 6.77633 63.9272 7.4026 63.8847 8.02874C63.9023 8.65046 63.7615 9.26634 63.4756 9.81752C63.1898 10.3687 62.7685 10.8368 62.2521 11.177C61.98 11.3289 61.6963 11.4587 61.4037 11.5651C61.4643 11.5922 61.5261 11.6162 61.5891 11.637C62.0999 11.7432 62.5794 11.9672 62.99 12.2914C63.4007 12.6157 63.7313 13.0313 63.956 13.5058C64.3766 14.3484 64.5284 15.3015 64.3906 16.2345C64.2527 17.1675 63.832 18.0346 63.1861 18.717C62.5395 19.3037 61.7363 19.6861 60.8762 19.8167C59.2754 19.9843 57.6643 20.0299 56.0567 19.9533C53.9179 19.9533 51.7791 19.9533 49.676 19.9533C49.3837 19.9533 49.3124 19.8455 49.2482 19.5651C49.0843 18.8464 48.8846 18.1276 48.6636 17.4663C48.4997 16.956 48.2786 16.46 48.1075 15.9569C48.0362 15.7556 47.9365 15.7197 47.744 15.7197C45.8832 15.7197 44.0224 15.7197 42.1545 15.7197C41.8765 15.7197 41.7553 15.7197 41.6626 16.0719C41.4915 16.7044 41.185 17.301 40.9497 17.9263C40.7756 18.457 40.6304 18.9969 40.5148 19.5436C40.4507 19.8311 40.3437 19.9533 40.0371 19.9461C39.1174 19.9461 38.1978 19.9461 37.271 19.9461H37.0286C37.1783 19.637 37.3209 19.3639 37.4421 19.0764C37.8128 18.1635 38.155 17.2435 38.5328 16.3234C38.9107 15.4034 39.2458 14.5265 39.588 13.6208C40.0086 12.5067 40.4007 11.3926 40.8142 10.2785C41.1564 9.37286 41.5272 8.48158 41.8694 7.57592C42.2615 6.49776 42.6322 5.41958 42.9958 4.33423C43.0742 4.08265 43.174 3.98203 43.4521 3.98922C44.386 3.98922 45.32 3.98922 46.2468 3.98922C46.3485 3.97444 46.452 3.99983 46.5357 4.06009C46.6194 4.12034 46.6768 4.21081 46.6959 4.31266C46.9954 5.21832 47.3162 6.1168 47.6441 7.01528C47.9721 7.91375 48.3571 8.94879 48.742 9.89039C49.0343 10.6092 49.3338 11.407 49.6189 12.1617C50.0467 13.3046 50.4674 14.4474 50.9022 15.5903C51.1304 16.1725 51.3799 16.7475 51.6152 17.3297C51.7221 17.5885 51.7863 17.8616 51.8718 18.1276H51.9716ZM54.7307 17.5957C56.2492 17.5957 57.7321 17.5957 59.2222 17.5957C59.6369 17.5835 60.0437 17.4779 60.4127 17.2866C60.7453 17.0857 61.0319 16.8163 61.254 16.4959C61.5325 16.0275 61.6432 15.477 61.5677 14.9362C61.5839 14.5575 61.4828 14.1831 61.2784 13.865C61.074 13.5469 60.7764 13.3007 60.427 13.1608C60.0289 12.9813 59.6008 12.8789 59.1651 12.8589C57.7392 12.8158 56.3134 12.8589 54.8875 12.8589C54.8425 12.8533 54.797 12.8533 54.7521 12.8589L54.7307 17.5957ZM57.1404 10.4582H59.1794C59.3544 10.4558 59.5278 10.4242 59.6927 10.3648C60.1926 10.2129 60.614 9.87014 60.867 9.40964C61.12 8.94914 61.1847 8.40724 61.0473 7.89937C61.019 7.59985 60.9039 7.31535 60.7162 7.08141C60.5286 6.84747 60.2767 6.67447 59.9921 6.584C59.5658 6.44368 59.1215 6.36621 58.6732 6.35399C57.4541 6.35399 56.2421 6.35399 55.023 6.35399C54.7806 6.35399 54.7164 6.41149 54.7164 6.67025C54.7164 7.85624 54.7164 9.03504 54.7164 10.2138C54.7164 10.4367 54.7877 10.4798 54.9731 10.4798L57.1404 10.4582ZM47.2449 13.2758C46.4393 11.0261 45.6479 8.81222 44.8637 6.60557C44.0937 8.83378 43.3214 11.0572 42.5467 13.2758H47.2449Z" fill="white"/>
<path d="M30.2343 14.1025C30.2771 15.8706 30.3128 17.6029 30.3484 19.3423V19.443C30.3912 19.9892 30.3912 19.9892 29.8422 19.9892H27.7034C27.4753 19.9892 27.3683 19.9389 27.3826 19.6658C27.4468 18.4295 27.5181 17.1932 27.5252 15.9569C27.5252 13.628 27.5252 11.292 27.5252 8.96318C27.5252 7.40343 27.4396 5.85087 27.3826 4.29112C27.3826 4.0108 27.4967 3.98206 27.7106 3.98206L29.6854 4.01799C31.4036 4.01799 33.1217 4.01799 34.8399 4.07549C35.616 4.05861 36.3843 4.23471 37.0769 4.58823C37.7694 4.94175 38.365 5.46181 38.8109 6.10245C39.2097 6.69038 39.4549 7.37024 39.5239 8.07909C39.6654 9.11076 39.5453 10.1618 39.1745 11.1339C38.9515 11.7062 38.6134 12.2258 38.1815 12.66C37.7497 13.0942 37.2333 13.4336 36.665 13.6568C35.8955 13.9535 35.0791 14.1069 34.2553 14.1096C33.0005 14.1456 31.7386 14.1096 30.4768 14.1096L30.2343 14.1025ZM30.2343 11.5939C30.2719 11.6021 30.3108 11.6021 30.3484 11.5939C31.7743 11.5939 33.2002 11.637 34.5832 11.5939C34.9658 11.5829 35.3377 11.4638 35.6565 11.2504C35.9754 11.0369 36.2284 10.7376 36.3869 10.3864C36.6944 9.69604 36.7647 8.92202 36.5866 8.1869C36.5267 7.72619 36.3042 7.30264 35.9599 6.99377C35.6155 6.6849 35.1724 6.51138 34.7116 6.50496C33.4212 6.45465 32.1236 6.46183 30.8332 6.44746C30.2629 6.44746 30.2557 6.44746 30.2557 7.02248L30.2343 11.5939Z" fill="white"/>
<path d="M9.96579 18.7241L1.36069 18.5948C0.954314 18.5948 0.918678 18.5229 0.925807 18.0988C0.925807 17.5525 0.925807 17.0134 0.925807 16.4744C0.925807 16.0431 0.925811 16 1.37496 15.9928C2.99332 15.9497 4.61168 15.8706 6.23716 15.8634C9.24574 15.8634 12.2543 15.8634 15.27 15.9065C16.3608 15.9065 17.4587 15.964 18.5495 15.9928C18.9844 15.9928 19.0129 16.0359 19.0058 16.4672C18.9986 16.8984 19.0058 17.5238 19.0058 18.0557C19.0058 18.5876 19.0058 18.5876 18.4782 18.5948C16.9454 18.5948 15.4126 18.6451 13.8798 18.6594C12.5752 18.6594 11.2705 18.6594 9.96579 18.6594V18.7241Z" fill="white"/>
<path d="M9.9656 2.91103C8.88194 3.01885 7.78402 3.06198 6.71463 3.26324C5.63705 3.49202 4.57504 3.78971 3.53498 4.15452C2.82204 4.38453 2.19466 4.73673 1.5245 5.03143L0.982666 5.26863V4.6936C0.982666 4.14733 0.982666 3.60825 0.982666 3.06917C0.989666 2.99144 1.01378 2.91626 1.05325 2.84911C1.09271 2.78197 1.14654 2.72454 1.21081 2.68102C2.09485 2.19944 2.97175 1.70349 3.88431 1.2866C5.05867 0.773032 6.29586 0.420094 7.56302 0.23718C8.90188 -0.00933304 10.271 -0.040873 11.6196 0.143735C12.3325 0.25874 13.1025 0.323437 13.8154 0.510319C14.6822 0.731697 15.5307 1.02006 16.3535 1.37285C17.2025 1.77569 18.0306 2.22191 18.8345 2.70978C18.8969 2.7605 18.9481 2.82375 18.9849 2.89553C19.0218 2.9673 19.0434 3.04602 19.0484 3.12667C19.0484 3.7592 19.0484 4.39171 19.0484 5.01705C19.048 5.11149 19.0153 5.2029 18.9557 5.27581C18.9201 5.27581 18.7988 5.27582 18.7204 5.21832C18.0645 4.89487 17.43 4.49953 16.7599 4.24796C16.0154 3.96645 15.2562 3.7265 14.4856 3.52918C13.2169 3.18029 11.9081 3.00145 10.593 2.99728H10.0013L9.9656 2.91103Z" fill="white"/>
<path d="M10.329 5.25427L13.5728 5.63522C14.9371 5.81734 16.2765 6.15494 17.5652 6.64152C17.9805 6.78312 18.3855 6.95363 18.7772 7.15185C18.8408 7.19273 18.8943 7.2476 18.9338 7.31234C18.9734 7.37707 18.9978 7.44999 19.0053 7.52561C19.0053 8.16533 19.0053 8.80504 19.0053 9.44475C19.0053 9.70351 18.9127 9.76102 18.6845 9.67476C16.4671 8.88137 14.1523 8.39769 11.8047 8.23721C9.68399 8.06025 7.54918 8.17632 5.45962 8.58222C4.16921 8.81223 2.89309 9.17162 1.60981 9.48069C1.46659 9.53317 1.32617 9.59315 1.18916 9.66039C0.982408 9.73945 0.88261 9.66038 0.889739 9.44475C0.889739 8.80504 0.889739 8.15814 0.889739 7.51843C0.877382 7.42679 0.897901 7.33372 0.947569 7.25597C0.997237 7.17822 1.07279 7.12091 1.16066 7.09435C2.29438 6.60313 3.4679 6.21115 4.66827 5.92274C6.52955 5.51749 8.42517 5.29363 10.329 5.25427Z" fill="white"/>
<path d="M9.90158 24C8.16916 23.8563 6.42957 23.7628 4.70428 23.5616C3.53507 23.425 2.38015 23.1447 1.21807 22.9362C0.982804 22.8931 0.90435 22.7853 0.918609 22.5265C0.918609 21.9084 0.918609 21.2902 0.918609 20.6721C0.918609 20.4349 0.968538 20.3486 1.21094 20.3774C2.6368 20.5499 3.99135 20.7368 5.38157 20.8805C6.00895 20.9452 6.65062 20.9309 7.28513 20.938C8.711 20.938 10.0656 21.0171 11.4558 20.9812C13.01 20.9812 14.557 20.8446 16.1112 20.7296C16.9596 20.6649 17.8008 20.514 18.6492 20.3918C18.9986 20.3415 19.02 20.3918 19.02 20.7224C19.02 21.3262 19.02 21.9371 19.02 22.5481C19.02 22.7781 18.9558 22.9003 18.7277 22.9362C17.8151 23.1016 16.9097 23.2956 15.99 23.4322C14.8636 23.5975 13.7371 23.7485 12.6036 23.8275C11.7053 23.8922 10.807 23.8275 9.90872 23.8275L9.90158 24Z" fill="white"/>
<path d="M10.2864 10.5302C12.0331 10.6739 13.7727 10.7745 15.498 10.9758C16.5888 11.1052 17.6368 11.3999 18.7418 11.6083C18.7829 11.6099 18.8231 11.6202 18.86 11.6385C18.8968 11.6568 18.9294 11.6827 18.9557 11.7146C18.9819 11.7465 19.0012 11.7836 19.0123 11.8235C19.0233 11.8634 19.0259 11.9052 19.0199 11.9461C19.0199 12.5859 19.0199 13.2256 19.0199 13.8725C19.0199 14.1169 18.9272 14.1815 18.7062 14.1456C18.1715 14.0665 17.6439 13.9803 17.1092 13.9228C16.0541 13.815 14.9704 13.6856 13.9438 13.6425C12.0973 13.5634 10.2437 13.4843 8.3972 13.5059C6.97134 13.5059 5.6025 13.6712 4.20516 13.7934C3.21418 13.8797 2.23032 14.0162 1.24647 14.1384C0.982685 14.1384 0.897154 14.1384 0.911413 13.8221C0.911413 13.2327 0.911413 12.629 0.911413 12.0324C0.911413 11.7664 0.961297 11.6443 1.24647 11.5939C2.67233 11.3639 4.03404 11.0333 5.43852 10.8752C7.05687 10.6883 8.67522 10.638 10.2864 10.5302Z" fill="white"/>
<path d="M24.3525 19.9605H23.0336C22.8198 19.9605 22.7485 19.8671 22.777 19.6514C22.8665 19.1407 22.9212 18.6243 22.9409 18.1061C22.9409 14.0474 22.9409 9.98865 22.9409 5.92996C22.9206 5.38821 22.8682 4.84817 22.7841 4.31271C22.7841 4.09707 22.834 3.99645 23.0408 3.98926H25.7C25.9566 3.98926 25.9353 4.16896 25.921 4.34146C25.8489 4.75513 25.8013 5.17275 25.7784 5.59213C25.7784 9.84729 25.7784 14.1049 25.7784 18.3648C25.8001 18.7846 25.8502 19.2025 25.9281 19.6155C25.9638 19.8671 25.9281 19.9821 25.6144 19.9605C25.1867 19.9389 24.766 19.9605 24.3525 19.9605Z" fill="white"/>
</g>
<defs>
<clipPath id="clip0_406_3465">
<rect width="63.5294" height="24" fill="white" transform="translate(0.904297)"/>
</clipPath>
</defs>
</svg>
