<svg width="34" height="24" viewBox="0 0 34 24" fill="none" xmlns="http://www.w3.org/2000/svg">
<g clip-path="url(#clip0_406_3520)">
<path d="M24.1281 7.03718L19.9185 0.00244141H20.4385C21.1096 0.0197076 21.0055 -0.108555 21.3794 0.542627C22.0158 1.6526 22.6745 2.74777 23.3208 3.8528C23.7434 4.57798 24.1627 5.30563 24.5788 6.03574C24.6109 6.09247 24.6407 6.18374 24.6159 6.22814C24.4624 6.48959 24.3039 6.74119 24.1281 7.03718Z" fill="white"/>
<path d="M21.0303 13.8573L25.1037 6.91138C25.1962 7.09355 25.3012 7.2691 25.4182 7.43676C25.6311 7.70316 25.5667 7.93008 25.4182 8.20388C24.9031 9.06225 24.4054 9.93049 23.9002 10.7938C23.4743 11.519 23.0467 12.2433 22.6175 12.9669C22.4566 13.2407 22.303 13.5219 22.1223 13.7932C22.083 13.8558 22.0209 13.9009 21.9489 13.919C21.6741 13.919 21.3992 13.919 21.1268 13.919C21.1095 13.9214 21.0823 13.8918 21.0303 13.8573Z" fill="white"/>
<path d="M8.79782 8.61084L9.32773 9.50128C9.98806 10.6228 10.6566 11.7451 11.3335 12.8682L12.8539 15.431C12.9529 15.5987 12.9282 15.6431 12.7301 15.648C12.632 15.6394 12.5334 15.6394 12.4354 15.648C12.0194 15.7245 11.8139 15.5173 11.6232 15.172C11.1032 14.2372 10.5436 13.327 10.0013 12.4045C9.45897 11.482 8.89933 10.5397 8.35456 9.60488C8.33834 9.57629 8.32801 9.54477 8.32418 9.51216C8.32035 9.47954 8.32312 9.44649 8.33228 9.41495C8.48086 9.16336 8.61953 8.9167 8.79782 8.61084Z" fill="white"/>
<path d="M7.81961 8.73426C7.65618 8.43334 7.52246 8.20641 7.4135 7.96715C7.39389 7.92112 7.38379 7.87163 7.38379 7.82162C7.38379 7.77162 7.39389 7.72212 7.4135 7.67609C7.88151 6.84732 8.36438 6.02594 8.83982 5.20949C9.1444 4.67918 9.44155 4.14392 9.74861 3.61361C10.0557 3.08329 10.3256 2.62697 10.6153 2.13365C10.6558 2.06895 10.693 2.00227 10.7267 1.93385C10.7615 1.84868 10.8243 1.77785 10.9049 1.73302C10.9854 1.68818 11.0789 1.67202 11.17 1.68719C11.4176 1.71186 11.6652 1.63786 11.9128 1.75132L7.81961 8.73426Z" fill="white"/>
<path d="M21.5454 14.7774C21.4092 15.0241 21.2804 15.2264 21.1739 15.4459C21.0675 15.6654 20.8273 15.6432 20.6366 15.6457C19.6659 15.6457 18.6952 15.6457 17.7245 15.6457C16.5632 15.6457 15.4043 15.6457 14.243 15.6457C14.1396 15.6632 14.0333 15.6475 13.9394 15.601C13.8455 15.5545 13.7688 15.4794 13.7205 15.3867C13.6115 15.1869 13.4902 14.9945 13.3564 14.7676L21.5454 14.7774Z" fill="white"/>
<path d="M11.3706 0.868223C11.5316 0.579631 11.6628 0.320638 11.8213 0.081378C11.8609 0.0221797 11.9971 0.00738122 12.0887 0.00738122C13.7692 0.00738122 15.4506 0.00738122 17.1328 0.00738122C17.68 0.00738122 18.2298 0.00738122 18.7795 0.00738122C18.8522 0.000532437 18.9253 0.016917 18.9881 0.0541663C19.0508 0.0914155 19.1001 0.147596 19.1286 0.214575C19.2376 0.429169 19.3763 0.63143 19.5174 0.875623L11.3706 0.868223Z" fill="white"/>
<path d="M12.9232 6.608V6.7338C12.9232 6.86453 12.9232 6.99279 12.938 7.12105C12.9529 7.24932 12.9579 7.36771 12.9752 7.50091L12.7276 7.55517C12.7144 7.36256 12.6317 7.18119 12.4948 7.04459C12.3493 6.92251 12.1622 6.86071 11.9723 6.87193C11.8566 6.86619 11.7412 6.88804 11.6357 6.93566C11.5302 6.98328 11.4376 7.05529 11.3656 7.14572C11.209 7.37269 11.1332 7.64534 11.1502 7.92023C11.1362 8.22488 11.2232 8.52566 11.3978 8.77614C11.475 8.87592 11.5752 8.95578 11.6898 9.009C11.8044 9.06223 11.9301 9.08726 12.0565 9.082C12.2257 9.08487 12.3911 9.03197 12.527 8.93154C12.6749 8.8126 12.7899 8.6581 12.8613 8.48261L13.0941 8.59608C13.0371 8.72928 12.9851 8.85754 12.938 8.98333C12.891 9.10913 12.8539 9.22999 12.8192 9.35086C12.6528 9.41441 12.4824 9.46714 12.3091 9.50872C12.1736 9.54085 12.0348 9.5574 11.8956 9.55805C11.6827 9.56837 11.47 9.53591 11.2701 9.4626C11.0701 9.38929 10.887 9.27663 10.7317 9.13133C10.44 8.82307 10.2809 8.41343 10.2883 7.9899C10.2957 7.56636 10.4691 7.16249 10.7713 6.86453C11.1103 6.56134 11.5542 6.40125 12.0095 6.41807C12.1658 6.41902 12.3216 6.43472 12.475 6.46494C12.6287 6.49803 12.7788 6.54595 12.9232 6.608Z" fill="white"/>
<path d="M13.1682 6.49707L13.5644 6.52914C13.656 6.52914 13.7328 6.52914 13.7947 6.52914C13.8566 6.52914 13.968 6.52914 14.0695 6.52914C14.1711 6.52914 14.2825 6.51187 14.4014 6.49954C14.4165 6.56035 14.4407 6.61855 14.4732 6.6722C14.5348 6.77029 14.6018 6.86498 14.6738 6.95586L15.7856 8.39142C15.7856 8.25822 15.7856 8.12996 15.7856 8.01157V7.67364C15.7856 7.61937 15.7856 7.54784 15.7856 7.46151C15.7856 7.37518 15.7856 7.31598 15.7856 7.28392C15.7977 7.13561 15.7765 6.98649 15.7237 6.84733C15.6978 6.81235 15.6631 6.78481 15.6231 6.76748C15.5831 6.75016 15.5392 6.74366 15.4959 6.74866H15.4141V6.502C15.5082 6.502 15.5999 6.52667 15.6915 6.53161C15.7831 6.53654 15.8846 6.53161 15.9886 6.53161C16.0926 6.53161 16.1867 6.53161 16.2784 6.53161C16.37 6.53161 16.4666 6.51434 16.5631 6.502V6.74866C16.4843 6.74328 16.4052 6.75334 16.3303 6.77827C16.3087 6.78977 16.2897 6.80555 16.2743 6.82463C16.259 6.84371 16.2477 6.8657 16.2412 6.88926C16.2244 6.97045 16.2152 7.05303 16.214 7.13592C16.214 7.26419 16.214 7.52071 16.214 7.90796V8.18423C16.214 8.39635 16.214 8.59615 16.214 8.78361C16.214 8.97107 16.214 9.12893 16.214 9.25719C16.214 9.27693 16.214 9.30653 16.214 9.34599C16.214 9.38546 16.214 9.42986 16.214 9.47919H15.5776C15.5577 9.43557 15.5345 9.39351 15.5082 9.35339C15.4785 9.30899 15.4315 9.2424 15.3646 9.15853L13.9977 7.41465C13.9977 7.53551 13.9977 7.66131 13.9977 7.77477C13.9977 7.88823 13.9977 8.03623 13.9977 8.20642V8.61095C13.9854 8.77767 14.0056 8.94519 14.0572 9.10427C14.0819 9.14105 14.1161 9.17054 14.1561 9.18963C14.1962 9.20873 14.2407 9.21673 14.285 9.2128H14.3692H14.3865V9.45946C14.2478 9.44466 14.1389 9.43479 14.0225 9.42739C13.9061 9.41999 13.8318 9.42739 13.7749 9.42739C13.7179 9.42739 13.6313 9.42739 13.5273 9.42739L13.1707 9.45946V9.2128H13.2574C13.3185 9.21673 13.3797 9.20572 13.4356 9.18073C13.4797 9.15382 13.5124 9.11167 13.5273 9.06233C13.5703 8.80153 13.5886 8.53725 13.5817 8.27302C13.5817 8.18423 13.5817 8.11763 13.5817 8.07323V7.82657C13.5817 7.75504 13.5817 7.67611 13.5817 7.57991C13.5817 7.48371 13.5817 7.33325 13.5817 7.14085C13.5933 7.03044 13.5699 6.9192 13.5149 6.82266C13.4822 6.79168 13.4431 6.76831 13.4002 6.75423C13.3574 6.74016 13.312 6.73573 13.2672 6.74126H13.1707L13.1682 6.49707Z" fill="white"/>
<path d="M16.7588 9.21764H16.8529C16.895 9.22287 16.9378 9.21587 16.976 9.19749C17.0142 9.17912 17.0463 9.15014 17.0684 9.11404C17.1206 8.9331 17.1398 8.74431 17.1253 8.55659V7.1457C17.1357 7.04067 17.1142 6.93495 17.0634 6.84231C17.0363 6.81079 17.0017 6.78658 16.9627 6.77192C16.9238 6.75727 16.8818 6.75263 16.8405 6.75845H16.7687V6.49698L17.1525 6.52905C17.259 6.52905 17.3506 6.52905 17.4299 6.52905C17.5562 6.52905 17.7196 6.52905 17.9251 6.50192C18.1307 6.47479 18.2718 6.47232 18.351 6.47232C18.6124 6.45772 18.8719 6.52406 19.0939 6.66225C19.1765 6.71561 19.2445 6.78868 19.2917 6.87482C19.3388 6.96096 19.3636 7.05746 19.3638 7.15557C19.3648 7.31079 19.3084 7.46094 19.2054 7.57735C19.0779 7.71212 18.9175 7.81157 18.7398 7.86595C18.9575 7.88417 19.1638 7.97051 19.3292 8.11261C19.3961 8.17924 19.4483 8.2591 19.4824 8.34703C19.5165 8.43496 19.5318 8.52903 19.5272 8.62319C19.5286 8.74743 19.4967 8.86979 19.4349 8.97771C19.3731 9.08564 19.2836 9.17526 19.1756 9.23737C18.8878 9.40682 18.5561 9.4875 18.2223 9.46923C18.1579 9.46923 18.0267 9.46923 17.831 9.4421C17.6354 9.41497 17.4744 9.41497 17.3358 9.41497L17.0882 9.42977L16.7563 9.4569L16.7588 9.21764ZM17.8855 7.76482H18.0068H18.3461H18.3684C18.4399 7.71411 18.4984 7.64736 18.5392 7.56995C18.5791 7.49819 18.6004 7.41765 18.6011 7.33563C18.6044 7.27613 18.5951 7.2166 18.5738 7.16093C18.5524 7.10525 18.5196 7.05468 18.4773 7.01251C18.3846 6.92854 18.2634 6.8827 18.1381 6.88424C18.0927 6.88127 18.0472 6.88127 18.0019 6.88424L17.8979 6.89657V7.57489C17.8905 7.67109 17.8905 7.72782 17.8905 7.76482H17.8855ZM17.8855 9.04498C17.9341 9.06417 17.9848 9.07742 18.0365 9.08445C18.0913 9.09373 18.1469 9.09786 18.2025 9.09678C18.2692 9.10078 18.3361 9.09125 18.3991 9.06879C18.4621 9.04632 18.5199 9.01137 18.5689 8.96605C18.6149 8.91981 18.6507 8.86459 18.6741 8.80389C18.6975 8.74318 18.7081 8.6783 18.7051 8.61332C18.7089 8.54475 18.6972 8.4762 18.6711 8.41264C18.645 8.34908 18.605 8.2921 18.5541 8.2458C18.4362 8.14897 18.2856 8.10047 18.1331 8.11014H17.9078H17.883C17.883 8.26307 17.883 8.42587 17.883 8.60346V9.04005L17.8855 9.04498Z" fill="white"/>
<path d="M19.4828 6.49697C19.6413 6.49697 19.7824 6.52164 19.9087 6.52657C20.035 6.53151 20.1365 6.52657 20.2207 6.52657C20.3049 6.52657 20.4114 6.52657 20.5302 6.52657L21.0477 6.49451V6.74117H20.9982C20.9225 6.73403 20.8464 6.7504 20.7803 6.78803C20.7576 6.80779 20.74 6.83262 20.7288 6.86049C20.7176 6.88836 20.7132 6.91847 20.7159 6.94836C20.7142 6.9697 20.7142 6.99115 20.7159 7.01249C20.7159 7.03963 20.7308 7.06676 20.7407 7.09636L21.2632 8.70951L21.486 8.10273C21.641 7.72249 21.7741 7.33378 21.8847 6.9385C21.8874 6.90994 21.8832 6.88116 21.8724 6.85456C21.8616 6.82796 21.8446 6.8043 21.8228 6.78557C21.7552 6.74988 21.6786 6.73446 21.6024 6.74117H21.5727V6.49451L21.9441 6.52657C22.0308 6.52657 22.1051 6.52657 22.1645 6.52657C22.224 6.52657 22.3007 6.52657 22.3824 6.52657L22.7613 6.49451V6.74117C22.7106 6.74058 22.6599 6.74554 22.6103 6.75597C22.5724 6.763 22.5362 6.77723 22.5038 6.7979C22.3905 6.95241 22.3065 7.1263 22.2562 7.31095L22.1026 7.69081C21.8921 8.18413 21.7237 8.61085 21.5925 8.94631C21.5138 9.12631 21.4485 9.3118 21.3969 9.50129H20.7481C20.7129 9.36597 20.6682 9.23327 20.6144 9.10417C20.5302 8.85751 20.3346 8.31239 20.03 7.46388C20.0102 7.41291 19.9854 7.34137 19.9557 7.24929C19.8443 6.91629 19.7081 6.75597 19.5273 6.75597H19.4753L19.4828 6.49697Z" fill="white"/>
<path d="M4.27128 19.755V19.829C4.27128 19.903 4.27128 19.9795 4.27128 20.0535C4.27128 20.1275 4.27127 20.2015 4.29356 20.273L4.14747 20.3051C4.13948 20.1933 4.09108 20.0881 4.01126 20.0091C3.92812 19.9383 3.82085 19.9021 3.71165 19.908C3.6452 19.9051 3.57905 19.9182 3.51873 19.9461C3.45841 19.974 3.40568 20.0159 3.36497 20.0683C3.27529 20.2003 3.23177 20.3581 3.24115 20.5172C3.23105 20.6921 3.27892 20.8654 3.37736 21.0105C3.42069 21.0686 3.47768 21.1151 3.54331 21.1461C3.60894 21.1771 3.68121 21.1915 3.75375 21.1881C3.85098 21.1909 3.94622 21.1604 4.02365 21.1018C4.10874 21.0324 4.17442 20.9424 4.21433 20.8403L4.3505 20.9069C4.31584 20.9834 4.28612 21.0599 4.25888 21.1314C4.23165 21.2029 4.21186 21.2745 4.19205 21.346C4.09685 21.383 3.99921 21.4135 3.89984 21.4372C3.81873 21.4567 3.73563 21.4666 3.65222 21.4668C3.52979 21.4732 3.40735 21.4546 3.29239 21.4122C3.17743 21.3698 3.07239 21.3044 2.98365 21.2202C2.81693 21.0391 2.72652 20.8011 2.73113 20.5554C2.73573 20.3098 2.83501 20.0753 3.0084 19.9006C3.10434 19.8128 3.21672 19.7447 3.33909 19.7003C3.46146 19.6559 3.59143 19.6359 3.72156 19.6416C3.81137 19.642 3.90092 19.6511 3.98898 19.6687C4.08583 19.6876 4.18044 19.7166 4.27128 19.755Z" fill="white"/>
<path d="M4.45701 20.5616C4.454 20.4392 4.47643 20.3176 4.52287 20.2042C4.56932 20.0909 4.63878 19.9883 4.72691 19.903C4.81647 19.816 4.92269 19.7478 5.03925 19.7024C5.15581 19.6571 5.28032 19.6356 5.4054 19.6391C5.52405 19.6332 5.64262 19.6521 5.7535 19.6946C5.86437 19.7371 5.96513 19.8022 6.04924 19.8858C6.13276 19.9749 6.19765 20.0797 6.24016 20.194C6.28267 20.3083 6.30195 20.4299 6.29687 20.5517C6.30101 20.6725 6.2798 20.7928 6.2346 20.9049C6.1894 21.0171 6.1212 21.1186 6.03437 21.2029C5.90741 21.339 5.74172 21.433 5.55953 21.4726C5.37733 21.5121 5.18737 21.4951 5.01513 21.424C4.84289 21.3528 4.69662 21.2309 4.59596 21.0745C4.49531 20.9182 4.4451 20.7349 4.45205 20.5493L4.45701 20.5616ZM5.3856 19.8932C5.32325 19.8906 5.26135 19.9048 5.20644 19.9343C5.15152 19.9638 5.10563 20.0076 5.07359 20.0609C4.99098 20.2046 4.95227 20.3692 4.96217 20.5345C4.95311 20.7057 4.99075 20.8762 5.07111 21.0278C5.10413 21.0828 5.15149 21.128 5.20816 21.1584C5.26484 21.1888 5.32873 21.2033 5.39303 21.2005C5.45338 21.2026 5.51319 21.1886 5.5663 21.16C5.6194 21.1313 5.66387 21.0891 5.69513 21.0377C5.77302 20.8933 5.80904 20.7302 5.79914 20.5665C5.80641 20.3955 5.76885 20.2255 5.69017 20.0732C5.6612 20.018 5.61737 19.9719 5.56358 19.9401C5.50978 19.9083 5.44815 19.892 5.3856 19.8932Z" fill="white"/>
<path d="M7.567 20.6973L7.79728 20.1078L7.81708 20.0584C7.86903 19.9415 7.90405 19.8177 7.92109 19.6909L8.14148 19.7082C8.19595 19.7082 8.23806 19.7082 8.27025 19.7082C8.30244 19.7082 8.34947 19.7082 8.40394 19.7082L8.63425 19.6909V19.8414C8.57695 19.8349 8.51905 19.8461 8.46833 19.8734C8.45385 19.8898 8.44306 19.909 8.43665 19.9299C8.43024 19.9507 8.42839 19.9727 8.43121 19.9943C8.43121 20.0091 8.43121 20.0535 8.43121 20.1275C8.43121 20.2015 8.43119 20.2829 8.44853 20.3742L8.4634 20.5912C8.4634 20.643 8.46338 20.7121 8.47824 20.7984C8.48016 20.9387 8.49674 21.0784 8.52775 21.2153C8.53737 21.236 8.55406 21.2526 8.57482 21.2621C8.60153 21.2729 8.63021 21.2779 8.659 21.2769H8.69615V21.4274C8.60701 21.4274 8.52529 21.4126 8.44853 21.4101H8.25537H8.07709C8.00776 21.4101 7.92852 21.4101 7.82947 21.4274V21.2769H7.85918C7.91045 21.283 7.96222 21.2708 8.00527 21.2424C8.01975 21.2251 8.03053 21.205 8.03692 21.1833C8.04331 21.1617 8.04517 21.139 8.04242 21.1166V21.0105L7.99043 20.1694L7.61899 21.1092C7.58433 21.1931 7.55955 21.2597 7.5447 21.309C7.53121 21.3477 7.52045 21.3872 7.5125 21.4274H7.31442C7.31442 21.3904 7.29954 21.3509 7.28964 21.309C7.27973 21.2671 7.25993 21.2103 7.23517 21.1363L6.8984 20.1497C6.87364 20.3964 6.85631 20.6208 6.84145 20.791C6.8266 20.9612 6.82165 21.0697 6.82165 21.1191C6.81899 21.1418 6.8209 21.1649 6.82728 21.1869C6.83365 21.209 6.84435 21.2295 6.85877 21.2473C6.89897 21.2759 6.94852 21.2882 6.99746 21.2819H7.00985V21.4323L6.78946 21.4126H6.67058C6.63261 21.4126 6.54347 21.42 6.40315 21.4348H6.36353V21.2843H6.40563C6.44166 21.2863 6.47757 21.2786 6.50965 21.2621C6.53517 21.2405 6.55261 21.211 6.55916 21.1783C6.55916 21.1511 6.58145 21.0426 6.60126 20.8527C6.60126 20.7664 6.61859 20.6973 6.62602 20.6455L6.65573 20.3618C6.65573 20.2607 6.67554 20.1768 6.68049 20.1152C6.68544 20.0535 6.68049 20.0116 6.68049 19.9869C6.68359 19.948 6.67213 19.9093 6.6483 19.8784C6.61429 19.855 6.57302 19.8445 6.53192 19.8488H6.48982V19.7008L6.67801 19.7156C6.73497 19.7156 6.78449 19.7156 6.82906 19.7156H6.98506L7.23269 19.6909V19.7107C7.26181 19.8797 7.30915 20.0451 7.37385 20.204C7.46547 20.3914 7.52243 20.5616 7.567 20.6973Z" fill="white"/>
<path d="M8.77295 19.6909L9.02058 19.7082C9.09486 19.7082 9.15923 19.7082 9.21618 19.7082C9.27313 19.7082 9.31028 19.7082 9.37714 19.7082L9.62476 19.6909V19.8389H9.59753C9.55955 19.8361 9.52143 19.842 9.48611 19.8562C9.46348 19.8715 9.44685 19.8942 9.43905 19.9203C9.42752 19.9747 9.42172 20.03 9.42173 20.0856C9.42173 20.167 9.42173 20.2977 9.42173 20.4802V20.6282C9.42173 20.6726 9.42173 20.7294 9.42173 20.7984V20.944C9.41836 21.0039 9.41836 21.064 9.42173 21.124C9.42275 21.1546 9.42945 21.1847 9.44153 21.2128C9.45273 21.235 9.47232 21.2519 9.496 21.2597C9.53383 21.2702 9.57316 21.2744 9.61237 21.272H9.64209V21.4225C9.55294 21.4225 9.46875 21.4077 9.39446 21.4052H9.18399H9.01066L8.73828 21.4249V21.2745H8.77295C8.81299 21.2772 8.85319 21.273 8.89181 21.2621C8.90314 21.2595 8.91362 21.254 8.92228 21.2463C8.93093 21.2385 8.93747 21.2287 8.94132 21.2177C8.97201 21.0552 8.98365 20.8896 8.97599 20.7244V20.3273C8.97599 20.2632 8.97599 20.2188 8.97599 20.1941C8.97944 20.1276 8.97944 20.0609 8.97599 19.9943C8.97381 19.961 8.96541 19.9284 8.95123 19.8981C8.94141 19.8767 8.92365 19.8599 8.90169 19.8512C8.86813 19.8451 8.83375 19.8451 8.80019 19.8512H8.76056L8.77295 19.6909Z" fill="white"/>
<path d="M11.0807 19.7525V19.8289C11.0807 19.898 11.0807 19.9646 11.0807 20.0312C11.0807 20.0978 11.0807 20.1644 11.103 20.2261L10.947 20.2532C10.9454 20.1508 10.9047 20.0529 10.8331 19.9794C10.7955 19.9461 10.7516 19.9207 10.704 19.9046C10.6564 19.8885 10.606 19.882 10.5558 19.8857C10.4818 19.8819 10.4086 19.9027 10.3478 19.9449C10.323 19.963 10.3031 19.9868 10.2897 20.0143C10.2763 20.0418 10.2699 20.0722 10.271 20.1027C10.271 20.194 10.3824 20.2655 10.6028 20.3173H10.64C10.7897 20.3425 10.93 20.4073 11.0461 20.5048C11.0879 20.5482 11.1203 20.5997 11.1411 20.6562C11.162 20.7126 11.171 20.7728 11.1674 20.8328C11.1698 20.92 11.1523 21.0066 11.1163 21.086C11.0802 21.1655 11.0266 21.2358 10.9594 21.2916C10.8021 21.4135 10.6063 21.4755 10.4072 21.4668C10.3149 21.4668 10.2229 21.4577 10.1324 21.4396C10.0467 21.4218 9.96356 21.3936 9.88473 21.3558C9.88473 21.3558 9.88473 21.3336 9.88473 21.3212V21.267C9.88473 21.193 9.88473 21.1165 9.88473 21.04C9.88473 20.9636 9.86492 20.8871 9.85254 20.8106L10.0209 20.7786C10.033 20.9027 10.0822 21.0204 10.1621 21.1165C10.2008 21.1541 10.2471 21.1833 10.2978 21.202C10.3486 21.2207 10.4027 21.2285 10.4567 21.225C10.5346 21.229 10.6118 21.2083 10.6771 21.1658C10.7031 21.1484 10.7243 21.1249 10.739 21.0974C10.7537 21.0699 10.7614 21.0391 10.7613 21.008C10.7613 20.9077 10.6623 20.8312 10.4642 20.7786L10.3775 20.7539C10.2315 20.7226 10.096 20.6547 9.98376 20.5566C9.94506 20.5135 9.91531 20.4632 9.89619 20.4086C9.87706 20.354 9.86896 20.2961 9.87234 20.2384C9.87037 20.1562 9.88717 20.0746 9.92149 19.9998C9.95581 19.9251 10.0068 19.859 10.0704 19.8067C10.2155 19.6892 10.3987 19.6287 10.5855 19.6365C10.6737 19.6362 10.7617 19.6453 10.848 19.6637C10.9294 19.6823 11.0077 19.7122 11.0807 19.7525Z" fill="white"/>
<path d="M11.3681 19.6909L11.6158 19.7082C11.69 19.7082 11.7544 19.7082 11.8114 19.7082C11.8683 19.7082 11.9055 19.7082 11.9723 19.7082L12.2199 19.6909V19.8389H12.1927C12.1547 19.8361 12.1166 19.842 12.0813 19.8562C12.058 19.8709 12.0412 19.8938 12.0342 19.9203C12.0227 19.9747 12.0169 20.03 12.0169 20.0856C12.0169 20.167 12.0169 20.2977 12.0169 20.4802V20.6282C12.0169 20.6726 12.0169 20.7294 12.0169 20.7984V20.944C12.0169 21.0229 12.0169 21.0845 12.0169 21.124C12.0195 21.1546 12.027 21.1846 12.0392 21.2128C12.0504 21.235 12.07 21.2519 12.0936 21.2597C12.1315 21.2702 12.1708 21.2744 12.2101 21.272H12.2398V21.4225C12.1506 21.4225 12.0664 21.4077 11.9921 21.4052H11.7816H11.6083L11.3359 21.4249V21.2745H11.3706C11.4106 21.277 11.4508 21.2728 11.4895 21.2621C11.5006 21.2591 11.5109 21.2535 11.5195 21.2458C11.5281 21.2381 11.5348 21.2285 11.539 21.2177C11.5697 21.0552 11.5813 20.8896 11.5736 20.7244V20.204C11.5736 20.1127 11.5736 20.0486 11.5736 20.0042C11.5702 19.9711 11.5619 19.9386 11.5489 19.908C11.5391 19.8866 11.5213 19.8698 11.4993 19.8611C11.4658 19.855 11.4314 19.855 11.3978 19.8611H11.3582L11.3681 19.6909Z" fill="white"/>
<path d="M12.3957 20.5616C12.3923 20.4391 12.4145 20.3173 12.4609 20.2039C12.5074 20.0905 12.5771 19.988 12.6656 19.903C12.7548 19.8161 12.8606 19.748 12.9767 19.7027C13.0929 19.6573 13.217 19.6357 13.3416 19.6391C13.4607 19.633 13.5797 19.6518 13.691 19.6943C13.8023 19.7368 13.9034 19.802 13.9879 19.8857C14.0714 19.9748 14.1363 20.0796 14.1788 20.194C14.2214 20.3083 14.2406 20.4299 14.2356 20.5517C14.2397 20.6725 14.2185 20.7928 14.1733 20.9049C14.1281 21.017 14.0599 21.1185 13.9731 21.2029C13.8461 21.3389 13.6804 21.433 13.4982 21.4725C13.316 21.512 13.1261 21.4951 12.9538 21.4239C12.7816 21.3528 12.6353 21.2308 12.5347 21.0745C12.434 20.9181 12.3838 20.7348 12.3908 20.5492L12.3957 20.5616ZM13.3243 19.8931C13.2617 19.8909 13.1996 19.9052 13.1443 19.9347C13.0891 19.9641 13.0427 20.0077 13.0098 20.0608C12.9293 20.2053 12.8915 20.3695 12.9009 20.5344C12.8905 20.7058 12.9283 20.8766 13.0098 21.0278C13.0428 21.0828 13.0902 21.1279 13.1469 21.1583C13.2036 21.1887 13.2674 21.2033 13.3317 21.2004C13.3917 21.2026 13.4512 21.1886 13.504 21.16C13.5567 21.1313 13.6007 21.0891 13.6314 21.0376C13.7113 20.8939 13.7482 20.7304 13.7378 20.5665C13.7451 20.3954 13.7076 20.2254 13.6289 20.0732C13.5999 20.0179 13.5561 19.9718 13.5023 19.94C13.4485 19.9082 13.3869 19.892 13.3243 19.8931ZM13.1039 19.4639L13.3961 18.9558L13.6784 19.1112L13.2426 19.5256L13.1039 19.4639Z" fill="white"/>
<path d="M14.3494 19.6909L14.5772 19.7082C14.6292 19.7082 14.6738 19.7082 14.711 19.7082C14.7481 19.7082 14.81 19.7082 14.867 19.7082L15.0576 19.6909C15.0672 19.7263 15.0813 19.7603 15.0997 19.792C15.1343 19.8486 15.1723 19.903 15.2136 19.9548L15.8525 20.791C15.8525 20.7146 15.8525 20.6406 15.8525 20.569V20.2508C15.8525 20.199 15.8525 20.1645 15.8525 20.1472C15.8583 20.0635 15.8464 19.9795 15.8178 19.9006C15.8032 19.8801 15.7832 19.864 15.7601 19.8541C15.737 19.8441 15.7116 19.8405 15.6866 19.8438H15.6395V19.6959L15.798 19.7131C15.85 19.7131 15.907 19.7131 15.9664 19.7131C16.0258 19.7131 16.0803 19.7131 16.1348 19.7131L16.2958 19.6959V19.8438C16.2505 19.8406 16.205 19.8464 16.162 19.8611C16.1496 19.8676 16.1387 19.8767 16.1302 19.8877C16.1216 19.8988 16.1156 19.9116 16.1125 19.9252C16.1025 19.9748 16.0976 20.0252 16.0976 20.0757C16.0976 20.1472 16.0976 20.2977 16.0976 20.5222V20.685C16.0976 20.8083 16.0976 20.9316 16.0976 21.0327V21.309C16.0966 21.3263 16.0966 21.3436 16.0976 21.3608C16.0976 21.383 16.0976 21.4077 16.0976 21.4373H15.7336C15.7228 21.4122 15.7095 21.3883 15.694 21.3657C15.6679 21.3265 15.6398 21.2886 15.6098 21.2523L14.8273 20.236C14.8273 20.3076 14.8273 20.3766 14.8273 20.4457C14.8273 20.5148 14.8273 20.5986 14.8273 20.6924V20.9218C14.8199 21.0209 14.8317 21.1205 14.862 21.2153C14.8756 21.237 14.8952 21.2544 14.9185 21.2654C14.9418 21.2763 14.9677 21.2803 14.9932 21.2769H15.0502V21.4274C14.971 21.4274 14.9016 21.4126 14.8422 21.4101H14.6936H14.5549L14.3494 21.4274V21.2769H14.3989C14.434 21.2799 14.4692 21.2731 14.5005 21.2572C14.5265 21.2428 14.546 21.2189 14.5549 21.1906C14.5787 21.0381 14.5886 20.8837 14.5847 20.7294C14.5847 20.68 14.5847 20.6406 14.5847 20.6134V20.4654C14.5847 20.4235 14.5847 20.3766 14.5847 20.3248V20.0782C14.591 20.0142 14.5781 19.9498 14.5475 19.8932C14.5286 19.8752 14.5059 19.8617 14.481 19.8536C14.4562 19.8455 14.4298 19.843 14.4039 19.8463H14.3469L14.3494 19.6909Z" fill="white"/>
<path d="M17.1055 19.6909L17.3333 19.7082C17.3853 19.7082 17.4299 19.7082 17.4646 19.7082C17.4992 19.7082 17.5636 19.7082 17.6231 19.7082L17.8137 19.6909C17.8232 19.7263 17.8374 19.7603 17.8558 19.792C17.8904 19.8486 17.9284 19.903 17.9697 19.9548L18.6086 20.791V20.569C18.6086 20.5 18.6086 20.4358 18.6086 20.3742V20.1472C18.6148 20.0637 18.6038 19.9798 18.5764 19.9006C18.5614 19.8799 18.541 19.8637 18.5174 19.8538C18.4939 19.8438 18.468 19.8403 18.4427 19.8438H18.3956V19.6959L18.5566 19.7131C18.6086 19.7131 18.6655 19.7131 18.725 19.7131C18.7844 19.7131 18.8389 19.7131 18.8934 19.7131L19.0543 19.6959V19.8438C19.009 19.8406 18.9636 19.8464 18.9206 19.8611C18.9082 19.8676 18.8973 19.8767 18.8887 19.8877C18.8802 19.8988 18.8742 19.9116 18.8711 19.9252C18.8612 19.9748 18.8554 20.0252 18.8537 20.0757C18.8537 20.1472 18.8537 20.2977 18.8537 20.5222V20.685C18.8537 20.8083 18.8537 20.9316 18.8537 21.0327V21.3608C18.8537 21.383 18.8537 21.4077 18.8537 21.4373H18.4897C18.4789 21.4122 18.4656 21.3883 18.4501 21.3657C18.424 21.3265 18.3959 21.2886 18.3659 21.2523L17.5834 20.236C17.5834 20.3076 17.5834 20.3766 17.5834 20.4457V20.9267C17.576 21.0258 17.5878 21.1255 17.6181 21.2202C17.6315 21.2422 17.651 21.2598 17.6744 21.2708C17.6977 21.2817 17.7238 21.2856 17.7494 21.2819H17.8063V21.4323L17.5983 21.4151H17.4497H17.3086L17.1055 21.4323V21.2819H17.155C17.1901 21.2849 17.2252 21.278 17.2566 21.2621C17.282 21.247 17.3013 21.2234 17.3111 21.1955C17.3348 21.043 17.3447 20.8886 17.3408 20.7343C17.3408 20.685 17.3408 20.6455 17.3408 20.6184V20.4704C17.3408 20.4284 17.3408 20.3816 17.3408 20.3298V20.0831C17.3471 20.0191 17.3342 19.9547 17.3036 19.8981C17.2847 19.8802 17.262 19.8666 17.2371 19.8585C17.2123 19.8504 17.1859 19.8479 17.16 19.8512H17.103L17.1055 19.6909Z" fill="white"/>
<path d="M19.9111 19.6687H20.3097C20.4088 19.9672 20.5004 20.2434 20.5896 20.4999C20.6787 20.7565 20.753 20.9587 20.8075 21.1067C20.8204 21.1598 20.8488 21.2079 20.8892 21.2449C20.9314 21.2657 20.9784 21.275 21.0254 21.272V21.4224C20.9362 21.4224 20.852 21.4076 20.7778 21.4052H20.5821H20.3865C20.3122 21.4052 20.2305 21.4052 20.1389 21.4224V21.272H20.1562C20.2014 21.2759 20.2468 21.2674 20.2875 21.2473C20.301 21.237 20.3117 21.2235 20.3187 21.208C20.3256 21.1925 20.3285 21.1754 20.3271 21.1585C20.3289 21.143 20.3289 21.1272 20.3271 21.1117C20.322 21.0915 20.3154 21.0717 20.3073 21.0525L20.2503 20.8847H19.6907C19.6907 20.8847 19.6907 20.9045 19.6758 20.9193C19.6418 20.9912 19.6184 21.0676 19.6065 21.1462C19.6048 21.164 19.6073 21.1819 19.6137 21.1986C19.6202 21.2153 19.6304 21.2303 19.6436 21.2424C19.6848 21.2638 19.7309 21.274 19.7773 21.272V21.4224L19.5297 21.4027H19.4232H19.3044L19.0815 21.4224V21.272C19.1379 21.2713 19.1925 21.2525 19.2372 21.2182C19.2818 21.184 19.3141 21.1362 19.3292 21.0821C19.3292 21.0648 19.344 21.05 19.349 21.0401C19.4455 20.8157 19.5372 20.5912 19.6288 20.3643C19.7204 20.1374 19.8244 19.9055 19.9111 19.6687ZM19.9903 20.0634L19.7773 20.6405H19.869H20.1735L19.9903 20.0634Z" fill="white"/>
<path d="M22.64 19.755V19.829C22.64 19.903 22.64 19.9795 22.64 20.0535C22.64 20.1275 22.64 20.2015 22.6598 20.273L22.5137 20.3051C22.5055 20.1938 22.4582 20.089 22.38 20.0091C22.2966 19.9387 22.1895 19.9026 22.0804 19.9079C22.0139 19.9049 21.9477 19.9179 21.8873 19.9458C21.8269 19.9737 21.7743 20.0157 21.7337 20.0683C21.6421 20.1995 21.5976 20.3577 21.6074 20.5172C21.5984 20.6919 21.6462 20.8649 21.7436 21.0105C21.7872 21.0682 21.8443 21.1146 21.9098 21.1455C21.9754 21.1764 22.0475 21.1911 22.12 21.1881C22.218 21.191 22.3141 21.1606 22.3924 21.1018C22.4767 21.0317 22.5422 20.9419 22.583 20.8403L22.7167 20.9069C22.6821 20.9834 22.6524 21.0598 22.6276 21.1314C22.6028 21.2029 22.5781 21.2744 22.5583 21.346C22.4631 21.383 22.3655 21.4135 22.2661 21.4372C22.185 21.4566 22.1019 21.4666 22.0185 21.4668C21.8961 21.4727 21.7738 21.4539 21.6589 21.4115C21.544 21.3691 21.4389 21.3041 21.3499 21.2202C21.1831 21.0391 21.0927 20.8011 21.0973 20.5554C21.1019 20.3098 21.2012 20.0753 21.3746 19.9005C21.4708 19.8125 21.5836 19.7443 21.7065 19.6998C21.8293 19.6554 21.9597 19.6356 22.0902 19.6415C22.1792 19.6421 22.268 19.6512 22.3552 19.6687C22.4528 19.688 22.5482 19.7169 22.64 19.755Z" fill="white"/>
<path d="M22.8232 19.6909L23.0708 19.7082C23.1451 19.7082 23.2094 19.7082 23.2639 19.7082C23.3184 19.7082 23.3605 19.7082 23.4274 19.7082L23.675 19.6909V19.8389H23.6477C23.6098 19.8361 23.5716 19.842 23.5363 19.8562C23.5131 19.8709 23.4962 19.8938 23.4893 19.9203C23.4777 19.9747 23.4719 20.03 23.4719 20.0856C23.4719 20.167 23.4719 20.2977 23.4719 20.4802V20.6282C23.4719 20.6726 23.4719 20.7294 23.4719 20.7984V20.944C23.4719 21.0229 23.4719 21.0845 23.4719 21.124C23.4745 21.1546 23.4821 21.1846 23.4942 21.2128C23.4994 21.2241 23.5069 21.2341 23.5163 21.2421C23.5257 21.2502 23.5368 21.2562 23.5487 21.2597C23.5865 21.2702 23.6259 21.2744 23.6651 21.272H23.6948V21.4225C23.6056 21.4225 23.5214 21.4077 23.4472 21.4052H23.2392H23.0658L22.7935 21.4249V21.2745H22.8281C22.8681 21.277 22.9083 21.2728 22.947 21.2621C22.9581 21.2591 22.9684 21.2535 22.977 21.2458C22.9856 21.2381 22.9923 21.2285 22.9965 21.2177C23.0271 21.0552 23.0379 20.8896 23.0287 20.7244V20.495C23.0287 20.4556 23.0287 20.4038 23.0287 20.3372V20.204C23.0321 20.1374 23.0321 20.0707 23.0287 20.0042C23.0271 19.971 23.0196 19.9385 23.0064 19.908C23.0014 19.8971 22.9942 19.8873 22.9852 19.8792C22.9763 19.8712 22.9658 19.865 22.9544 19.8611C22.9217 19.8545 22.888 19.8545 22.8554 19.8611H22.8157L22.8232 19.6909Z" fill="white"/>
<path d="M23.8508 20.5616C23.8473 20.4391 23.8695 20.3173 23.916 20.2039C23.9625 20.0905 24.0322 19.988 24.1207 19.903C24.2098 19.816 24.3156 19.7478 24.4318 19.7025C24.5479 19.6571 24.672 19.6356 24.7967 19.6391C24.9157 19.6333 25.0346 19.6523 25.1459 19.6947C25.2572 19.7372 25.3583 19.8022 25.443 19.8857C25.5265 19.9749 25.5914 20.0796 25.6339 20.194C25.6764 20.3083 25.6957 20.4299 25.6906 20.5517C25.6942 20.6724 25.6727 20.7925 25.6275 20.9046C25.5824 21.0166 25.5145 21.1182 25.4281 21.2029C25.3012 21.3389 25.1355 21.433 24.9533 21.4725C24.7711 21.512 24.5811 21.4951 24.4089 21.4239C24.2367 21.3528 24.0904 21.2308 23.9898 21.0745C23.8891 20.9181 23.8389 20.7349 23.8459 20.5492L23.8508 20.5616ZM24.7794 19.8931C24.7167 19.8909 24.6546 19.9052 24.5994 19.9347C24.5441 19.9641 24.4977 20.0077 24.4649 20.0609C24.3832 20.2048 24.3453 20.3694 24.3559 20.5344C24.3456 20.7058 24.3833 20.8766 24.4649 21.0278C24.4977 21.083 24.545 21.1283 24.6018 21.1587C24.6585 21.1891 24.7225 21.2035 24.7868 21.2004C24.8468 21.2026 24.9063 21.1886 24.959 21.16C25.0118 21.1313 25.0558 21.0891 25.0864 21.0376C25.1663 20.8939 25.2033 20.7305 25.1929 20.5665C25.2002 20.3954 25.1626 20.2254 25.084 20.0732C25.055 20.018 25.0111 19.9719 24.9573 19.9401C24.9035 19.9083 24.8419 19.892 24.7794 19.8931Z" fill="white"/>
<path d="M25.8145 19.6909L26.0423 19.7082C26.0943 19.7082 26.1389 19.7082 26.176 19.7082C26.2132 19.7082 26.2751 19.7082 26.332 19.7082L26.5227 19.6909C26.5322 19.7263 26.5464 19.7603 26.5648 19.792C26.5994 19.8486 26.6374 19.903 26.6787 19.9548L27.3176 20.791V20.569C27.3176 20.5 27.3176 20.4358 27.3176 20.3742V20.2508C27.3176 20.199 27.3176 20.1645 27.3176 20.1472C27.3233 20.0635 27.3115 19.9795 27.2829 19.9006C27.2679 19.8799 27.2475 19.8637 27.2239 19.8538C27.2004 19.8438 27.1745 19.8403 27.1492 19.8438H27.1021V19.6959L27.2631 19.7131C27.3151 19.7131 27.3721 19.7131 27.4315 19.7131C27.4909 19.7131 27.5454 19.7131 27.5998 19.7131L27.7608 19.6959V19.8438C27.7155 19.8406 27.67 19.8464 27.6271 19.8611C27.6146 19.8676 27.6038 19.8767 27.5952 19.8877C27.5867 19.8988 27.5807 19.9116 27.5776 19.9252C27.5677 19.9748 27.5619 20.0252 27.5602 20.0757C27.5602 20.1472 27.5602 20.2977 27.5602 20.5222V20.685C27.5602 20.8083 27.5602 20.9316 27.5602 21.0327V21.309C27.5592 21.3263 27.5592 21.3436 27.5602 21.3608C27.5602 21.383 27.5602 21.4077 27.5602 21.4373H27.1962C27.1854 21.4122 27.1721 21.3883 27.1566 21.3657C27.1305 21.3265 27.1024 21.2886 27.0724 21.2523L26.2899 20.236C26.2899 20.3076 26.2899 20.3766 26.2899 20.4457C26.2899 20.5148 26.2899 20.5986 26.2899 20.6924V20.9218C26.2825 21.0209 26.2943 21.1205 26.3246 21.2153C26.3382 21.237 26.3578 21.2544 26.3811 21.2654C26.4044 21.2763 26.4303 21.2803 26.4558 21.2769H26.5128V21.4274C26.4335 21.4274 26.3642 21.4126 26.3048 21.4101H26.1562H26.0175C25.9581 21.4101 25.8913 21.4101 25.812 21.4274V21.2769H25.8615C25.8966 21.2799 25.9317 21.2731 25.9631 21.2572C25.9891 21.2428 26.0086 21.2189 26.0175 21.1906C26.0412 21.0381 26.0512 20.8837 26.0472 20.7294C26.0472 20.68 26.0472 20.6406 26.0472 20.6134V20.4654C26.0472 20.4235 26.0472 20.3766 26.0472 20.3248V20.0782C26.0536 20.0142 26.0407 19.9498 26.0101 19.8932C25.9912 19.8752 25.9685 19.8617 25.9436 19.8536C25.9188 19.8455 25.8924 19.843 25.8665 19.8463H25.8145V19.6909Z" fill="white"/>
<path d="M28.61 19.6687H29.0087C29.1078 19.9672 29.2019 20.2434 29.2885 20.4999C29.3752 20.7565 29.452 20.9587 29.5064 21.1067C29.5204 21.1594 29.5487 21.2072 29.5881 21.2449C29.6303 21.2657 29.6773 21.275 29.7243 21.272V21.4224C29.6352 21.4224 29.5535 21.4076 29.4767 21.4052H29.2811H29.0879C29.0112 21.4052 28.9295 21.4052 28.8403 21.4224V21.272H28.8552C28.9004 21.2759 28.9458 21.2674 28.9864 21.2473C29 21.237 29.0107 21.2235 29.0176 21.208C29.0246 21.1925 29.0274 21.1754 29.026 21.1585C29.0279 21.143 29.0279 21.1272 29.026 21.1117C29.0209 21.0915 29.0143 21.0717 29.0062 21.0525L28.9493 20.8847H28.3897C28.3859 20.8967 28.3809 20.9083 28.3748 20.9193C28.3407 20.9912 28.3174 21.0676 28.3055 21.1462C28.3038 21.164 28.3063 21.1819 28.3127 21.1986C28.3191 21.2153 28.3294 21.2303 28.3426 21.2424C28.3838 21.2638 28.4299 21.274 28.4763 21.272V21.4224L28.2287 21.4027H28.1222H28.0058L27.783 21.4224V21.272C27.8391 21.2706 27.8934 21.2514 27.9379 21.2173C27.9824 21.1831 28.0149 21.1358 28.0306 21.0821L28.0479 21.0401C28.1445 20.8157 28.2386 20.5912 28.3277 20.3643C28.4169 20.1374 28.5234 19.9055 28.61 19.6687ZM28.6893 20.0634L28.4763 20.6405H28.5679H28.8725L28.6893 20.0634Z" fill="white"/>
<path d="M29.8186 19.6908H29.9325C30.0761 19.7007 30.1727 19.7056 30.2222 19.7056C30.2965 19.7056 30.4253 19.7056 30.6036 19.6859H30.6704V19.8388H30.6209C30.5972 19.8359 30.573 19.8391 30.5509 19.8482C30.5288 19.8573 30.5094 19.8719 30.4946 19.8906C30.4663 19.9653 30.4553 20.0454 30.4624 20.125V20.236C30.4624 20.2902 30.4624 20.3371 30.4624 20.3716V21.1634H30.5788H30.7422C30.8372 21.1719 30.9322 21.1485 31.0121 21.0968C31.0824 21.0301 31.1315 20.9444 31.1533 20.8501L31.2994 20.8995C31.2722 20.9883 31.2499 21.0746 31.23 21.1609C31.2102 21.2473 31.1929 21.3287 31.1805 21.4076L30.6655 21.3879H30.3832H30.1355L29.7839 21.4076V21.2571H29.826C29.864 21.26 29.9021 21.2541 29.9375 21.2399C29.9621 21.2245 29.9805 21.2009 29.9895 21.1733C29.9993 21.1279 30.0043 21.0816 30.0043 21.0351C30.0043 20.9685 30.0043 20.823 30.0043 20.5936V20.4506C30.0043 20.4111 30.0043 20.3618 30.0043 20.3026V20.1792C30.0105 20.0845 30.0004 19.9894 29.9746 19.898C29.9637 19.8766 29.9465 19.859 29.9252 19.8475C29.904 19.836 29.8797 19.8313 29.8557 19.8339H29.8037L29.8186 19.6908Z" fill="white"/>
<path d="M0.0219727 23.7978H0.0764728C0.100615 23.8005 0.125054 23.7964 0.146963 23.786C0.168873 23.7755 0.187359 23.7591 0.200285 23.7386C0.230196 23.6328 0.241066 23.5225 0.232447 23.413V22.5916C0.23838 22.53 0.225453 22.4681 0.195327 22.414C0.17922 22.3965 0.159099 22.383 0.136686 22.3749C0.114273 22.3667 0.0902219 22.3641 0.0665582 22.3671H0.02693V22.2142L0.247319 22.2339H0.405802C0.500956 22.233 0.596007 22.2272 0.690575 22.2167C0.807783 22.2068 0.890325 22.2019 0.938199 22.2019C1.08636 22.1943 1.23327 22.2322 1.35915 22.3104C1.40782 22.3423 1.44762 22.386 1.47489 22.4373C1.50216 22.4886 1.51601 22.5459 1.51515 22.6039C1.51529 22.6944 1.48278 22.782 1.42353 22.8506C1.3506 22.9288 1.25842 22.9866 1.15611 23.0183C1.28094 23.0278 1.39961 23.0761 1.49535 23.1564C1.53385 23.1953 1.56383 23.2416 1.58343 23.2925C1.60304 23.3435 1.61183 23.3979 1.60925 23.4524C1.60979 23.5245 1.59132 23.5955 1.55569 23.6583C1.52005 23.721 1.46852 23.7734 1.40621 23.8101C1.24253 23.9091 1.0526 23.9563 0.861421 23.9458C0.821801 23.9458 0.747505 23.9458 0.636075 23.9285C0.524644 23.9112 0.430548 23.9137 0.358737 23.9137H0.212648L0.0219727 23.9285V23.7978ZM0.668267 22.9542H0.737609H0.933241C0.973905 22.9237 1.00766 22.8851 1.0323 22.8407C1.054 22.7988 1.06505 22.7522 1.06449 22.7051C1.06705 22.6703 1.06217 22.6354 1.05022 22.6027C1.03827 22.57 1.01951 22.5401 0.995147 22.5151C0.939605 22.4677 0.867587 22.4437 0.794557 22.4485H0.71781H0.658383V22.7371C0.658383 22.7618 0.658383 22.7963 0.658383 22.8432L0.668267 22.9542ZM0.668267 23.6942C0.695672 23.7038 0.723853 23.7113 0.752481 23.7164C0.784618 23.719 0.816921 23.719 0.849058 23.7164C0.887495 23.7183 0.925921 23.7126 0.962078 23.6994C0.998236 23.6863 1.03138 23.666 1.05953 23.6399C1.11261 23.5829 1.14211 23.508 1.14211 23.4302C1.14211 23.3525 1.11261 23.2776 1.05953 23.2206C0.990024 23.1639 0.901511 23.1357 0.811908 23.1416H0.683139H0.668267C0.668267 23.2329 0.668267 23.3266 0.668267 23.4253V23.672V23.6942Z" fill="white"/>
<path d="M2.51055 22.1945H2.90922C3.00579 22.4904 3.09989 22.7692 3.18904 23.0257C3.27818 23.2822 3.34999 23.4845 3.40695 23.6325C3.42003 23.6842 3.44748 23.7312 3.48617 23.7681C3.52779 23.7908 3.57507 23.8011 3.62238 23.7977V23.9482C3.53323 23.9482 3.45152 23.9334 3.37476 23.9285H3.1816H2.986C2.90924 23.9285 2.82752 23.9285 2.73838 23.9482V23.7977H2.75322C2.7992 23.8015 2.84536 23.793 2.88694 23.7731C2.90005 23.7625 2.91029 23.7489 2.91678 23.7334C2.92326 23.7179 2.92579 23.701 2.92409 23.6843C2.92594 23.6687 2.92594 23.653 2.92409 23.6374C2.92028 23.6172 2.91446 23.5973 2.90674 23.5782L2.84732 23.4105H2.29016V23.445C2.25577 23.517 2.23159 23.5934 2.21834 23.6719C2.21646 23.6894 2.21888 23.707 2.22535 23.7234C2.23182 23.7397 2.24215 23.7542 2.25549 23.7657C2.29613 23.7887 2.3425 23.7999 2.38922 23.7977V23.9482L2.15396 23.9285C2.1185 23.9263 2.08295 23.9263 2.0475 23.9285C2.00873 23.9263 1.96988 23.9263 1.93112 23.9285L1.70825 23.9482V23.7977C1.76431 23.796 1.81837 23.7766 1.86281 23.7426C1.90724 23.7085 1.93981 23.6613 1.95588 23.6078C1.95588 23.5881 1.97072 23.5758 1.9732 23.5659C2.06977 23.3414 2.16387 23.117 2.25301 22.89C2.34216 22.6631 2.42388 22.4239 2.51055 22.1945ZM2.5873 22.5866L2.37435 23.1663H2.78541L2.5873 22.5866Z" fill="white"/>
<path d="M3.66218 22.2141L3.88998 22.2338H4.02123H4.17971C4.23914 22.2338 4.30105 22.2338 4.37038 22.2141C4.3784 22.25 4.39262 22.2842 4.41246 22.3152C4.44627 22.3731 4.48437 22.4283 4.52639 22.4805L5.16277 23.3167C5.16277 23.2377 5.16277 23.1638 5.16277 23.0947V22.8974C5.16277 22.8678 5.16277 22.8258 5.16277 22.774V22.6704C5.17021 22.5867 5.15835 22.5023 5.1281 22.4238C5.11377 22.4029 5.09396 22.3863 5.07082 22.3759C5.04767 22.3654 5.0221 22.3615 4.99688 22.3646H4.94982V22.2166C5.00429 22.2166 5.0563 22.2314 5.1083 22.2363H5.27914H5.44506C5.49954 22.2363 5.55403 22.2363 5.6085 22.2166V22.3646C5.56325 22.3622 5.51792 22.368 5.47478 22.3818C5.45007 22.3966 5.43228 22.4206 5.42526 22.4484C5.41517 22.4972 5.40935 22.5467 5.40791 22.5964C5.40791 22.6704 5.40791 22.8209 5.40791 23.0454V23.2057C5.40791 23.3315 5.40791 23.4523 5.40791 23.5559C5.40791 23.6595 5.40791 23.7557 5.40791 23.8297C5.40791 23.8421 5.40791 23.8593 5.40791 23.884C5.40791 23.9087 5.40791 23.9309 5.40791 23.9605H5.04144C5.03106 23.9348 5.01864 23.9101 5.00429 23.8865C4.98695 23.8618 4.95972 23.8223 4.9201 23.773L4.1376 22.7592C4.1376 22.8283 4.1376 22.8998 4.1376 22.9689V23.4622C4.12982 23.5612 4.14074 23.6608 4.16979 23.7557C4.18361 23.7773 4.20328 23.7945 4.2265 23.8054C4.24972 23.8163 4.27556 23.8205 4.30104 23.8174H4.36047V23.9679L4.15247 23.9481H4.00143H3.86274L3.65971 23.9679V23.8174H3.70922C3.74417 23.8191 3.77902 23.8124 3.81075 23.7977C3.83541 23.7822 3.85381 23.7587 3.86274 23.7311C3.88919 23.5788 3.89998 23.4243 3.89494 23.2698C3.89494 23.218 3.89494 23.181 3.89494 23.1539V23.0034V22.8653C3.89494 22.8135 3.89494 22.7272 3.89494 22.6186C3.9024 22.5551 3.88846 22.4909 3.85531 22.4361C3.8367 22.4176 3.81411 22.4035 3.78923 22.3949C3.76435 22.3864 3.73783 22.3836 3.7117 22.3868H3.65723L3.66218 22.2141Z" fill="white"/>
<path d="M7.25495 22.2783V22.3523C7.25495 22.4288 7.25495 22.5028 7.25495 22.5768C7.25495 22.6508 7.26732 22.7272 7.27723 22.7988L7.13114 22.8308C7.12315 22.719 7.07476 22.6139 6.99493 22.5348C6.9118 22.4641 6.80452 22.4279 6.69532 22.4337C6.62882 22.4305 6.56252 22.4434 6.50213 22.4713C6.44175 22.4992 6.38907 22.5413 6.34864 22.594C6.25896 22.7261 6.21544 22.8838 6.22483 23.043C6.21473 23.2178 6.26256 23.3912 6.361 23.5363C6.43704 23.6303 6.5461 23.692 6.66609 23.7089C6.78608 23.7259 6.90806 23.6968 7.00733 23.6275C7.09241 23.5582 7.15806 23.4681 7.19797 23.3661L7.33418 23.4327C7.29951 23.5091 7.2698 23.5831 7.24256 23.6571C7.21532 23.7311 7.1955 23.8002 7.17569 23.8717C7.0801 23.9076 6.98256 23.9381 6.88351 23.963C6.80241 23.9824 6.71931 23.9923 6.63589 23.9926C6.51353 23.9984 6.39124 23.9795 6.27636 23.9371C6.16149 23.8947 6.05636 23.8297 5.96729 23.7459C5.80057 23.5649 5.71016 23.3269 5.71477 23.0812C5.71938 22.8355 5.81865 22.6011 5.99204 22.4263C6.08798 22.3386 6.20036 22.2705 6.32273 22.2261C6.44511 22.1816 6.57507 22.1617 6.7052 22.1673C6.88812 22.1681 7.06908 22.205 7.2376 22.2758L7.25495 22.2783Z" fill="white"/>
<path d="M8.18357 22.1945H8.58224C8.67881 22.4904 8.77291 22.7692 8.86205 23.0257C8.9512 23.2822 9.02301 23.4845 9.07996 23.6325C9.09304 23.6842 9.12049 23.7312 9.15919 23.7681C9.20081 23.7908 9.24809 23.8011 9.29539 23.7977V23.9482C9.20625 23.9482 9.12453 23.9334 9.04777 23.9285H8.85462H8.65899C8.58222 23.9285 8.50051 23.9285 8.41136 23.9482V23.7977H8.42623C8.47142 23.8017 8.51683 23.7931 8.55748 23.7731C8.5714 23.7631 8.58241 23.7496 8.58937 23.734C8.59633 23.7184 8.59898 23.7013 8.59708 23.6843C8.59892 23.6687 8.59892 23.653 8.59708 23.6374C8.59708 23.6201 8.59709 23.5979 8.57976 23.5782L8.52033 23.4105H7.9607L7.94831 23.445C7.9127 23.5165 7.8885 23.5931 7.87652 23.6719C7.87464 23.6894 7.87703 23.707 7.8835 23.7234C7.88997 23.7397 7.9003 23.7542 7.91364 23.7657C7.95427 23.7887 8.00064 23.7999 8.04736 23.7977V23.9482L7.79974 23.9285C7.76428 23.9263 7.72871 23.9263 7.69325 23.9285C7.65448 23.9263 7.61563 23.9263 7.57687 23.9285L7.354 23.9482V23.7977C7.41006 23.796 7.46415 23.7766 7.50859 23.7426C7.55302 23.7085 7.58556 23.6613 7.60163 23.6078C7.60163 23.5881 7.6165 23.5758 7.61898 23.5659C7.71555 23.3414 7.80965 23.117 7.89879 22.89C7.98794 22.6631 8.0969 22.4239 8.18357 22.1945ZM8.26031 22.5866L8.04736 23.1663H8.44603L8.26031 22.5866Z" fill="white"/>
<path d="M9.37478 23.7978H9.41441C9.44641 23.8028 9.47899 23.8028 9.51098 23.7978C9.53157 23.7892 9.54829 23.7734 9.55802 23.7534C9.57043 23.7201 9.57793 23.6852 9.5803 23.6498C9.5803 23.6029 9.5803 23.5191 9.5803 23.4031V23.0085C9.5803 22.9616 9.5803 22.9024 9.5803 22.8309C9.5803 22.7594 9.5803 22.71 9.5803 22.6829C9.58592 22.5992 9.57414 22.5152 9.54566 22.4362C9.53284 22.4155 9.51445 22.3987 9.49258 22.3878C9.4707 22.3769 9.4462 22.3723 9.42184 22.3746H9.36982V22.2266C9.43668 22.2266 9.50107 22.2414 9.56298 22.2463H9.74869C9.83784 22.2463 9.94681 22.2463 10.0731 22.2291L10.3207 22.2143C10.476 22.2042 10.6301 22.2458 10.759 22.3326C10.8414 22.4039 10.8947 22.5027 10.9089 22.6104C10.923 22.7182 10.897 22.8273 10.8358 22.9172C10.7689 22.9998 10.6843 23.0664 10.5881 23.1121L10.7664 23.4303C10.8201 23.5374 10.8866 23.6376 10.9645 23.7287C10.9852 23.7518 11.0103 23.7705 11.0384 23.7836C11.0665 23.7967 11.0969 23.8041 11.1279 23.8052H11.1428H11.1725V23.9655H11.1131H10.8828C10.7726 23.9714 10.6624 23.952 10.5609 23.9088C10.4826 23.8684 10.4218 23.8008 10.39 23.7189C10.3677 23.6769 10.3356 23.6005 10.291 23.4944C10.2595 23.4098 10.2223 23.3274 10.1796 23.2478H10.1102H10.0087V23.5191C10.0006 23.593 10.0117 23.6677 10.0409 23.7361C10.056 23.7528 10.0749 23.7655 10.096 23.7733C10.1172 23.781 10.1399 23.7835 10.1622 23.7805H10.1944V23.9335L9.93193 23.9113H9.7908C9.74623 23.9113 9.69422 23.9113 9.63232 23.9113L9.35498 23.931L9.37478 23.7978ZM10.0285 23.0578H10.1622H10.234H10.3133C10.3599 23.0176 10.3985 22.9691 10.4272 22.9148C10.4503 22.861 10.4621 22.8031 10.4619 22.7446C10.464 22.7053 10.4575 22.666 10.443 22.6294C10.4285 22.5927 10.4062 22.5597 10.3777 22.5324C10.3128 22.4781 10.2295 22.4507 10.1449 22.456H10.0954H10.0236C10.0236 22.5004 10.0236 22.5448 10.0236 22.5867V23.0504L10.0285 23.0578Z" fill="white"/>
<path d="M11.2665 22.2141L11.5141 22.2338H11.7072H11.8682L12.1307 22.2141V22.3621H12.1009C12.0636 22.3604 12.0264 22.3672 11.992 22.3818C11.9802 22.3888 11.97 22.3981 11.9619 22.4091C11.9538 22.4201 11.948 22.4327 11.9449 22.446C11.9321 22.5001 11.9255 22.5556 11.9251 22.6112C11.9251 22.6926 11.9251 22.8234 11.9251 23.0059V23.3241C11.9251 23.3931 11.9251 23.4425 11.9251 23.4671C11.9217 23.5279 11.9217 23.5889 11.9251 23.6497C11.9277 23.6803 11.9353 23.7103 11.9474 23.7385C11.9525 23.7494 11.9597 23.7592 11.9686 23.7672C11.9775 23.7753 11.988 23.7814 11.9994 23.7853C12.0389 23.7905 12.0788 23.7905 12.1183 23.7853H12.1455V23.9358C12.0564 23.9358 11.9722 23.921 11.8979 23.9161H11.6874H11.5141C11.4447 23.9161 11.3531 23.9161 11.2417 23.9358V23.7853H11.2788C11.3174 23.7909 11.3566 23.7909 11.3952 23.7853C11.4067 23.7823 11.4173 23.7767 11.4263 23.769C11.4353 23.7613 11.4424 23.7517 11.4472 23.7409C11.4764 23.5782 11.4871 23.4127 11.4794 23.2476V22.8604C11.4794 22.7962 11.4794 22.7518 11.4794 22.7272C11.4829 22.6606 11.4829 22.5939 11.4794 22.5274C11.4766 22.4944 11.4691 22.462 11.4571 22.4312C11.4456 22.4102 11.4273 22.3936 11.4051 22.3843C11.3734 22.373 11.3398 22.368 11.3061 22.3695H11.2665V22.2141Z" fill="white"/>
<path d="M13.0246 22.1945H13.4332C13.5323 22.4904 13.6239 22.7692 13.713 23.0257C13.8022 23.2822 13.874 23.4845 13.9309 23.6325C13.9437 23.6849 13.9722 23.7322 14.0126 23.7681C14.0532 23.7911 14.0998 23.8015 14.1464 23.7977H14.1588V23.9482C14.0696 23.9482 13.9854 23.9334 13.9111 23.9285H13.7155H13.5199C13.4456 23.9285 13.3614 23.9285 13.2722 23.9482V23.7977H13.2871C13.3331 23.8021 13.3794 23.7936 13.4208 23.7731C13.4339 23.7625 13.4442 23.7489 13.4507 23.7334C13.4572 23.7179 13.4597 23.701 13.458 23.6843C13.4588 23.6687 13.4588 23.653 13.458 23.6374C13.458 23.6201 13.458 23.5979 13.4382 23.5782L13.3812 23.4105H12.8216C12.8153 23.4214 12.8103 23.433 12.8067 23.445C12.7723 23.517 12.7482 23.5934 12.7349 23.6719C12.733 23.6894 12.7354 23.707 12.7419 23.7234C12.7484 23.7397 12.7587 23.7542 12.772 23.7657C12.8134 23.7892 12.8607 23.8003 12.9082 23.7977V23.9482L12.6606 23.9285C12.6243 23.9263 12.5879 23.9263 12.5516 23.9285C12.5129 23.9263 12.474 23.9263 12.4353 23.9285L12.2124 23.9482V23.7977C12.2685 23.796 12.3225 23.7766 12.367 23.7426C12.4114 23.7085 12.444 23.6613 12.46 23.6078C12.4657 23.5934 12.4723 23.5794 12.4799 23.5659C12.5764 23.3414 12.6681 23.117 12.7597 22.89C12.8513 22.6631 12.9379 22.4239 13.0246 22.1945ZM13.1039 22.5866L12.8884 23.1663H13.2871L13.1039 22.5866Z" fill="white"/>
<path d="M14.8867 22.2141C14.961 22.2141 15.0353 22.2289 15.1046 22.2338H15.3126H15.5008L15.7484 22.2141V22.3621C15.7084 22.36 15.6685 22.3676 15.6321 22.3843C15.6207 22.3917 15.6114 22.402 15.6053 22.4142C15.5993 22.4263 15.5965 22.4398 15.5974 22.4534C15.5944 22.4689 15.5944 22.4848 15.5974 22.5002C15.6093 22.5324 15.6234 22.5637 15.6395 22.594L15.8351 23.0034C15.8623 22.9442 15.8995 22.8653 15.9466 22.7691C16.0017 22.6701 16.045 22.565 16.0753 22.4558C16.0769 22.4421 16.0748 22.4282 16.0691 22.4157C16.0635 22.4031 16.0545 22.3922 16.0431 22.3843C16.009 22.3662 15.9702 22.3585 15.9317 22.3621V22.2141H16.0109C16.1248 22.2141 16.2016 22.2314 16.2586 22.2314C16.3155 22.2314 16.3774 22.2314 16.5062 22.2141H16.5854V22.3621H16.5532C16.4814 22.3621 16.4071 22.4361 16.3279 22.5841C16.313 22.6088 16.3031 22.631 16.2957 22.6458L15.9688 23.255V23.5757C15.9621 23.6378 15.9742 23.7005 16.0035 23.7557C16.02 23.7735 16.0405 23.787 16.0634 23.7952C16.0862 23.8033 16.1107 23.8059 16.1348 23.8026H16.1867V23.9531C16.0778 23.9531 15.9887 23.9358 15.9193 23.9333H15.7484H15.5726C15.5008 23.9333 15.4092 23.9333 15.2953 23.9531V23.8026H15.3523C15.3763 23.8059 15.4008 23.8033 15.4236 23.7952C15.4465 23.787 15.467 23.7735 15.4835 23.7557C15.5138 23.7008 15.5268 23.6381 15.5207 23.5757V23.2698L15.1343 22.5668L15.1145 22.5274C15.0551 22.4188 14.9882 22.3646 14.9189 22.3646H14.8942L14.8867 22.2141Z" fill="white"/>
<path d="M17.3779 23.9482V23.7953H17.4274C17.4614 23.7979 17.4955 23.7919 17.5265 23.778C17.5499 23.7619 17.5674 23.7385 17.576 23.7114C17.5938 23.5682 17.6005 23.4239 17.5958 23.2798V22.6705C17.6046 22.5788 17.5937 22.4863 17.5636 22.3992C17.55 22.3804 17.5315 22.3657 17.5101 22.3566C17.4888 22.3475 17.4653 22.3443 17.4423 22.3474H17.3878V22.1994L17.6354 22.2191H17.7642C17.8434 22.2191 17.945 22.2191 18.0688 22.2018C18.1926 22.1846 18.2817 22.187 18.3164 22.187C18.5669 22.1737 18.8128 22.2577 19.0023 22.4214C19.0865 22.5034 19.1522 22.6024 19.1949 22.7117C19.2376 22.821 19.2564 22.9382 19.2499 23.0553C19.2544 23.1748 19.2324 23.2938 19.1853 23.4038C19.1382 23.5139 19.0672 23.6121 18.9776 23.6917C18.7747 23.8622 18.5147 23.9503 18.2495 23.9383C18.1967 23.9383 18.1142 23.9334 18.0019 23.9235C17.8954 23.9235 17.8162 23.9087 17.7543 23.9087H17.5909L17.3779 23.9482ZM18.0539 23.6769C18.096 23.6769 18.1332 23.6917 18.1678 23.6966H18.2644C18.3334 23.7008 18.4025 23.6889 18.4661 23.662C18.5297 23.635 18.5861 23.5936 18.6309 23.5412C18.7245 23.4127 18.77 23.2556 18.7597 23.0972C18.7696 22.9263 18.7197 22.7571 18.6185 22.6187C18.5725 22.5614 18.5135 22.5158 18.4464 22.4858C18.3792 22.4558 18.3058 22.4422 18.2322 22.446H18.1505L18.0564 22.4584C18.0564 22.5669 18.0564 22.6779 18.0564 22.7938V23.4993C18.0539 23.5979 18.0539 23.6571 18.0539 23.6769Z" fill="white"/>
<path d="M19.406 22.2141C19.5273 22.2141 19.6536 22.2289 19.7527 22.2338H20.0523H20.399L20.815 22.219C20.815 22.2955 20.815 22.372 20.815 22.4509C20.815 22.5298 20.8274 22.6063 20.8397 22.6976L20.7085 22.7222C20.7028 22.6415 20.6654 22.5661 20.6045 22.5126C20.5174 22.4657 20.4182 22.446 20.3197 22.4558H20.1786H20.0449C20.0449 22.4879 20.0449 22.52 20.0449 22.557V22.9664H20.3247C20.3919 22.9745 20.46 22.9624 20.5203 22.9319C20.5383 22.915 20.5521 22.8942 20.5607 22.8711C20.5693 22.848 20.5724 22.8232 20.5698 22.7987L20.6936 22.816C20.6936 22.8949 20.6936 22.9566 20.6936 23.0034C20.6936 23.0503 20.6936 23.0898 20.6936 23.1243C20.6936 23.1588 20.6936 23.2032 20.6936 23.2846C20.6936 23.3118 20.6936 23.3315 20.6936 23.3463L20.5674 23.3611V23.3413C20.5706 23.3153 20.5678 23.2889 20.5592 23.2641C20.5506 23.2393 20.5364 23.2168 20.5178 23.1983C20.4508 23.1663 20.3763 23.1535 20.3024 23.1613H20.0548V23.5806C20.0548 23.6176 20.0548 23.6546 20.0548 23.6965H20.2058H20.3346C20.4528 23.7075 20.5718 23.6862 20.6788 23.6349C20.752 23.5697 20.803 23.4835 20.8249 23.3882L20.9611 23.4351C20.9363 23.5239 20.914 23.6077 20.8942 23.6817C20.8744 23.7557 20.8571 23.8421 20.8447 23.9284L20.3073 23.9087H19.9978H19.7353L19.3887 23.9284V23.7779H19.4332C19.4627 23.7799 19.4922 23.7757 19.5199 23.7656C19.5401 23.7579 19.558 23.7452 19.5719 23.7286C19.5899 23.6976 19.6009 23.6631 19.6041 23.6275C19.6041 23.5806 19.6041 23.4893 19.6041 23.3537V23.0158C19.6041 22.9566 19.6041 22.8974 19.6041 22.8332V22.6951C19.6041 22.6507 19.6041 22.6186 19.6041 22.6014C19.6117 22.5342 19.5988 22.4662 19.567 22.4065C19.5505 22.3888 19.5299 22.3752 19.5071 22.3671C19.4842 22.3589 19.4598 22.3564 19.4357 22.3596H19.3912L19.406 22.2141Z" fill="white"/>
<path d="M21.7335 22.2141L21.9812 22.2338H22.1619H22.3402L22.6349 22.2141V22.3621H22.5953C22.5511 22.3581 22.5068 22.3685 22.469 22.3917C22.4566 22.4033 22.447 22.4175 22.441 22.4333C22.435 22.4492 22.4327 22.4661 22.4343 22.483C22.4322 22.4952 22.4322 22.5077 22.4343 22.52C22.4332 22.5364 22.4332 22.5529 22.4343 22.5693L22.7339 23.5091L22.8627 23.1564C22.9511 22.9346 23.0271 22.7081 23.0905 22.478C23.0921 22.4616 23.0898 22.445 23.0837 22.4295C23.0777 22.4141 23.0682 22.4003 23.0558 22.3892C23.0173 22.3682 22.9734 22.3588 22.9295 22.3621H22.9122V22.2141L23.1252 22.2338H23.2515H23.3778L23.5932 22.2141V22.3621C23.5644 22.3581 23.5353 22.3581 23.5065 22.3621C23.4844 22.3658 23.4632 22.3742 23.4446 22.3868C23.3793 22.4773 23.3299 22.5782 23.2985 22.6852L23.2118 22.9072C23.0905 23.1983 22.9939 23.44 22.9197 23.6472C22.8736 23.7519 22.8355 23.8599 22.8057 23.9703H22.4343C22.4158 23.8866 22.3918 23.8043 22.3625 23.7237L22.0282 22.7691C22.0282 22.7395 22.001 22.6976 21.9836 22.6458C21.9193 22.4509 21.8375 22.3522 21.736 22.3522H21.7063L21.7335 22.2141Z" fill="white"/>
<path d="M24.1776 22.1945H24.5763C24.6753 22.4904 24.7669 22.7692 24.8561 23.0257C24.9452 23.2822 25.017 23.4845 25.074 23.6325C25.0868 23.6849 25.1153 23.7322 25.1557 23.7681C25.1963 23.7911 25.2429 23.8015 25.2894 23.7977V23.9482C25.2003 23.9482 25.1161 23.9334 25.0418 23.9285H24.8462H24.6506C24.5763 23.9285 24.4921 23.9285 24.4029 23.9482V23.7977H24.4178C24.4638 23.8021 24.5101 23.7936 24.5515 23.7731C24.5646 23.7625 24.5749 23.7489 24.5813 23.7334C24.5878 23.7179 24.5904 23.701 24.5887 23.6843C24.5895 23.6687 24.5895 23.653 24.5887 23.6374C24.5887 23.6201 24.5886 23.5979 24.5688 23.5782L24.5119 23.4105H23.9523C23.9459 23.4214 23.941 23.433 23.9374 23.445C23.903 23.517 23.8788 23.5934 23.8656 23.6719C23.8637 23.6894 23.8661 23.707 23.8726 23.7234C23.879 23.7397 23.8894 23.7542 23.9027 23.7657C23.9441 23.7892 23.9914 23.8003 24.0389 23.7977V23.9482L23.8037 23.9285C23.7674 23.9263 23.731 23.9263 23.6947 23.9285C23.6559 23.9264 23.6171 23.9264 23.5783 23.9285L23.3555 23.9482V23.7977C23.4115 23.796 23.4656 23.7766 23.5101 23.7426C23.5545 23.7085 23.587 23.6613 23.6031 23.6078L23.6229 23.5659C23.7195 23.3414 23.8111 23.117 23.9027 22.89C23.9944 22.6631 24.081 22.4239 24.1776 22.1945ZM24.2568 22.5866L24.0414 23.1663H24.4401L24.2568 22.5866Z" fill="white"/>
<path d="M25.386 22.2142H25.4974C25.641 22.2142 25.745 22.229 25.7896 22.229C25.8342 22.229 25.9902 22.229 26.1685 22.2092H26.2353V22.3622H26.1858C26.1622 22.3592 26.1382 22.3626 26.1163 22.3722C26.0945 22.3817 26.0757 22.397 26.062 22.4164C26.0303 22.4946 26.0184 22.5793 26.0273 22.6631C26.0273 22.6828 26.0273 22.7198 26.0273 22.7741V23.7015H26.1437H26.3096C26.4045 23.71 26.4996 23.6866 26.5795 23.6349C26.6479 23.5672 26.696 23.4817 26.7182 23.3883L26.8643 23.4376C26.8395 23.5264 26.8148 23.6127 26.7974 23.6843C26.7801 23.7558 26.7603 23.8545 26.7454 23.9309L26.2328 23.9112H25.9481H25.7005L25.3513 23.9309V23.7805H25.3934C25.4314 23.7833 25.4695 23.7774 25.5048 23.7632C25.5295 23.7484 25.5473 23.7244 25.5544 23.6966C25.5667 23.6516 25.5725 23.6051 25.5717 23.5585C25.5717 23.4919 25.5717 23.3439 25.5717 23.1169V22.9591C25.5717 22.9221 25.5717 22.8727 25.5717 22.8135V22.6902C25.5863 22.6019 25.5846 22.5116 25.5667 22.4238C25.5566 22.4021 25.54 22.3841 25.5192 22.3721C25.4983 22.3602 25.4743 22.355 25.4504 22.3572H25.3984L25.386 22.2142Z" fill="white"/>
<path d="M26.9708 23.0873C26.9673 22.9649 26.9895 22.8431 27.036 22.7297C27.0825 22.6163 27.1522 22.5138 27.2407 22.4287C27.3296 22.3415 27.4354 22.2732 27.5516 22.2278C27.6678 22.1825 27.792 22.161 27.9167 22.1648C28.0366 22.1608 28.156 22.1817 28.2673 22.2263C28.3786 22.2709 28.4793 22.3382 28.563 22.4238C28.6468 22.5128 28.7118 22.6175 28.7543 22.7319C28.7968 22.8462 28.816 22.9679 28.8106 23.0898C28.8163 23.2094 28.7972 23.3289 28.7546 23.4409C28.712 23.5529 28.6468 23.655 28.563 23.7409C28.4732 23.8244 28.3677 23.8893 28.2524 23.9316C28.1372 23.974 28.0147 23.993 27.892 23.9876C27.7701 23.9952 27.648 23.9769 27.5338 23.9338C27.4196 23.8907 27.3159 23.8239 27.2297 23.7378C27.1435 23.6517 27.0767 23.5482 27.0337 23.4343C26.9908 23.3205 26.9727 23.1988 26.9807 23.0774L26.9708 23.0873ZM27.8994 22.4164C27.8368 22.4144 27.7748 22.4288 27.7196 22.4583C27.6644 22.4877 27.6179 22.5311 27.5849 22.5841C27.5026 22.7288 27.4639 22.8941 27.4735 23.0602C27.4639 23.2317 27.5025 23.4025 27.5849 23.5535C27.6177 23.6087 27.665 23.654 27.7218 23.6844C27.7785 23.7148 27.8425 23.7293 27.9068 23.7261C27.9668 23.7281 28.0262 23.714 28.0789 23.6854C28.1315 23.6567 28.1756 23.6146 28.2065 23.5634C28.284 23.4188 28.3199 23.2558 28.3104 23.0922C28.3185 22.9214 28.2818 22.7514 28.204 22.5989C28.1741 22.5448 28.1299 22.4998 28.0762 22.469C28.0225 22.4381 27.9614 22.4225 27.8994 22.4238V22.4164Z" fill="white"/>
<path d="M28.9641 23.7977H29.0038C29.0358 23.8027 29.0683 23.8027 29.1003 23.7977C29.1209 23.7891 29.1376 23.7733 29.1474 23.7533C29.1622 23.7208 29.1699 23.6854 29.1697 23.6497C29.1697 23.6028 29.1697 23.519 29.1697 23.4031V23.0084C29.1697 22.9615 29.1697 22.9023 29.1697 22.8308C29.1697 22.7593 29.1697 22.7099 29.1697 22.6828C29.1753 22.5991 29.1635 22.5151 29.135 22.4361C29.1222 22.4154 29.1038 22.3986 29.0819 22.3877C29.0601 22.3768 29.0356 22.3722 29.0112 22.3745H28.9592V22.2265C29.026 22.2265 29.0904 22.2413 29.1548 22.2462H29.338C29.4272 22.2462 29.5362 22.2462 29.6625 22.229L29.9101 22.2142C30.0661 22.2044 30.2209 22.246 30.3508 22.3326C30.4324 22.4044 30.4849 22.5033 30.4985 22.6109C30.5122 22.7185 30.4861 22.8273 30.4251 22.9171C30.3583 22.9998 30.2737 23.0663 30.1775 23.112L30.3558 23.4302C30.4092 23.538 30.4766 23.6384 30.5564 23.7286C30.5764 23.7519 30.601 23.7706 30.6287 23.7838C30.6565 23.797 30.6866 23.8042 30.7173 23.8051H30.7346H30.7619V23.9654H30.7025H30.4722C30.3619 23.9713 30.2518 23.9519 30.1503 23.9087C30.0732 23.8667 30.0128 23.7997 29.9794 23.7188C29.9596 23.6768 29.9249 23.6004 29.8804 23.4943C29.8358 23.3883 29.7986 23.3093 29.7714 23.2477H29.6996H29.5981V23.519C29.59 23.5929 29.601 23.6676 29.6303 23.736C29.6459 23.7527 29.6652 23.7655 29.6868 23.7732C29.7083 23.7809 29.7314 23.7834 29.7541 23.7804H29.7838V23.9334L29.5213 23.9112H29.3802C29.3381 23.9112 29.2836 23.9112 29.2242 23.9112L28.9443 23.9309L28.9641 23.7977ZM29.6179 23.0577H29.7516H29.8234H29.9051C29.9503 23.0169 29.988 22.9684 30.0165 22.9147C30.0396 22.8609 30.0514 22.803 30.0512 22.7445C30.0533 22.7052 30.0469 22.6659 30.0323 22.6293C30.0178 22.5927 29.9955 22.5596 29.967 22.5323C29.9022 22.478 29.8188 22.4506 29.7342 22.4559H29.6847H29.6129C29.6129 22.5003 29.6129 22.5447 29.6129 22.5866V23.0503L29.6179 23.0577Z" fill="white"/>
<path d="M30.8562 22.2141C30.9775 22.2141 31.1038 22.2289 31.2028 22.2338H31.5024H31.8491L32.2651 22.219C32.2651 22.2955 32.2651 22.372 32.2651 22.4509C32.2651 22.5298 32.2775 22.6063 32.2899 22.6976L32.1587 22.7222C32.153 22.6415 32.1156 22.5661 32.0546 22.5126C31.9675 22.4657 31.8684 22.446 31.7699 22.4558H31.6287H31.495C31.495 22.4879 31.495 22.52 31.495 22.557V22.9664H31.7748C31.8428 22.9741 31.9116 22.9621 31.9729 22.9319C31.99 22.9144 32.0031 22.8935 32.0112 22.8705C32.0193 22.8475 32.0223 22.823 32.02 22.7987L32.1438 22.816C32.1438 22.8949 32.1438 22.9566 32.1438 23.0034C32.1438 23.0503 32.1438 23.0898 32.1438 23.1243C32.1438 23.1588 32.1438 23.2032 32.1438 23.2846C32.1438 23.3118 32.1438 23.3315 32.1438 23.3463L32.0175 23.3611V23.3413C32.0207 23.3153 32.0179 23.2889 32.0093 23.2641C32.0007 23.2393 31.9866 23.2168 31.968 23.1983C31.902 23.166 31.8281 23.1532 31.755 23.1613H31.5074V23.5806C31.5074 23.6176 31.5074 23.6546 31.5074 23.6965H31.6584H31.7872C31.9055 23.7079 32.0246 23.6865 32.1314 23.6349C32.2046 23.5697 32.2557 23.4835 32.2775 23.3882L32.4137 23.4351C32.3889 23.5239 32.3667 23.6077 32.3468 23.6817C32.327 23.7557 32.3097 23.8421 32.2973 23.9284L31.76 23.9087H31.4505H31.188L30.8413 23.9284V23.7779H30.8859C30.9153 23.7799 30.9448 23.7757 30.9725 23.7656C30.9928 23.7579 31.0107 23.7452 31.0245 23.7286C31.0433 23.698 31.0544 23.6633 31.0567 23.6275C31.0624 23.5363 31.0624 23.4449 31.0567 23.3537V23.0158C31.0567 22.9566 31.0567 22.8974 31.0567 22.8332V22.6951C31.0567 22.6507 31.0567 22.6186 31.0567 22.6014C31.0644 22.5342 31.0514 22.4662 31.0196 22.4065C31.0031 22.3888 30.9826 22.3752 30.9597 22.3671C30.9369 22.3589 30.9124 22.3564 30.8883 22.3596H30.8438L30.8562 22.2141Z" fill="white"/>
<path d="M33.8103 22.2758V22.3523C33.8103 22.4238 33.8103 22.4904 33.8103 22.557C33.8103 22.6236 33.8103 22.6877 33.8325 22.7519L33.6741 22.779C33.674 22.6761 33.6341 22.5771 33.5626 22.5028C33.4857 22.4373 33.3862 22.4046 33.2853 22.4115C33.2113 22.4077 33.1381 22.4285 33.0773 22.4707C33.0525 22.4888 33.0326 22.5126 33.0192 22.5401C33.0059 22.5676 32.9994 22.598 33.0005 22.6285C33.0005 22.7198 33.112 22.7913 33.3323 22.8431H33.3695C33.5192 22.8683 33.6595 22.9331 33.7756 23.0306C33.8174 23.074 33.8498 23.1256 33.8707 23.182C33.8915 23.2385 33.9005 23.2986 33.8969 23.3587C33.8993 23.4458 33.8818 23.5324 33.8458 23.6118C33.8098 23.6913 33.7561 23.7616 33.6889 23.8174C33.5316 23.9393 33.3358 24.0013 33.1367 23.9926C33.0444 23.9926 32.9523 23.9835 32.8618 23.9654C32.7762 23.9476 32.693 23.9194 32.6142 23.8816C32.6142 23.8692 32.6142 23.8569 32.6142 23.847V23.7928C32.6142 23.7188 32.6142 23.6423 32.6142 23.5659C32.6142 23.4894 32.5944 23.4105 32.582 23.3365L32.7504 23.3044C32.7625 23.4286 32.8117 23.5463 32.8916 23.6423C32.9307 23.6795 32.977 23.7083 33.0276 23.7269C33.0783 23.7456 33.1323 23.7537 33.1862 23.7509C33.2641 23.7548 33.3413 23.7341 33.4066 23.6917C33.4328 23.6739 33.4541 23.6499 33.4688 23.622C33.4835 23.594 33.4911 23.5629 33.4908 23.5313C33.4908 23.4327 33.3918 23.3562 33.1937 23.3019L33.107 23.2773C32.9609 23.2477 32.8251 23.1806 32.7133 23.0824C32.6746 23.0393 32.6448 22.989 32.6257 22.9344C32.6066 22.8798 32.5985 22.8219 32.6019 22.7642C32.5997 22.6816 32.6164 22.5996 32.6507 22.5244C32.685 22.4492 32.7361 22.3828 32.7999 22.3301C32.9459 22.2145 33.1287 22.1549 33.315 22.1624C33.4032 22.1621 33.4912 22.1712 33.5775 22.1895C33.6584 22.2084 33.7366 22.2374 33.8103 22.2758Z" fill="white"/>
</g>
<defs>
<clipPath id="clip0_406_3520">
<rect width="33.8824" height="24" fill="white" transform="translate(0.0219727)"/>
</clipPath>
</defs>
</svg>
