<svg width="36" height="24" viewBox="0 0 36 24" fill="none" xmlns="http://www.w3.org/2000/svg">
<g clip-path="url(#clip0_406_3503)">
<path fill-rule="evenodd" clip-rule="evenodd" d="M13.3688 22.1711C13.3761 21.9253 13.3323 21.6807 13.24 21.4527C13.1477 21.2248 13.0089 21.0184 12.8326 20.8467C12.6562 20.675 12.446 20.5417 12.2154 20.4552C11.9847 20.3688 11.7385 20.331 11.4925 20.3444C10.3484 20.3444 9.61621 21.1345 9.61621 22.1711C9.61621 22.6677 9.81387 23.1439 10.1657 23.495C10.5176 23.8461 10.9949 24.0434 11.4925 24.0434C11.9901 24.0434 12.4674 23.8461 12.8193 23.495C13.1711 23.1439 13.3688 22.6677 13.3688 22.1711ZM12.6046 22.1437C12.6046 22.6757 12.3117 23.3333 11.4925 23.3333C10.6733 23.3333 10.3805 22.6757 10.3805 22.1437C10.3805 21.8494 10.4976 21.5671 10.7062 21.359C10.9147 21.1509 11.1976 21.034 11.4925 21.034C11.7874 21.034 12.0703 21.1509 12.2789 21.359C12.4874 21.5671 12.6046 21.8494 12.6046 22.1437Z" fill="white"/>
<path fill-rule="evenodd" clip-rule="evenodd" d="M35.0219 22.171C35.0219 21.1412 34.2782 20.3444 33.1456 20.3444C32.0129 20.3444 31.2693 21.1344 31.2693 22.171C31.2693 22.6676 31.4669 23.1438 31.8188 23.495C32.1707 23.8461 32.648 24.0433 33.1456 24.0433C33.6432 24.0433 34.1205 23.8461 34.4723 23.495C34.8242 23.1438 35.0219 22.6676 35.0219 22.171ZM34.2576 22.1436C34.2576 22.6756 33.9648 23.3332 33.1456 23.3332C32.3264 23.3332 32.0335 22.6756 32.0335 22.1436C32.0335 21.8493 32.1507 21.5671 32.3592 21.3589C32.5678 21.1508 32.8507 21.0339 33.1456 21.0339C33.4405 21.0339 33.7234 21.1508 33.9319 21.3589C34.1405 21.5671 34.2576 21.8493 34.2576 22.1436Z" fill="white"/>
<path fill-rule="evenodd" clip-rule="evenodd" d="M4.17242 22.598H3.71478L3.9436 21.9998L4.17242 22.598ZM4.26394 23.1939L4.53623 23.92H5.3577L4.00766 20.3055H3.87038L2.48145 23.92H3.30977L3.58664 23.1939H4.26394Z" fill="white"/>
<path fill-rule="evenodd" clip-rule="evenodd" d="M17.2357 7.57378H14.2611C15.904 7.57378 15.9177 7.57378 14.2611 7.57378V15.4307H19.8534C23.7434 15.6408 24.979 9.8571 21.8579 8.17658C21.0456 7.73818 20.295 7.68795 19.4141 7.57378H17.2357ZM14.2474 6.57825H19.8305C21.6176 5.92066 21.9814 4.45933 21.9814 4.45933C22.4116 3.1624 21.6451 2.01389 21.6451 2.01389C20.8648 0.940729 19.4004 0.917895 19.4004 0.917895H14.2474V6.57825ZM22.2995 6.27C21.9558 6.53146 21.5685 6.73013 21.1554 6.85682C21.1554 6.85682 24.876 7.59433 25.3885 10.8846C26.0292 14.9946 22.8715 16.3851 21.7526 16.4262C20.6337 16.4673 20.5948 16.4262 20.5948 16.4262H12.0461V15.5471C12.0461 15.5471 13.0049 15.5882 13.0049 14.6703V1.27638C13.0049 1.27638 12.8447 0.716963 12.4855 0.716963H12.1262V0H20.4758C20.4758 0 22.057 0.228332 22.9402 1.54124C22.9402 1.54124 24.6334 4.1077 22.2949 6.27H22.2995Z" fill="white"/>
<path d="M5.49268 23.92H6.19744V22.2418L7.2317 23.92H7.73968V20.3855H7.02576V22.3126L5.68031 20.3055H5.49268V23.92Z" fill="white"/>
<path d="M9.70301 20.333C9.46202 20.3371 9.22421 20.3887 9.00326 20.4848C8.78231 20.5809 8.58254 20.7196 8.41543 20.8929C8.24833 21.0663 8.11718 21.2708 8.0295 21.4949C7.94181 21.7189 7.89931 21.958 7.90447 22.1985C7.90624 22.673 8.09483 23.1278 8.42956 23.4648C8.7643 23.8018 9.21838 23.994 9.69385 24V23.315C9.40532 23.2936 9.13562 23.164 8.93904 22.9522C8.74247 22.7403 8.63362 22.462 8.63442 22.1733C8.62782 21.88 8.73467 21.5954 8.93279 21.3785C9.13091 21.1617 9.40509 21.0293 9.69843 21.0088V20.3239L9.70301 20.333Z" fill="white"/>
<path d="M18.755 20.9791V20.3672H17.4438V23.92H18.755V23.3606H18.1486V22.3856H18.7115V21.7737H18.1486V20.9791H18.755Z" fill="white"/>
<path d="M23.3224 23.92H24.034L23.5718 20.3055H23.3818L22.3361 22.5729L21.2378 20.3055H21.0593L20.5308 23.92H21.2401L21.4804 22.292L22.2011 23.92H22.446L23.1164 22.292L23.3224 23.92Z" fill="white"/>
<path d="M26.7112 22.0637L25.5557 23.9201H26.3794L27.0704 22.6528L27.7981 23.9201H28.6195L27.5075 22.0637L28.5143 20.3855H27.6814L27.1482 21.4861L26.5762 20.3855H25.7433L26.7112 22.0637Z" fill="white"/>
<path d="M29.4479 20.3855H28.7432V23.9201H29.4479V20.3855Z" fill="white"/>
<path d="M25.4273 20.9792V20.3855H24.1963V23.9201H25.4273V23.3607H24.9011V22.3857H25.3839V21.7738H24.9011V20.9792H25.4273Z" fill="white"/>
<path d="M24.5168 20.0293H24.9424L25.3635 19.1479H24.7617L24.5168 20.0293Z" fill="white"/>
<path d="M31.3858 20.333C31.1449 20.3371 30.9071 20.3887 30.6861 20.4848C30.4652 20.5809 30.2654 20.7196 30.0983 20.8929C29.9312 21.0663 29.8 21.2708 29.7124 21.4949C29.6247 21.7189 29.5822 21.958 29.5873 22.1985C29.5891 22.673 29.7777 23.1278 30.1124 23.4648C30.4472 23.8018 30.9012 23.994 31.3767 24V23.315C31.0878 23.2942 30.8175 23.1648 30.6205 22.9529C30.4234 22.741 30.3142 22.4624 30.315 22.1733C30.3084 21.8796 30.4156 21.5947 30.6142 21.3778C30.8128 21.1609 31.0875 21.0288 31.3813 21.0088V20.3239L31.3858 20.333Z" fill="white"/>
<path fill-rule="evenodd" clip-rule="evenodd" d="M1.1338 22.146H1.191C1.61661 22.146 1.92323 22.2259 1.91637 22.7237C1.91637 23.2785 1.68755 23.3333 1.22991 23.3333H1.13151V22.146H1.1338ZM1.1338 20.8559C1.32601 20.8559 1.46788 20.9267 1.46788 21.1619C1.46788 21.3971 1.35804 21.4656 1.1338 21.4656V20.8559ZM0.433615 23.9202H1.5411C2.19781 23.9202 2.55706 23.6073 2.61655 22.9109C2.66232 22.3652 2.5113 21.8378 1.88662 21.7967C1.97062 21.7147 2.03485 21.6148 2.07449 21.5044C2.11413 21.3941 2.12813 21.2762 2.11544 21.1596C2.11544 20.6367 1.78365 20.3673 1.11321 20.3673H0.426758V23.9202H0.433615Z" fill="white"/>
<path fill-rule="evenodd" clip-rule="evenodd" d="M15.2427 23.92H16.0161C16.8101 23.92 17.2837 23.2099 17.2837 22.187C17.2837 21.1641 16.8261 20.3604 16.0184 20.3604H15.2427V23.9132V23.92ZM15.785 20.9837H15.8742C16.492 20.9837 16.7231 21.3924 16.7231 22.1824C16.7231 22.9017 16.5424 23.3835 15.8742 23.3835H15.785V20.9837Z" fill="white"/>
<path d="M13.0072 3.86564C12.7766 3.55541 12.5795 3.22171 12.4192 2.87011L9.74196 17.0267C9.74196 17.0267 9.91588 17.3327 10.5017 17.3487V18.262H7.90454V17.3487C8.48345 17.3327 8.88849 17.0724 8.90222 16.4696C8.90222 16.3052 11.4718 3.09159 11.4192 2.845C11.3849 2.708 11.3574 2.41116 10.7007 2.45455V1.56177H13.0072C13.0072 1.56177 18.0138 8.65377 18.0183 8.65377L21.819 1.56177H24.2811V2.29928C24.2811 2.29928 22.645 2.19425 22.7526 3.04136L25.7112 16.4901C25.7444 16.6727 25.7997 16.8506 25.876 17.0199C25.876 17.0199 26.0293 17.4103 26.8462 17.3464V18.2597H23.8578V17.3464C23.9684 17.3716 24.0836 17.3679 24.1923 17.3355C24.3009 17.3031 24.3993 17.2432 24.4779 17.1615C24.5565 17.0799 24.6126 16.9794 24.6406 16.8697C24.6687 16.7601 24.6678 16.645 24.6381 16.5358L21.7755 3.78801L17.9611 11.0627L13.0072 3.86564Z" fill="white"/>
</g>
<defs>
<clipPath id="clip0_406_3503">
<rect width="34.5882" height="24" fill="white" transform="translate(0.433594)"/>
</clipPath>
</defs>
</svg>
